M48
; DRILL file {KiCad 9.0.4} date 2025-08-20T23:04:32+0200
; FORMAT={-:-/ absolute / inch / decimal}
; #@! TF.CreationDate,2025-08-20T23:04:32+02:00
; #@! TF.GenerationSoftware,Kicad,Pcbnew,9.0.4
; #@! TF.FileFunction,NonPlated,1,2,NPTH
FMAT,2
INCH
; #@! TA.AperFunction,NonPlated,NPTH,ComponentDrill
T1C0.0354
; #@! TA.AperFunction,NonPlated,NPTH,ComponentDrill
T2C0.0748
; #@! TA.AperFunction,NonPlated,NPTH,ComponentDrill
T3C0.1614
%
G90
G05
T1
X4.3427Y-1.6904
X4.4608Y-1.6904
T2
X1.7425Y-2.4279
X1.7425Y-3.1759
X1.7425Y-3.9239
X2.1425Y-2.4279
X2.1425Y-3.1759
X2.1425Y-3.9239
X2.4906Y-2.0529
X2.4906Y-2.8009
X2.4906Y-3.5489
X2.8906Y-2.0529
X2.8906Y-2.8009
X2.8906Y-3.5489
X3.2366Y-4.2989
X3.2386Y-1.8654
X3.2386Y-2.6134
X3.2386Y-3.3614
X3.6366Y-4.2989
X3.6386Y-1.8654
X3.6386Y-2.6134
X3.6386Y-3.3614
X3.9846Y-4.2989
X3.9866Y-2.0529
X3.9866Y-2.8009
X3.9866Y-3.5489
X4.3846Y-4.2989
X4.3866Y-2.0529
X4.3866Y-2.8009
X4.3866Y-3.5489
X4.7327Y-4.2989
X4.7346Y-2.0529
X4.7346Y-2.8009
X4.7346Y-3.5489
X5.1327Y-4.2989
X5.1346Y-2.0529
X5.1346Y-2.8009
X5.1346Y-3.5489
T3
X1.9425Y-2.4279
X1.9425Y-3.1759
X1.9425Y-3.9239
X2.6906Y-2.0529
X2.6906Y-2.8009
X2.6906Y-3.5489
X3.4366Y-4.2989
X3.4386Y-1.8654
X3.4386Y-2.6134
X3.4386Y-3.3614
X4.1846Y-4.2989
X4.1866Y-2.0529
X4.1866Y-2.8009
X4.1866Y-3.5489
X4.9327Y-4.2989
X4.9346Y-2.0529
X4.9346Y-2.8009
X4.9346Y-3.5489
M30
