M48
; DRILL file {KiCad 9.0.4} date 2025-08-20T23:04:32+0200
; FORMAT={-:-/ absolute / inch / decimal}
; #@! TF.CreationDate,2025-08-20T23:04:32+02:00
; #@! TF.GenerationSoftware,Kicad,Pcbnew,9.0.4
; #@! TF.FileFunction,Plated,1,2,PTH
FMAT,2
INCH
; #@! TA.AperFunction,Plated,PTH,ViaDrill
T1C0.0157
; #@! TA.AperFunction,Plated,PTH,ComponentDrill
T2C0.0157
; #@! TA.AperFunction,Plated,PTH,ComponentDrill
T3C0.0390
; #@! TA.AperFunction,Plated,PTH,ComponentDrill
T4C0.0394
; #@! TA.AperFunction,Plated,PTH,ComponentDrill
T5C0.0590
%
G90
G05
T1
X3.2657Y-4.0
X3.2659Y-3.6657
X3.4626Y-4.0
X3.4627Y-3.6657
X3.6594Y-4.0
X3.6596Y-3.6657
T2
X3.3386Y-3.8287
X3.5374Y-3.8302
X3.7343Y-3.8302
X3.7343Y-4.0
X3.8514Y-3.1803
X4.4902Y-1.8248
X4.7136Y-3.1803
X4.8031Y-1.6788
X4.8031Y-2.1798
X5.0661Y-1.6788
X5.0661Y-2.1798
X5.3091Y-2.25
X5.3092Y-2.2028
T3
X1.7925Y-2.6247
X1.7925Y-3.3727
X1.7925Y-4.1208
X2.0925Y-2.6247
X2.0925Y-3.3727
X2.0925Y-4.1208
X2.5406Y-2.2497
X2.5406Y-2.9977
X2.5406Y-3.7458
X2.8406Y-2.2497
X2.8406Y-2.9977
X2.8406Y-3.7458
X3.2866Y-4.4958
X3.2886Y-2.0622
X3.2886Y-2.8102
X3.2886Y-3.5583
X3.5866Y-4.4958
X3.5886Y-2.0622
X3.5886Y-2.8102
X3.5886Y-3.5583
X4.0346Y-4.4958
X4.0366Y-2.2497
X4.0366Y-2.9977
X4.0366Y-3.7458
X4.3346Y-4.4958
X4.3366Y-2.2497
X4.3366Y-2.9977
X4.3366Y-3.7458
X4.7827Y-4.4958
X4.7846Y-2.2759
X4.7846Y-2.9977
X4.7846Y-3.7458
X5.0827Y-4.4958
X5.0846Y-2.2759
X5.0846Y-2.9977
X5.0846Y-3.7458
T4
X4.51Y-2.0746
X4.51Y-2.1746
X4.6346Y-1.6759
X4.6346Y-1.7759
X4.6346Y-1.8759
X4.6346Y-1.9759
X4.6346Y-2.0759
X4.6346Y-2.1759
X4.6346Y-2.2759
X4.6346Y-2.3759
X4.6346Y-2.4759
X4.6346Y-2.5759
X4.6346Y-2.6759
X4.6346Y-2.7759
X4.6346Y-2.8759
X5.2346Y-1.6759
X5.2346Y-1.7759
X5.2346Y-1.8759
X5.2346Y-1.9759
X5.2346Y-2.0759
X5.2346Y-2.1759
X5.2346Y-2.2759
X5.2346Y-2.3759
X5.2346Y-2.4759
X5.2346Y-2.5759
X5.2346Y-2.6759
X5.2346Y-2.7759
X5.2346Y-2.8759
T5
X1.7925Y-2.3279
X1.7925Y-3.0759
X1.7925Y-3.8239
X1.8425Y-2.2279
X1.8425Y-2.9759
X1.8425Y-3.7239
X2.0425Y-2.2279
X2.0425Y-2.9759
X2.0425Y-3.7239
X2.0925Y-2.3279
X2.0925Y-3.0759
X2.0925Y-3.8239
X2.5406Y-1.9529
X2.5406Y-2.7009
X2.5406Y-3.4489
X2.5906Y-1.8529
X2.5906Y-2.6009
X2.5906Y-3.3489
X2.7906Y-1.8529
X2.7906Y-2.6009
X2.7906Y-3.3489
X2.8406Y-1.9529
X2.8406Y-2.7009
X2.8406Y-3.4489
X3.2866Y-4.1989
X3.2886Y-1.7654
X3.2886Y-2.5134
X3.2886Y-3.2614
X3.3366Y-4.0989
X3.3386Y-1.6654
X3.3386Y-2.4134
X3.3386Y-3.1614
X3.5366Y-4.0989
X3.5386Y-1.6654
X3.5386Y-2.4134
X3.5386Y-3.1614
X3.5866Y-4.1989
X3.5886Y-1.7654
X3.5886Y-2.5134
X3.5886Y-3.2614
X4.0346Y-4.1989
X4.0366Y-1.9529
X4.0366Y-2.7009
X4.0366Y-3.4489
X4.0846Y-4.0989
X4.0866Y-1.8529
X4.0866Y-2.6009
X4.0866Y-3.3489
X4.2846Y-4.0989
X4.2866Y-1.8529
X4.2866Y-2.6009
X4.2866Y-3.3489
X4.3346Y-4.1989
X4.3366Y-1.9529
X4.3366Y-2.7009
X4.3366Y-3.4489
X4.7827Y-4.1989
X4.7846Y-1.9529
X4.7846Y-2.7009
X4.7846Y-3.4489
X4.8327Y-4.0989
X4.8346Y-1.8529
X4.8346Y-2.6009
X4.8346Y-3.3489
X5.0327Y-4.0989
X5.0346Y-1.8529
X5.0346Y-2.6009
X5.0346Y-3.3489
X5.0827Y-4.1989
X5.0846Y-1.9529
X5.0846Y-2.7009
X5.0846Y-3.4489
M30
