  0
SECTION
  2
HEADER
  9
$ACADVER
  1
AC1009
  9
$FILLMODE
 70
 0
  9
$SPLFRAME
 70
 1
  9
$EXTMIN
 10
0
 20
0
 30
0.0
  9
$EXTMAX
 10
1058.33
 20
1058.33
 30
0.0
  0
ENDSEC
  0
SECTION
  2
TABLES
  0
TABLE
  2
LAYER
 70
1
  0
LAYER
  2
0
 70
     0
 62
     7
  6
CONTINUOUS
  0
ENDTAB
  0
ENDSEC
  0
SECTION
  2
ENTITIES
  0
LINE
  8
0
 62
     0
 10
0.0950846
 20
75.3992
 30
0.0
 11
190.595
 21
75.3992
 31
0.0
  0
LINE
  8
0
 62
     0
 10
190.595
 20
75.3992
 30
0.0
 11
190.595
 21
0.438217
 31
0.0
  0
LINE
  8
0
 62
     0
 10
190.595
 20
0.438217
 30
0.0
 11
0.0950846
 21
0.438217
 31
0.0
  0
LINE
  8
0
 62
     0
 10
0.0950846
 20
0.438217
 30
0.0
 11
0.0950846
 21
75.3992
 31
0.0
  0
LINE
  8
0
 62
     0
 10
2.61965
 20
16.9636
 30
0.0
 11
16.6192
 21
16.9636
 31
0.0
  0
LINE
  8
0
 62
     0
 10
16.6192
 20
16.9636
 30
0.0
 11
16.6192
 21
2.96416
 31
0.0
  0
LINE
  8
0
 62
     0
 10
16.6192
 20
2.96416
 30
0.0
 11
2.61965
 21
2.96416
 31
0.0
  0
LINE
  8
0
 62
     0
 10
2.61965
 20
2.96416
 30
0.0
 11
2.61965
 21
16.9636
 31
0.0
  0
LINE
  8
0
 62
     0
 10
21.6697
 20
16.9636
 30
0.0
 11
35.669
 21
16.9636
 31
0.0
  0
LINE
  8
0
 62
     0
 10
35.669
 20
16.9636
 30
0.0
 11
35.669
 21
2.96416
 31
0.0
  0
LINE
  8
0
 62
     0
 10
35.669
 20
2.96416
 30
0.0
 11
21.6697
 21
2.96416
 31
0.0
  0
LINE
  8
0
 62
     0
 10
21.6697
 20
2.96416
 30
0.0
 11
21.6697
 21
16.9636
 31
0.0
  0
LINE
  8
0
 62
     0
 10
40.7197
 20
16.9636
 30
0.0
 11
54.719
 21
16.9636
 31
0.0
  0
LINE
  8
0
 62
     0
 10
54.719
 20
16.9636
 30
0.0
 11
54.719
 21
2.96416
 31
0.0
  0
LINE
  8
0
 62
     0
 10
54.719
 20
2.96416
 30
0.0
 11
40.7197
 21
2.96416
 31
0.0
  0
LINE
  8
0
 62
     0
 10
40.7197
 20
2.96416
 30
0.0
 11
40.7197
 21
16.9636
 31
0.0
  0
LINE
  8
0
 62
     0
 10
59.7697
 20
16.9636
 30
0.0
 11
73.769
 21
16.9636
 31
0.0
  0
LINE
  8
0
 62
     0
 10
73.769
 20
16.9636
 30
0.0
 11
73.769
 21
2.96416
 31
0.0
  0
LINE
  8
0
 62
     0
 10
73.769
 20
2.96416
 30
0.0
 11
59.7697
 21
2.96416
 31
0.0
  0
LINE
  8
0
 62
     0
 10
59.7697
 20
2.96416
 30
0.0
 11
59.7697
 21
16.9636
 31
0.0
  0
LINE
  8
0
 62
     0
 10
78.8197
 20
16.9636
 30
0.0
 11
92.819
 21
16.9636
 31
0.0
  0
LINE
  8
0
 62
     0
 10
92.819
 20
16.9636
 30
0.0
 11
92.819
 21
2.96416
 31
0.0
  0
LINE
  8
0
 62
     0
 10
92.819
 20
2.96416
 30
0.0
 11
78.8197
 21
2.96416
 31
0.0
  0
LINE
  8
0
 62
     0
 10
78.8197
 20
2.96416
 30
0.0
 11
78.8197
 21
16.9636
 31
0.0
  0
LINE
  8
0
 62
     0
 10
97.8683
 20
16.9636
 30
0.0
 11
111.869
 21
16.9636
 31
0.0
  0
LINE
  8
0
 62
     0
 10
111.869
 20
16.9636
 30
0.0
 11
111.869
 21
2.96416
 31
0.0
  0
LINE
  8
0
 62
     0
 10
111.869
 20
2.96416
 30
0.0
 11
97.8683
 21
2.96416
 31
0.0
  0
LINE
  8
0
 62
     0
 10
97.8683
 20
2.96416
 30
0.0
 11
97.8683
 21
16.9636
 31
0.0
  0
LINE
  8
0
 62
     0
 10
116.918
 20
16.9636
 30
0.0
 11
130.919
 21
16.9636
 31
0.0
  0
LINE
  8
0
 62
     0
 10
130.919
 20
16.9636
 30
0.0
 11
130.919
 21
2.96416
 31
0.0
  0
LINE
  8
0
 62
     0
 10
130.919
 20
2.96416
 30
0.0
 11
116.918
 21
2.96416
 31
0.0
  0
LINE
  8
0
 62
     0
 10
116.918
 20
2.96416
 30
0.0
 11
116.918
 21
16.9636
 31
0.0
  0
LINE
  8
0
 62
     0
 10
135.97
 20
16.9636
 30
0.0
 11
149.969
 21
16.9636
 31
0.0
  0
LINE
  8
0
 62
     0
 10
149.969
 20
16.9636
 30
0.0
 11
149.969
 21
2.96416
 31
0.0
  0
LINE
  8
0
 62
     0
 10
149.969
 20
2.96416
 30
0.0
 11
135.97
 21
2.96416
 31
0.0
  0
LINE
  8
0
 62
     0
 10
135.97
 20
2.96416
 30
0.0
 11
135.97
 21
16.9636
 31
0.0
  0
LINE
  8
0
 62
     0
 10
155.02
 20
16.9636
 30
0.0
 11
169.019
 21
16.9636
 31
0.0
  0
LINE
  8
0
 62
     0
 10
169.019
 20
16.9636
 30
0.0
 11
169.019
 21
2.96416
 31
0.0
  0
LINE
  8
0
 62
     0
 10
169.019
 20
2.96416
 30
0.0
 11
155.02
 21
2.96416
 31
0.0
  0
LINE
  8
0
 62
     0
 10
155.02
 20
2.96416
 30
0.0
 11
155.02
 21
16.9636
 31
0.0
  0
LINE
  8
0
 62
     0
 10
174.07
 20
16.9636
 30
0.0
 11
188.069
 21
16.9636
 31
0.0
  0
LINE
  8
0
 62
     0
 10
188.069
 20
16.9636
 30
0.0
 11
188.069
 21
2.96416
 31
0.0
  0
LINE
  8
0
 62
     0
 10
188.069
 20
2.96416
 30
0.0
 11
174.07
 21
2.96416
 31
0.0
  0
LINE
  8
0
 62
     0
 10
174.07
 20
2.96416
 30
0.0
 11
174.07
 21
16.9636
 31
0.0
  0
LINE
  8
0
 62
     0
 10
2.61965
 20
36.0137
 30
0.0
 11
16.6192
 21
36.0137
 31
0.0
  0
LINE
  8
0
 62
     0
 10
16.6192
 20
36.0137
 30
0.0
 11
16.6192
 21
22.0141
 31
0.0
  0
LINE
  8
0
 62
     0
 10
16.6192
 20
22.0141
 30
0.0
 11
2.61965
 21
22.0141
 31
0.0
  0
LINE
  8
0
 62
     0
 10
2.61965
 20
22.0141
 30
0.0
 11
2.61965
 21
36.0137
 31
0.0
  0
LINE
  8
0
 62
     0
 10
21.6697
 20
36.0137
 30
0.0
 11
35.669
 21
36.0137
 31
0.0
  0
LINE
  8
0
 62
     0
 10
35.669
 20
36.0137
 30
0.0
 11
35.669
 21
22.0141
 31
0.0
  0
LINE
  8
0
 62
     0
 10
35.669
 20
22.0141
 30
0.0
 11
21.6697
 21
22.0141
 31
0.0
  0
LINE
  8
0
 62
     0
 10
21.6697
 20
22.0141
 30
0.0
 11
21.6697
 21
36.0137
 31
0.0
  0
LINE
  8
0
 62
     0
 10
40.7197
 20
36.0137
 30
0.0
 11
54.719
 21
36.0137
 31
0.0
  0
LINE
  8
0
 62
     0
 10
54.719
 20
36.0137
 30
0.0
 11
54.719
 21
22.0141
 31
0.0
  0
LINE
  8
0
 62
     0
 10
54.719
 20
22.0141
 30
0.0
 11
40.7197
 21
22.0141
 31
0.0
  0
LINE
  8
0
 62
     0
 10
40.7197
 20
22.0141
 30
0.0
 11
40.7197
 21
36.0137
 31
0.0
  0
LINE
  8
0
 62
     0
 10
59.7697
 20
36.0137
 30
0.0
 11
73.769
 21
36.0137
 31
0.0
  0
LINE
  8
0
 62
     0
 10
73.769
 20
36.0137
 30
0.0
 11
73.769
 21
22.0141
 31
0.0
  0
LINE
  8
0
 62
     0
 10
73.769
 20
22.0141
 30
0.0
 11
59.7697
 21
22.0141
 31
0.0
  0
LINE
  8
0
 62
     0
 10
59.7697
 20
22.0141
 30
0.0
 11
59.7697
 21
36.0137
 31
0.0
  0
LINE
  8
0
 62
     0
 10
78.8197
 20
36.0137
 30
0.0
 11
92.819
 21
36.0137
 31
0.0
  0
LINE
  8
0
 62
     0
 10
92.819
 20
36.0137
 30
0.0
 11
92.819
 21
22.0141
 31
0.0
  0
LINE
  8
0
 62
     0
 10
92.819
 20
22.0141
 30
0.0
 11
78.8197
 21
22.0141
 31
0.0
  0
LINE
  8
0
 62
     0
 10
78.8197
 20
22.0141
 30
0.0
 11
78.8197
 21
36.0137
 31
0.0
  0
LINE
  8
0
 62
     0
 10
97.8683
 20
36.0137
 30
0.0
 11
111.869
 21
36.0137
 31
0.0
  0
LINE
  8
0
 62
     0
 10
111.869
 20
36.0137
 30
0.0
 11
111.869
 21
22.0141
 31
0.0
  0
LINE
  8
0
 62
     0
 10
111.869
 20
22.0141
 30
0.0
 11
97.8683
 21
22.0141
 31
0.0
  0
LINE
  8
0
 62
     0
 10
97.8683
 20
22.0141
 30
0.0
 11
97.8683
 21
36.0137
 31
0.0
  0
LINE
  8
0
 62
     0
 10
116.918
 20
36.0137
 30
0.0
 11
130.919
 21
36.0137
 31
0.0
  0
LINE
  8
0
 62
     0
 10
130.919
 20
36.0137
 30
0.0
 11
130.919
 21
22.0141
 31
0.0
  0
LINE
  8
0
 62
     0
 10
130.919
 20
22.0141
 30
0.0
 11
116.918
 21
22.0141
 31
0.0
  0
LINE
  8
0
 62
     0
 10
116.918
 20
22.0141
 30
0.0
 11
116.918
 21
36.0137
 31
0.0
  0
LINE
  8
0
 62
     0
 10
135.97
 20
36.0137
 30
0.0
 11
149.969
 21
36.0137
 31
0.0
  0
LINE
  8
0
 62
     0
 10
149.969
 20
36.0137
 30
0.0
 11
149.969
 21
22.0141
 31
0.0
  0
LINE
  8
0
 62
     0
 10
149.969
 20
22.0141
 30
0.0
 11
135.97
 21
22.0141
 31
0.0
  0
LINE
  8
0
 62
     0
 10
135.97
 20
22.0141
 30
0.0
 11
135.97
 21
36.0137
 31
0.0
  0
LINE
  8
0
 62
     0
 10
155.02
 20
36.0137
 30
0.0
 11
169.019
 21
36.0137
 31
0.0
  0
LINE
  8
0
 62
     0
 10
169.019
 20
36.0137
 30
0.0
 11
169.019
 21
22.0141
 31
0.0
  0
LINE
  8
0
 62
     0
 10
169.019
 20
22.0141
 30
0.0
 11
155.02
 21
22.0141
 31
0.0
  0
LINE
  8
0
 62
     0
 10
155.02
 20
22.0141
 30
0.0
 11
155.02
 21
36.0137
 31
0.0
  0
LINE
  8
0
 62
     0
 10
174.07
 20
36.0137
 30
0.0
 11
188.069
 21
36.0137
 31
0.0
  0
LINE
  8
0
 62
     0
 10
188.069
 20
36.0137
 30
0.0
 11
188.069
 21
22.0141
 31
0.0
  0
LINE
  8
0
 62
     0
 10
188.069
 20
22.0141
 30
0.0
 11
174.07
 21
22.0141
 31
0.0
  0
LINE
  8
0
 62
     0
 10
174.07
 20
22.0141
 30
0.0
 11
174.07
 21
36.0137
 31
0.0
  0
LINE
  8
0
 62
     0
 10
2.61965
 20
55.0637
 30
0.0
 11
16.6192
 21
55.0637
 31
0.0
  0
LINE
  8
0
 62
     0
 10
16.6192
 20
55.0637
 30
0.0
 11
16.6192
 21
41.064
 31
0.0
  0
LINE
  8
0
 62
     0
 10
16.6192
 20
41.064
 30
0.0
 11
2.61965
 21
41.064
 31
0.0
  0
LINE
  8
0
 62
     0
 10
2.61965
 20
41.064
 30
0.0
 11
2.61965
 21
55.0637
 31
0.0
  0
LINE
  8
0
 62
     0
 10
21.6697
 20
55.0637
 30
0.0
 11
35.669
 21
55.0637
 31
0.0
  0
LINE
  8
0
 62
     0
 10
35.669
 20
55.0637
 30
0.0
 11
35.669
 21
41.064
 31
0.0
  0
LINE
  8
0
 62
     0
 10
35.669
 20
41.064
 30
0.0
 11
21.6697
 21
41.064
 31
0.0
  0
LINE
  8
0
 62
     0
 10
21.6697
 20
41.064
 30
0.0
 11
21.6697
 21
55.0637
 31
0.0
  0
LINE
  8
0
 62
     0
 10
40.7197
 20
55.0637
 30
0.0
 11
54.719
 21
55.0637
 31
0.0
  0
LINE
  8
0
 62
     0
 10
54.719
 20
55.0637
 30
0.0
 11
54.719
 21
41.064
 31
0.0
  0
LINE
  8
0
 62
     0
 10
54.719
 20
41.064
 30
0.0
 11
40.7197
 21
41.064
 31
0.0
  0
LINE
  8
0
 62
     0
 10
40.7197
 20
41.064
 30
0.0
 11
40.7197
 21
55.0637
 31
0.0
  0
LINE
  8
0
 62
     0
 10
59.7697
 20
55.0637
 30
0.0
 11
73.769
 21
55.0637
 31
0.0
  0
LINE
  8
0
 62
     0
 10
73.769
 20
55.0637
 30
0.0
 11
73.769
 21
41.064
 31
0.0
  0
LINE
  8
0
 62
     0
 10
73.769
 20
41.064
 30
0.0
 11
59.7697
 21
41.064
 31
0.0
  0
LINE
  8
0
 62
     0
 10
59.7697
 20
41.064
 30
0.0
 11
59.7697
 21
55.0637
 31
0.0
  0
LINE
  8
0
 62
     0
 10
78.8197
 20
55.0637
 30
0.0
 11
92.819
 21
55.0637
 31
0.0
  0
LINE
  8
0
 62
     0
 10
92.819
 20
55.0637
 30
0.0
 11
92.819
 21
41.064
 31
0.0
  0
LINE
  8
0
 62
     0
 10
92.819
 20
41.064
 30
0.0
 11
78.8197
 21
41.064
 31
0.0
  0
LINE
  8
0
 62
     0
 10
78.8197
 20
41.064
 30
0.0
 11
78.8197
 21
55.0637
 31
0.0
  0
LINE
  8
0
 62
     0
 10
97.8683
 20
55.0637
 30
0.0
 11
111.869
 21
55.0637
 31
0.0
  0
LINE
  8
0
 62
     0
 10
111.869
 20
55.0637
 30
0.0
 11
111.869
 21
41.064
 31
0.0
  0
LINE
  8
0
 62
     0
 10
111.869
 20
41.064
 30
0.0
 11
97.8683
 21
41.064
 31
0.0
  0
LINE
  8
0
 62
     0
 10
97.8683
 20
41.064
 30
0.0
 11
97.8683
 21
55.0637
 31
0.0
  0
LINE
  8
0
 62
     0
 10
116.918
 20
55.0637
 30
0.0
 11
130.919
 21
55.0637
 31
0.0
  0
LINE
  8
0
 62
     0
 10
130.919
 20
55.0637
 30
0.0
 11
130.919
 21
41.064
 31
0.0
  0
LINE
  8
0
 62
     0
 10
130.919
 20
41.064
 30
0.0
 11
116.918
 21
41.064
 31
0.0
  0
LINE
  8
0
 62
     0
 10
116.918
 20
41.064
 30
0.0
 11
116.918
 21
55.0637
 31
0.0
  0
LINE
  8
0
 62
     0
 10
135.97
 20
55.0637
 30
0.0
 11
149.969
 21
55.0637
 31
0.0
  0
LINE
  8
0
 62
     0
 10
149.969
 20
55.0637
 30
0.0
 11
149.969
 21
41.064
 31
0.0
  0
LINE
  8
0
 62
     0
 10
149.969
 20
41.064
 30
0.0
 11
135.97
 21
41.064
 31
0.0
  0
LINE
  8
0
 62
     0
 10
135.97
 20
41.064
 30
0.0
 11
135.97
 21
55.0637
 31
0.0
  0
LINE
  8
0
 62
     0
 10
155.02
 20
55.0637
 30
0.0
 11
169.019
 21
55.0637
 31
0.0
  0
LINE
  8
0
 62
     0
 10
169.019
 20
55.0637
 30
0.0
 11
169.019
 21
41.064
 31
0.0
  0
LINE
  8
0
 62
     0
 10
169.019
 20
41.064
 30
0.0
 11
155.02
 21
41.064
 31
0.0
  0
LINE
  8
0
 62
     0
 10
155.02
 20
41.064
 30
0.0
 11
155.02
 21
55.0637
 31
0.0
  0
LINE
  8
0
 62
     0
 10
174.07
 20
55.0637
 30
0.0
 11
188.069
 21
55.0637
 31
0.0
  0
LINE
  8
0
 62
     0
 10
188.069
 20
55.0637
 30
0.0
 11
188.069
 21
41.064
 31
0.0
  0
LINE
  8
0
 62
     0
 10
188.069
 20
41.064
 30
0.0
 11
174.07
 21
41.064
 31
0.0
  0
LINE
  8
0
 62
     0
 10
174.07
 20
41.064
 30
0.0
 11
174.07
 21
55.0637
 31
0.0
  0
ENDSEC
  0
EOF
