999
dxflib 3.26.4.0
  0
SECTION
  2
HEADER
  9
$ACADVER
  1
AC1015
  9
$HANDSEED
  5
FFFF
  9
$DIMADEC
 70
0
  9
$DIMASZ
 40
0.18
  9
$DIMATFIT
 70
0
  9
$DIMAUNIT
 70
0
  9
$DIMAZIN
 70
0
  9
$DIMBLK
  1
0
  9
$DIMBLK1
  1
0
  9
$DIMBLK2
  1
0
  9
$DIMDEC
 70
4
  9
$DIMDLI
 40
0.36
  9
$DIMDSEP
 70
0
  9
$DIMEXE
 40
0.18
  9
$DIMEXO
 40
0.0625
  9
$DIMGAP
 40
0.09
  9
$DIMLFAC
 40
0.0
  9
$DIMLUNIT
 70
2
  9
$DIMSCALE
 40
0.0
  9
$DIMTAD
 70
0
  9
$DIMTIH
 70
0
  9
$DIMTSZ
 40
0.0
  9
$DIMTXT
 40
0.18
  9
$DIMZIN
 70
0
  9
$DWGCODEPAGE
  3
ANSI_1252
  9
$INSUNITS
 70
4
  9
$LTSCALE
 40
1.0
  9
$MAXACTVP
 70
64
  9
$MEASUREMENT
 70
1
  9
$MIRRTEXT
 70
0
  9
$PDMODE
 70
0
  9
$PDSIZE
 40
0.0
  0
ENDSEC
  0
SECTION
  2
TABLES
  0
TABLE
  2
VPORT
  5
8
100
AcDbSymbolTable
 70
1
  0
VPORT
  5
30
100
AcDbSymbolTableRecord
100
AcDbViewportTableRecord
  2
*Active
 70
0
 10
0.0
 20
0.0
 11
1.0
 21
1.0
 12
286.3055555555554861
 22
148.5
 13
0.0
 23
0.0
 14
10.0
 24
10.0
 15
10.0
 25
10.0
 16
0.0
 26
0.0
 36
1.0
 17
0.0
 27
0.0
 37
0.0
 40
297.0
 41
1.92798353909465
 42
50.0
 43
0.0
 44
0.0
 50
0.0
 51
0.0
 71
0
 72
100
 73
1
 74
3
 75
1
 76
1
 77
0
 78
0
281
0
 65
1
110
0.0
120
0.0
130
0.0
111
1.0
121
0.0
131
0.0
112
0.0
122
1.0
132
0.0
 79
0
146
0.0
  0
ENDTAB
  0
TABLE
  2
LTYPE
  5
5
100
AcDbSymbolTable
 70
41
  0
LTYPE
  5
16
100
AcDbSymbolTableRecord
100
AcDbLinetypeTableRecord
  2
CONTINUOUS
 70
0
  3
Solid line
 72
65
 73
0
 40
0.0
  0
LTYPE
  5
31
100
AcDbSymbolTableRecord
100
AcDbLinetypeTableRecord
  2
DIVIDE2
 70
0
  3
Divide (.5x) __..__..__..__..__..__..__..__.._
 72
65
 73
6
 40
15.8749999999999982
 49
6.3499999999999996
 74
0
 49
-3.125
 74
0
 49
0.1
 74
0
 49
-3.0750000000000002
 74
0
 49
0.1
 74
0
 49
-3.125
 74
0
  0
LTYPE
  5
32
100
AcDbSymbolTableRecord
100
AcDbLinetypeTableRecord
  2
BORDER2
 70
0
  3
Border (.5x) __.__.__.__.__.__.__.__.__.__.__.
 72
65
 73
6
 40
22.2250000000000014
 49
6.3499999999999996
 74
0
 49
-3.1749999999999998
 74
0
 49
6.3499999999999996
 74
0
 49
-3.125
 74
0
 49
0.1
 74
0
 49
-3.125
 74
0
  0
LTYPE
  5
33
100
AcDbSymbolTableRecord
100
AcDbLinetypeTableRecord
  2
DOTX2
 70
0
  3
Dot (2x) .  .  .  .  .  .  .  .  .  .  .  .  .  .
 72
65
 73
2
 40
12.6999999999999993
 49
0.1
 74
0
 49
-12.5999999999999996
 74
0
  0
LTYPE
  5
34
100
AcDbSymbolTableRecord
100
AcDbLinetypeTableRecord
  2
PHANTOMX2
 70
0
  3
Phantom (2x) ____________    ____    ____   _
 72
65
 73
6
 40
127.0000000000000142
 49
63.5
 74
0
 49
-12.6999999999999993
 74
0
 49
12.6999999999999993
 74
0
 49
-12.6999999999999993
 74
0
 49
12.6999999999999993
 74
0
 49
-12.6999999999999993
 74
0
  0
LTYPE
  5
35
100
AcDbSymbolTableRecord
100
AcDbLinetypeTableRecord
  2
DASHED
 70
0
  3
Dashed __ __ __ __ __ __ __ __ __ __ __ __ __ _
 72
65
 73
2
 40
19.0499999999999972
 49
12.6999999999999993
 74
0
 49
-6.3499999999999996
 74
0
  0
LTYPE
  5
36
100
AcDbSymbolTableRecord
100
AcDbLinetypeTableRecord
  2
ACAD_ISO12W100
 70
0
  3
ISO dash double-dot __ . . __ . . __ . . __ . . 
 72
65
 73
6
 40
21.0
 49
12.0
 74
0
 49
-2.9500000000000002
 74
0
 49
0.1
 74
0
 49
-2.9000000000000004
 74
0
 49
0.1
 74
0
 49
-2.9500000000000002
 74
0
  0
LTYPE
  5
37
100
AcDbSymbolTableRecord
100
AcDbLinetypeTableRecord
  2
DASHDOTX2
 70
0
  3
Dash dot (2x) ____  .  ____  .  ____  .  ___
 72
65
 73
4
 40
50.7999999999999972
 49
25.3999999999999986
 74
0
 49
-12.6499999999999986
 74
0
 49
0.1
 74
0
 49
-12.6499999999999986
 74
0
  0
LTYPE
  5
38
100
AcDbSymbolTableRecord
100
AcDbLinetypeTableRecord
  2
ACAD_ISO13W100
 70
0
  3
ISO double-dash double-dot __ __ . . __ __ . . _
 72
65
 73
8
 40
36.0000000000000071
 49
12.0
 74
0
 49
-3.0
 74
0
 49
12.0
 74
0
 49
-2.9500000000000002
 74
0
 49
0.1
 74
0
 49
-2.9000000000000004
 74
0
 49
0.1
 74
0
 49
-2.9500000000000002
 74
0
  0
LTYPE
  5
39
100
AcDbSymbolTableRecord
100
AcDbLinetypeTableRecord
  2
DASHEDX2
 70
0
  3
Dashed (2x) ____  ____  ____  ____  ____  ___
 72
65
 73
2
 40
38.0999999999999943
 49
25.3999999999999986
 74
0
 49
-12.6999999999999993
 74
0
  0
LTYPE
  5
15
100
AcDbSymbolTableRecord
100
AcDbLinetypeTableRecord
  2
BYLAYER
 70
0
  3

 72
65
 73
0
 40
0.0
  0
LTYPE
  5
3A
100
AcDbSymbolTableRecord
100
AcDbLinetypeTableRecord
  2
ACAD_ISO15W100
 70
0
  3
ISO double-dash triple-dot __ __ . . . __ __ . .
 72
65
 73
10
 40
39.0000000000000071
 49
12.0
 74
0
 49
-3.0
 74
0
 49
12.0
 74
0
 49
-2.9500000000000002
 74
0
 49
0.1
 74
0
 49
-2.9000000000000004
 74
0
 49
0.1
 74
0
 49
-2.9000000000000004
 74
0
 49
0.1
 74
0
 49
-2.9500000000000002
 74
0
  0
LTYPE
  5
3B
100
AcDbSymbolTableRecord
100
AcDbLinetypeTableRecord
  2
DIVIDEX2
 70
0
  3
Divide (2x) ________  .  .  ________  .  .  _
 72
65
 73
6
 40
63.5
 49
25.3999999999999986
 74
0
 49
-12.6499999999999986
 74
0
 49
0.1
 74
0
 49
-12.5999999999999979
 74
0
 49
0.1
 74
0
 49
-12.6499999999999986
 74
0
  0
LTYPE
  5
3C
100
AcDbSymbolTableRecord
100
AcDbLinetypeTableRecord
  2
ACAD_ISO11W100
 70
0
  3
ISO double-dash dot __ __ . __ __ . __ __ . __ _
 72
65
 73
6
 40
33.0
 49
12.0
 74
0
 49
-3.0
 74
0
 49
12.0
 74
0
 49
-2.9500000000000002
 74
0
 49
0.1
 74
0
 49
-2.9500000000000002
 74
0
  0
LTYPE
  5
3D
100
AcDbSymbolTableRecord
100
AcDbLinetypeTableRecord
  2
ACAD_ISO02W100
 70
0
  3
ISO dash __ __ __ __ __ __ __ __ __ __ __ __ __
 72
65
 73
2
 40
15.0
 49
12.0
 74
0
 49
-3.0
 74
0
  0
LTYPE
  5
3E
100
AcDbSymbolTableRecord
100
AcDbLinetypeTableRecord
  2
ACAD_ISO09W100
 70
0
  3
ISO long-dash double-short-dash ____ __ __ ____
 72
65
 73
6
 40
45.0
 49
24.0
 74
0
 49
-3.0
 74
0
 49
6.0
 74
0
 49
-3.0
 74
0
 49
6.0
 74
0
 49
-3.0
 74
0
  0
LTYPE
  5
3F
100
AcDbSymbolTableRecord
100
AcDbLinetypeTableRecord
  2
ACAD_ISO05W100
 70
0
  3
ISO long-dash double-dot ____ .. ____ .. ____ . 
 72
65
 73
6
 40
33.0000000000000071
 49
24.0
 74
0
 49
-2.9500000000000002
 74
0
 49
0.1
 74
0
 49
-2.9000000000000004
 74
0
 49
0.1
 74
0
 49
-2.9500000000000002
 74
0
  0
LTYPE
  5
40
100
AcDbSymbolTableRecord
100
AcDbLinetypeTableRecord
  2
ACAD_ISO07W100
 70
0
  3
ISO dot . . . . . . . . . . . . . . . . . . . . 
 72
65
 73
2
 40
3.0
 49
0.1
 74
0
 49
-2.8999999999999999
 74
0
  0
LTYPE
  5
41
100
AcDbSymbolTableRecord
100
AcDbLinetypeTableRecord
  2
PHANTOM2
 70
0
  3
Phantom (.5x) ___ _ _ ___ _ _ ___ _ _ ___ _ _
 72
65
 73
6
 40
31.7500000000000036
 49
15.875
 74
0
 49
-3.1749999999999998
 74
0
 49
3.1749999999999998
 74
0
 49
-3.1749999999999998
 74
0
 49
3.1749999999999998
 74
0
 49
-3.1749999999999998
 74
0
  0
LTYPE
  5
42
100
AcDbSymbolTableRecord
100
AcDbLinetypeTableRecord
  2
CENTERX2
 70
0
  3
Center (2x) ________  __  ________  __  _____
 72
65
 73
4
 40
101.6000000000000085
 49
63.5
 74
0
 49
-12.6999999999999993
 74
0
 49
12.6999999999999993
 74
0
 49
-12.6999999999999993
 74
0
  0
LTYPE
  5
43
100
AcDbSymbolTableRecord
100
AcDbLinetypeTableRecord
  2
CENTER2
 70
0
  3
Center (.5x) ___ _ ___ _ ___ _ ___ _ ___ _ ___
 72
65
 73
4
 40
28.5750000000000028
 49
19.0500000000000007
 74
0
 49
-3.1749999999999998
 74
0
 49
3.1749999999999998
 74
0
 49
-3.1749999999999998
 74
0
  0
LTYPE
  5
44
100
AcDbSymbolTableRecord
100
AcDbLinetypeTableRecord
  2
HIDDEN
 70
0
  3
Hidden __ __ __ __ __ __ __ __ __ __ __ __ __ __
 72
65
 73
2
 40
9.5249999999999986
 49
6.3499999999999996
 74
0
 49
-3.1749999999999998
 74
0
  0
LTYPE
  5
45
100
AcDbSymbolTableRecord
100
AcDbLinetypeTableRecord
  2
ACAD_ISO10W100
 70
0
  3
ISO dash dot __ . __ . __ . __ . __ . __ . __ . 
 72
65
 73
4
 40
18.0
 49
12.0
 74
0
 49
-2.9500000000000002
 74
0
 49
0.1
 74
0
 49
-2.9500000000000002
 74
0
  0
LTYPE
  5
46
100
AcDbSymbolTableRecord
100
AcDbLinetypeTableRecord
  2
BORDERX2
 70
0
  3
Border (2x) ____  ____  .  ____  ____  .  ___
 72
65
 73
6
 40
88.8999999999999773
 49
25.3999999999999986
 74
0
 49
-12.6999999999999993
 74
0
 49
25.3999999999999986
 74
0
 49
-12.6499999999999986
 74
0
 49
0.1
 74
0
 49
-12.6499999999999986
 74
0
  0
LTYPE
  5
47
100
AcDbSymbolTableRecord
100
AcDbLinetypeTableRecord
  2
CENTER
 70
0
  3
Center ____ _ ____ _ ____ _ ____ _ ____ _ ____
 72
65
 73
4
 40
50.8000000000000043
 49
31.75
 74
0
 49
-6.3499999999999996
 74
0
 49
6.3499999999999996
 74
0
 49
-6.3499999999999996
 74
0
  0
LTYPE
  5
48
100
AcDbSymbolTableRecord
100
AcDbLinetypeTableRecord
  2
BORDER
 70
0
  3
Border __ __ . __ __ . __ __ . __ __ . __ __ .
 72
65
 73
6
 40
44.4499999999999957
 49
12.6999999999999993
 74
0
 49
-6.3499999999999996
 74
0
 49
12.6999999999999993
 74
0
 49
-6.2999999999999998
 74
0
 49
0.1
 74
0
 49
-6.2999999999999998
 74
0
  0
LTYPE
  5
49
100
AcDbSymbolTableRecord
100
AcDbLinetypeTableRecord
  2
DASHDOT
 70
0
  3
Dash dot __ . __ . __ . __ . __ . __ . __ . __
 72
65
 73
4
 40
25.4000000000000021
 49
12.6999999999999993
 74
0
 49
-6.2999999999999998
 74
0
 49
0.1
 74
0
 49
-6.2999999999999998
 74
0
  0
LTYPE
  5
4A
100
AcDbSymbolTableRecord
100
AcDbLinetypeTableRecord
  2
ACAD_ISO14W100
 70
0
  3
ISO dash triple-dot __ . . . __ . . . __ . . . _
 72
65
 73
8
 40
24.0000000000000036
 49
12.0
 74
0
 49
-2.9500000000000002
 74
0
 49
0.1
 74
0
 49
-2.9000000000000004
 74
0
 49
0.1
 74
0
 49
-2.9000000000000004
 74
0
 49
0.1
 74
0
 49
-2.9500000000000002
 74
0
  0
LTYPE
  5
4B
100
AcDbSymbolTableRecord
100
AcDbLinetypeTableRecord
  2
DIVIDE
 70
0
  3
Divide ____ . . ____ . . ____ . . ____ . . ____
 72
65
 73
6
 40
31.7500000000000036
 49
12.6999999999999993
 74
0
 49
-6.2999999999999998
 74
0
 49
0.1
 74
0
 49
-6.25
 74
0
 49
0.1
 74
0
 49
-6.2999999999999998
 74
0
  0
LTYPE
  5
4C
100
AcDbSymbolTableRecord
100
AcDbLinetypeTableRecord
  2
ACAD_ISO03W100
 70
0
  3
ISO dash space __    __    __    __    __    __
 72
65
 73
2
 40
30.0
 49
12.0
 74
0
 49
-18.0
 74
0
  0
LTYPE
  5
4D
100
AcDbSymbolTableRecord
100
AcDbLinetypeTableRecord
  2
DOT
 70
0
  3
Dot . . . . . . . . . . . . . . . . . . . . . . . .
 72
65
 73
2
 40
6.3499999999999996
 49
0.1
 74
0
 49
-6.25
 74
0
  0
LTYPE
  5
4E
100
AcDbSymbolTableRecord
100
AcDbLinetypeTableRecord
  2
DASHDOT2
 70
0
  3
Dash dot (.5x) _._._._._._._._._._._._._._._.
 72
65
 73
4
 40
12.6999999999999993
 49
6.3499999999999996
 74
0
 49
-3.125
 74
0
 49
0.1
 74
0
 49
-3.125
 74
0
  0
LTYPE
  5
4F
100
AcDbSymbolTableRecord
100
AcDbLinetypeTableRecord
  2
HIDDEN2
 70
0
  3
Hidden (.5x) _ _ _ _ _ _ _ _ _ _ _ _ _ _ _ _ _ 
 72
65
 73
2
 40
4.7624999999999993
 49
3.1749999999999998
 74
0
 49
-1.5874999999999999
 74
0
  0
LTYPE
  5
50
100
AcDbSymbolTableRecord
100
AcDbLinetypeTableRecord
  2
DASHED2
 70
0
  3
Dashed (.5x) _ _ _ _ _ _ _ _ _ _ _ _ _ _ _ _ _ 
 72
65
 73
2
 40
9.5249999999999986
 49
6.3499999999999996
 74
0
 49
-3.1749999999999998
 74
0
  0
LTYPE
  5
51
100
AcDbSymbolTableRecord
100
AcDbLinetypeTableRecord
  2
PHANTOM
 70
0
  3
Phantom ______  __  __  ______  __  __  ______ 
 72
65
 73
6
 40
63.5000000000000071
 49
31.75
 74
0
 49
-6.3499999999999996
 74
0
 49
6.3499999999999996
 74
0
 49
-6.3499999999999996
 74
0
 49
6.3499999999999996
 74
0
 49
-6.3499999999999996
 74
0
  0
LTYPE
  5
52
100
AcDbSymbolTableRecord
100
AcDbLinetypeTableRecord
  2
ACAD_ISO06W100
 70
0
  3
ISO long-dash triple-dot ____ ... ____ ... ____
 72
65
 73
8
 40
36.0000000000000071
 49
24.0
 74
0
 49
-2.9500000000000002
 74
0
 49
0.1
 74
0
 49
-2.9000000000000004
 74
0
 49
0.1
 74
0
 49
-2.9000000000000004
 74
0
 49
0.1
 74
0
 49
-2.9500000000000002
 74
0
  0
LTYPE
  5
53
100
AcDbSymbolTableRecord
100
AcDbLinetypeTableRecord
  2
HIDDENX2
 70
0
  3
Hidden (2x) ____ ____ ____ ____ ____ ____ ____ 
 72
65
 73
2
 40
19.0499999999999972
 49
12.6999999999999993
 74
0
 49
-6.3499999999999996
 74
0
  0
LTYPE
  5
14
100
AcDbSymbolTableRecord
100
AcDbLinetypeTableRecord
  2
BYBLOCK
 70
0
  3

 72
65
 73
0
 40
0.0
  0
LTYPE
  5
54
100
AcDbSymbolTableRecord
100
AcDbLinetypeTableRecord
  2
ACAD_ISO04W100
 70
0
  3
ISO long-dash dot ____ . ____ . ____ . ____ . _
 72
65
 73
4
 40
30.0
 49
24.0
 74
0
 49
-2.9500000000000002
 74
0
 49
0.1
 74
0
 49
-2.9500000000000002
 74
0
  0
LTYPE
  5
55
100
AcDbSymbolTableRecord
100
AcDbLinetypeTableRecord
  2
ACAD_ISO08W100
 70
0
  3
ISO long-dash short-dash ____ __ ____ __ ____ _
 72
65
 73
4
 40
36.0
 49
24.0
 74
0
 49
-3.0
 74
0
 49
6.0
 74
0
 49
-3.0
 74
0
  0
LTYPE
  5
56
100
AcDbSymbolTableRecord
100
AcDbLinetypeTableRecord
  2
DOT2
 70
0
  3
Dot (.5x) ........................................
 72
65
 73
2
 40
3.1749999999999998
 49
0.1
 74
0
 49
-3.0749999999999997
 74
0
  0
ENDTAB
  0
TABLE
  2
LAYER
  5
2
100
AcDbSymbolTable
 70
6
  0
LAYER
  5
57
100
AcDbSymbolTableRecord
100
AcDbLayerTableRecord
  2
layer 1
 70
0
 62
1
420
16711680
  6
CONTINUOUS
370
25
390
F
  0
LAYER
  5
58
100
AcDbSymbolTableRecord
100
AcDbLayerTableRecord
  2
L_plate
 70
0
 62
7
420
0
  6
CONTINUOUS
370
25
390
F
  0
LAYER
  5
59
100
AcDbSymbolTableRecord
100
AcDbLayerTableRecord
  2
R_plate
 70
0
 62
7
420
0
  6
CONTINUOUS
370
25
390
F
  0
LAYER
  5
5A
100
AcDbSymbolTableRecord
100
AcDbLayerTableRecord
  2
L_bottom
 70
0
 62
7
420
0
  6
CONTINUOUS
370
25
390
F
  0
LAYER
  5
5B
100
AcDbSymbolTableRecord
100
AcDbLayerTableRecord
  2
R_bottom
 70
0
 62
7
420
0
  6
CONTINUOUS
370
25
390
F
  0
LAYER
  5
10
100
AcDbSymbolTableRecord
100
AcDbLayerTableRecord
  2
0
 70
0
 62
7
420
16777215
  6
CONTINUOUS
370
25
390
F
  0
ENDTAB
  0
TABLE
  2
STYLE
  5
3
100
AcDbSymbolTable
 70
1
  0
STYLE
  5
5C
100
AcDbSymbolTableRecord
100
AcDbTextStyleTableRecord
  2
Standard
 70
0
 40
0.0
 41
1.0
 50
0.0
 71
0
 42
2.5
  3

  4

1001
ACAD
1000
txt
1071
0
  0
ENDTAB
  0
TABLE
  2
VIEW
  5
6
100
AcDbSymbolTable
 70
0
  0
ENDTAB
  0
TABLE
  2
UCS
  5
7
100
AcDbSymbolTable
 70
0
  0
ENDTAB
  0
TABLE
  2
APPID
  5
9
100
AcDbSymbolTable
 70
1
  0
APPID
  5
12
100
AcDbSymbolTableRecord
100
AcDbRegAppTableRecord
  2
ACAD
 70
0
  0
APPID
  5
5D
100
AcDbSymbolTableRecord
100
AcDbRegAppTableRecord
  2
QCAD
 70
0
  0
ENDTAB
  0
TABLE
  2
DIMSTYLE
  5
A
100
AcDbSymbolTable
 70
1
100
AcDbDimStyleTable
 71
0
  0
DIMSTYLE
105
27
100
AcDbSymbolTableRecord
100
AcDbDimStyleTableRecord
  2
Standard
 41
0.18
 42
0.0625
 43
3.75
 44
0.18
 70
0
 73
0
 74
0
 77
0
 78
8
140
0.18
141
2.5
143
0.03937007874016
147
0.09
171
3
172
1
271
2
272
2
274
3
278
44
283
0
284
8
340
5C
  0
ENDTAB
  0
TABLE
  2
BLOCK_RECORD
  5
1
100
AcDbSymbolTable
 70
1
  0
BLOCK_RECORD
  5
1F
100
AcDbSymbolTableRecord
100
AcDbBlockTableRecord
  2
*Model_Space
340
22
  0
BLOCK_RECORD
  5
1B
100
AcDbSymbolTableRecord
100
AcDbBlockTableRecord
  2
*Paper_Space
340
1E
  0
BLOCK_RECORD
  5
23
100
AcDbSymbolTableRecord
100
AcDbBlockTableRecord
  2
*Paper_Space0
340
26
  0
ENDTAB
  0
ENDSEC
  0
SECTION
  2
BLOCKS
  0
BLOCK
  5
20
100
AcDbEntity
  8
0
100
AcDbBlockBegin
  2
*Model_Space
 70
0
 10
0.0
 20
0.0
 30
0.0
  3
*Model_Space
  1

  0
ENDBLK
  5
21
100
AcDbEntity
  8
0
100
AcDbBlockEnd
  0
BLOCK
  5
1C
100
AcDbEntity
 67
1
  8
0
100
AcDbBlockBegin
  2
*Paper_Space
 70
0
 10
0.0
 20
0.0
 30
0.0
  3
*Paper_Space
  1

  0
ENDBLK
  5
1D
100
AcDbEntity
 67
1
  8
0
100
AcDbBlockEnd
  0
BLOCK
  5
24
100
AcDbEntity
  8
0
100
AcDbBlockBegin
  2
*Paper_Space0
 70
0
 10
0.0
 20
0.0
 30
0.0
  3
*Paper_Space0
  1

  0
ENDBLK
  5
25
100
AcDbEntity
  8
0
100
AcDbBlockEnd
  0
ENDSEC
  0
SECTION
  2
ENTITIES
  0
LINE
  5
5E
100
AcDbEntity
  8
L_plate
 62
256
370
-1
 48
1.0
  6
BYLAYER
100
AcDbLine
 10
68.5702127956192555
 20
-4.5252842979650652
 30
0.0
 11
81.5207438708119554
 21
-3.3922596422455058
 31
0.0
  0
LINE
  5
5F
100
AcDbEntity
  8
R_plate
 62
256
370
-1
 48
1.0
  6
BYLAYER
100
AcDbLine
 10
268.9883644290974871
 20
-4.5252842979650767
 30
0.0
 11
256.0378333539048299
 21
-3.3922596422454232
 31
0.0
  0
LINE
  5
60
100
AcDbEntity
  8
L_plate
 62
256
370
-1
 48
1.0
  6
BYLAYER
100
AcDbLine
 10
69.7903931940864624
 20
-18.4720100712494926
 30
0.0
 11
82.7409242692791764
 21
-17.3389854155299794
 31
0.0
  0
LINE
  5
61
100
AcDbEntity
  8
R_plate
 62
256
370
-1
 48
1.0
  6
BYLAYER
100
AcDbLine
 10
267.7681840306303229
 20
-18.4720100712494144
 30
0.0
 11
254.8176529554375804
 21
-17.3389854155299332
 31
0.0
  0
LINE
  5
62
100
AcDbEntity
  8
L_plate
 62
256
370
-1
 48
1.0
  6
BYLAYER
100
AcDbLine
 10
68.115693317947219
 20
-5.0669595183847775
 30
0.0
 11
69.2487179736667855
 21
-18.0174905935775058
 31
0.0
  0
LINE
  5
63
100
AcDbEntity
  8
R_plate
 62
256
370
-1
 48
1.0
  6
BYLAYER
100
AcDbLine
 10
269.4428839067695662
 20
-5.0669595183847251
 30
0.0
 11
268.3098592510499429
 21
-18.0174905935774703
 31
0.0
  0
LINE
  5
64
100
AcDbEntity
  8
L_plate
 62
256
370
-1
 48
1.0
  6
BYLAYER
100
AcDbLine
 10
82.0624190912316465
 20
-3.8467791199175636
 30
0.0
 11
83.1954437469512129
 21
-16.7973101951102279
 31
0.0
  0
LINE
  5
65
100
AcDbEntity
  8
R_plate
 62
256
370
-1
 48
1.0
  6
BYLAYER
100
AcDbLine
 10
255.4961581334850678
 20
-3.8467791199176249
 30
0.0
 11
254.3631334777655582
 21
-16.7973101951101427
 31
0.0
  0
ARC
  5
66
100
AcDbEntity
  8
L_plate
 62
256
370
-1
 48
1.0
  6
BYLAYER
100
AcDbCircle
 10
68.613790666993097
 20
-5.0233816470109502
 30
0.0
 40
0.5
100
AcDbArc
 50
95.0
 51
184.9999999999999716
  0
ARC
  5
67
100
AcDbEntity
  8
R_plate
 62
256
370
-1
 48
1.0
  6
BYLAYER
100
AcDbCircle
 10
268.9447865577236598
 20
-5.0233816470109209
 30
0.0
 40
0.5
100
AcDbArc
 50
355.0
 51
85.0
  0
ARC
  5
68
100
AcDbEntity
  8
L_plate
 62
256
370
-1
 48
1.0
  6
BYLAYER
100
AcDbCircle
 10
81.5643217421857827
 20
-3.8903569912913696
 30
0.0
 40
0.5
100
AcDbArc
 50
5.0
 51
95.0
  0
ARC
  5
69
100
AcDbEntity
  8
R_plate
 62
256
370
-1
 48
1.0
  6
BYLAYER
100
AcDbCircle
 10
255.9942554825309742
 20
-3.8903569912913172
 30
0.0
 40
0.5
100
AcDbArc
 50
85.0
 51
175.0
  0
ARC
  5
6A
100
AcDbEntity
  8
L_plate
 62
256
370
-1
 48
1.0
  6
BYLAYER
100
AcDbCircle
 10
69.7468153227126351
 20
-17.9739127222036323
 30
0.0
 40
0.5
100
AcDbArc
 50
184.9999999999999716
 51
275.0
  0
ARC
  5
6B
100
AcDbEntity
  8
R_plate
 62
256
370
-1
 48
1.0
  6
BYLAYER
100
AcDbCircle
 10
267.8117619020041502
 20
-17.9739127222035791
 30
0.0
 40
0.5
100
AcDbArc
 50
265.0
 51
355.0
  0
ARC
  5
6C
100
AcDbEntity
  8
L_plate
 62
256
370
-1
 48
1.0
  6
BYLAYER
100
AcDbCircle
 10
82.6973463979053491
 20
-16.8408880664840872
 30
0.0
 40
0.5
100
AcDbArc
 50
275.0
 51
5.0
  0
ARC
  5
6D
100
AcDbEntity
  8
R_plate
 62
256
370
-1
 48
1.0
  6
BYLAYER
100
AcDbCircle
 10
254.8612308268114077
 20
-16.8408880664840908
 30
0.0
 40
0.5
100
AcDbArc
 50
175.0
 51
265.0
  0
LINE
  5
6E
100
AcDbEntity
  8
L_plate
 62
256
370
-1
 48
1.0
  6
BYLAYER
100
AcDbLine
 10
70.2261719078247637
 20
-23.4529835617082298
 30
0.0
 11
83.1767029830174636
 21
-22.3199589059886989
 31
0.0
  0
LINE
  5
6F
100
AcDbEntity
  8
R_plate
 62
256
370
-1
 48
1.0
  6
BYLAYER
100
AcDbLine
 10
267.3324053168919363
 20
-23.4529835617082014
 30
0.0
 11
254.3818742416992507
 21
-22.319958905988635
 31
0.0
  0
LINE
  5
70
100
AcDbEntity
  8
L_plate
 62
256
370
-1
 48
1.0
  6
BYLAYER
100
AcDbLine
 10
71.4463523062919705
 20
-37.3997093349926573
 30
0.0
 11
84.3968833814846846
 21
-36.2666846792732755
 31
0.0
  0
LINE
  5
71
100
AcDbEntity
  8
R_plate
 62
256
370
-1
 48
1.0
  6
BYLAYER
100
AcDbLine
 10
266.1122249184247721
 20
-37.3997093349925862
 30
0.0
 11
253.1616938432320865
 21
-36.26668467927324
 31
0.0
  0
LINE
  5
72
100
AcDbEntity
  8
L_plate
 62
256
370
-1
 48
1.0
  6
BYLAYER
100
AcDbLine
 10
69.7716524301527272
 20
-23.9946587821280062
 30
0.0
 11
70.9046770858722653
 21
-36.9451898573205213
 31
0.0
  0
LINE
  5
73
100
AcDbEntity
  8
R_plate
 62
256
370
-1
 48
1.0
  6
BYLAYER
100
AcDbLine
 10
267.7869247945640154
 20
-23.9946587821279351
 30
0.0
 11
266.6539001388445058
 21
-36.9451898573204502
 31
0.0
  0
LINE
  5
74
100
AcDbEntity
  8
L_plate
 62
256
370
-1
 48
1.0
  6
BYLAYER
100
AcDbLine
 10
83.7183782034371546
 20
-22.7744783836607319
 30
0.0
 11
84.8514028591567211
 21
-35.7250094588535845
 31
0.0
  0
LINE
  5
75
100
AcDbEntity
  8
R_plate
 62
256
370
-1
 48
1.0
  6
BYLAYER
100
AcDbLine
 10
253.8401990212795738
 20
-22.7744783836607141
 30
0.0
 11
252.7071743655600073
 21
-35.7250094588535632
 31
0.0
  0
ARC
  5
76
100
AcDbEntity
  8
L_plate
 62
256
370
-1
 48
1.0
  6
BYLAYER
100
AcDbCircle
 10
70.269749779198591
 20
-23.9510809107541007
 30
0.0
 40
0.5
100
AcDbArc
 50
95.0
 51
184.9999999999999716
  0
ARC
  5
77
100
AcDbEntity
  8
R_plate
 62
256
370
-1
 48
1.0
  6
BYLAYER
100
AcDbCircle
 10
267.288827445518109
 20
-23.9510809107540794
 30
0.0
 40
0.5
100
AcDbArc
 50
355.0
 51
85.0
  0
ARC
  5
78
100
AcDbEntity
  8
L_plate
 62
256
370
-1
 48
1.0
  6
BYLAYER
100
AcDbCircle
 10
83.2202808543912766
 20
-22.8180562550344526
 30
0.0
 40
0.5
100
AcDbArc
 50
5.0
 51
95.0
  0
ARC
  5
79
100
AcDbEntity
  8
R_plate
 62
256
370
-1
 48
1.0
  6
BYLAYER
100
AcDbCircle
 10
254.3382963703254802
 20
-22.8180562550343637
 30
0.0
 40
0.5
100
AcDbArc
 50
85.0
 51
175.0
  0
ARC
  5
7A
100
AcDbEntity
  8
L_plate
 62
256
370
-1
 48
1.0
  6
BYLAYER
100
AcDbCircle
 10
71.4027744349181575
 20
-36.9016119859468503
 30
0.0
 40
0.5
100
AcDbArc
 50
184.9999999999999716
 51
275.0
  0
ARC
  5
7B
100
AcDbEntity
  8
R_plate
 62
256
370
-1
 48
1.0
  6
BYLAYER
100
AcDbCircle
 10
266.1558027897985994
 20
-36.9016119859468077
 30
0.0
 40
0.5
100
AcDbArc
 50
265.0
 51
355.0
  0
ARC
  5
7C
100
AcDbEntity
  8
L_plate
 62
256
370
-1
 48
1.0
  6
BYLAYER
100
AcDbCircle
 10
84.3533055101108431
 20
-35.7685873302272128
 30
0.0
 40
0.5
100
AcDbArc
 50
275.0
 51
5.0
  0
ARC
  5
7D
100
AcDbEntity
  8
R_plate
 62
256
370
-1
 48
1.0
  6
BYLAYER
100
AcDbCircle
 10
253.2052717146059138
 20
-35.768587330227227
 30
0.0
 40
0.5
100
AcDbArc
 50
175.0
 51
265.0
  0
LINE
  5
7E
100
AcDbEntity
  8
L_plate
 62
256
370
-1
 48
1.0
  6
BYLAYER
100
AcDbLine
 10
71.8821310200302719
 20
-42.3806828254514514
 30
0.0
 11
84.8326620952229575
 21
-41.247658169731892
 31
0.0
  0
LINE
  5
7F
100
AcDbEntity
  8
R_plate
 62
256
370
-1
 48
1.0
  6
BYLAYER
100
AcDbLine
 10
265.6764462046864992
 20
-42.3806828254514301
 30
0.0
 11
252.7259151294938135
 21
-41.2476581697318707
 31
0.0
  0
LINE
  5
80
100
AcDbEntity
  8
L_plate
 62
256
370
-1
 48
1.0
  6
BYLAYER
100
AcDbLine
 10
73.1023114184974787
 20
-56.327408598735822
 30
0.0
 11
86.0528424936901786
 21
-55.1943839430162839
 31
0.0
  0
LINE
  5
81
100
AcDbEntity
  8
R_plate
 62
256
370
-1
 48
1.0
  6
BYLAYER
100
AcDbLine
 10
264.4562658062192213
 20
-56.3274085987358077
 30
0.0
 11
251.5057347310265357
 21
-55.1943839430162271
 31
0.0
  0
LINE
  5
82
100
AcDbEntity
  8
L_plate
 62
256
370
-1
 48
1.0
  6
BYLAYER
100
AcDbLine
 10
71.4276115423582212
 20
-42.9223580458710856
 30
0.0
 11
72.5606361980777734
 21
-55.8728891210637642
 31
0.0
  0
LINE
  5
83
100
AcDbEntity
  8
R_plate
 62
256
370
-1
 48
1.0
  6
BYLAYER
100
AcDbLine
 10
266.1309656823585783
 20
-42.9223580458710714
 30
0.0
 11
264.997941026638955
 21
-55.8728891210637144
 31
0.0
  0
LINE
  5
84
100
AcDbEntity
  8
L_plate
 62
256
370
-1
 48
1.0
  6
BYLAYER
100
AcDbLine
 10
85.3743373156426628
 20
-41.7021776474038575
 30
0.0
 11
86.5073619713622151
 21
-54.6527087225965502
 31
0.0
  0
LINE
  5
85
100
AcDbEntity
  8
R_plate
 62
256
370
-1
 48
1.0
  6
BYLAYER
100
AcDbLine
 10
252.1842399090740798
 20
-41.7021776474038219
 30
0.0
 11
251.0512152533545134
 21
-54.6527087225965218
 31
0.0
  0
ARC
  5
86
100
AcDbEntity
  8
L_plate
 62
256
370
-1
 48
1.0
  6
BYLAYER
100
AcDbCircle
 10
71.9257088914040992
 20
-42.8787801744973081
 30
0.0
 40
0.5
100
AcDbArc
 50
95.0
 51
184.9999999999999716
  0
ARC
  5
87
100
AcDbEntity
  8
R_plate
 62
256
370
-1
 48
1.0
  6
BYLAYER
100
AcDbCircle
 10
265.6328683333126719
 20
-42.8787801744972796
 30
0.0
 40
0.5
100
AcDbArc
 50
355.0
 51
85.0
  0
ARC
  5
88
100
AcDbEntity
  8
L_plate
 62
256
370
-1
 48
1.0
  6
BYLAYER
100
AcDbCircle
 10
84.8762399665967848
 20
-41.7457555187778198
 30
0.0
 40
0.5
100
AcDbArc
 50
5.0
 51
95.0
  0
ARC
  5
89
100
AcDbEntity
  8
R_plate
 62
256
370
-1
 48
1.0
  6
BYLAYER
100
AcDbCircle
 10
252.6823372581199862
 20
-41.7457555187777487
 30
0.0
 40
0.5
100
AcDbArc
 50
85.0
 51
175.0
  0
ARC
  5
8A
100
AcDbEntity
  8
L_plate
 62
256
370
-1
 48
1.0
  6
BYLAYER
100
AcDbCircle
 10
73.0587335471236372
 20
-55.8293112496899866
 30
0.0
 40
0.5
100
AcDbArc
 50
184.9999999999999716
 51
275.0
  0
ARC
  5
8B
100
AcDbEntity
  8
R_plate
 62
256
370
-1
 48
1.0
  6
BYLAYER
100
AcDbCircle
 10
264.4998436775931623
 20
-55.829311249689944
 30
0.0
 40
0.5
100
AcDbArc
 50
265.0
 51
355.0
  0
ARC
  5
8C
100
AcDbEntity
  8
L_plate
 62
256
370
-1
 48
1.0
  6
BYLAYER
100
AcDbCircle
 10
86.0092646223163371
 20
-54.6962865939704415
 30
0.0
 40
0.5
100
AcDbArc
 50
275.0
 51
5.0
  0
ARC
  5
8D
100
AcDbEntity
  8
R_plate
 62
256
370
-1
 48
1.0
  6
BYLAYER
100
AcDbCircle
 10
251.5493126024004198
 20
-54.6962865939704344
 30
0.0
 40
0.5
100
AcDbArc
 50
175.0
 51
265.0
  0
LINE
  5
8E
100
AcDbEntity
  8
L_plate
 62
256
370
-1
 48
1.0
  6
BYLAYER
100
AcDbLine
 10
113.7277772490810719
 20
-11.6504199195256994
 30
0.0
 11
126.727777169318216
 21
-11.6504198705716533
 31
0.0
  0
LINE
  5
8F
100
AcDbEntity
  8
R_plate
 62
256
370
-1
 48
1.0
  6
BYLAYER
100
AcDbLine
 10
223.8307999756356992
 20
-11.6504199195256426
 30
0.0
 11
210.8308000553984982
 21
-11.6504198705716107
 31
0.0
  0
LINE
  5
90
100
AcDbEntity
  8
L_plate
 62
256
370
-1
 48
1.0
  6
BYLAYER
100
AcDbLine
 10
113.727777249882493
 20
-25.6504199462729403
 30
0.0
 11
126.7277771701197082
 21
-25.6504198973195301
 31
0.0
  0
LINE
  5
91
100
AcDbEntity
  8
R_plate
 62
256
370
-1
 48
1.0
  6
BYLAYER
100
AcDbLine
 10
223.8307999748342638
 20
-25.6504199462728835
 30
0.0
 11
210.8308000545969776
 21
-25.6504198973194022
 31
0.0
  0
LINE
  5
92
100
AcDbEntity
  8
L_plate
 62
256
370
-1
 48
1.0
  6
BYLAYER
100
AcDbLine
 10
113.227777171749608
 20
-12.1504199487045241
 30
0.0
 11
113.2277772207036293
 21
-25.1504198689416185
 31
0.0
  0
LINE
  5
93
100
AcDbEntity
  8
R_plate
 62
256
370
-1
 48
1.0
  6
BYLAYER
100
AcDbLine
 10
224.3308000529671347
 20
-12.1504199487043962
 30
0.0
 11
224.3308000040131276
 21
-25.1504198689415546
 31
0.0
  0
LINE
  5
94
100
AcDbEntity
  8
L_plate
 62
256
370
-1
 48
1.0
  6
BYLAYER
100
AcDbLine
 10
127.2277771984971082
 20
-12.1504199479031456
 30
0.0
 11
127.2277772474511153
 21
-25.1504198681398421
 31
0.0
  0
LINE
  5
95
100
AcDbEntity
  8
R_plate
 62
256
370
-1
 48
1.0
  6
BYLAYER
100
AcDbLine
 10
210.3308000262196344
 20
-12.150419947903071
 30
0.0
 11
210.3307999772656274
 21
-25.1504198681397284
 31
0.0
  0
ARC
  5
96
100
AcDbEntity
  8
L_plate
 62
256
370
-1
 48
1.0
  6
BYLAYER
100
AcDbCircle
 10
113.7277772162891836
 20
-12.15041987316134
 30
0.0
 40
0.5
100
AcDbArc
 50
89.9999999999999858
 51
180.0
  0
ARC
  5
97
100
AcDbEntity
  8
R_plate
 62
256
370
-1
 48
1.0
  6
BYLAYER
100
AcDbCircle
 10
223.8308000084275307
 20
-12.1504198731614181
 30
0.0
 40
0.5
100
AcDbArc
 50
360.0
 51
89.9999999999999858
  0
ARC
  5
98
100
AcDbEntity
  8
L_plate
 62
256
370
-1
 48
1.0
  6
BYLAYER
100
AcDbCircle
 10
126.727777244861386
 20
-12.150419915111236
 30
0.0
 40
0.5
100
AcDbArc
 50
0.0
 51
89.9999999999999858
  0
ARC
  5
99
100
AcDbEntity
  8
R_plate
 62
256
370
-1
 48
1.0
  6
BYLAYER
100
AcDbCircle
 10
210.8307999798553567
 20
-12.1504199151111578
 30
0.0
 40
0.5
100
AcDbArc
 50
89.9999999999999858
 51
180.0
  0
ARC
  5
9A
100
AcDbEntity
  8
L_plate
 62
256
370
-1
 48
1.0
  6
BYLAYER
100
AcDbCircle
 10
113.7277771743393231
 20
-25.1504199017333221
 30
0.0
 40
0.5
100
AcDbArc
 50
180.0
 51
270.0
  0
ARC
  5
9B
100
AcDbEntity
  8
R_plate
 62
256
370
-1
 48
1.0
  6
BYLAYER
100
AcDbCircle
 10
223.8308000503774053
 20
-25.1504199017333079
 30
0.0
 40
0.5
100
AcDbArc
 50
270.0
 51
360.0
  0
ARC
  5
9C
100
AcDbEntity
  8
L_plate
 62
256
370
-1
 48
1.0
  6
BYLAYER
100
AcDbCircle
 10
126.7277772029115397
 20
-25.1504199436830724
 30
0.0
 40
0.5
100
AcDbArc
 50
270.0
 51
0.0
  0
ARC
  5
9D
100
AcDbEntity
  8
R_plate
 62
256
370
-1
 48
1.0
  6
BYLAYER
100
AcDbCircle
 10
210.8308000218051461
 20
-25.1504199436829694
 30
0.0
 40
0.5
100
AcDbArc
 50
180.0
 51
270.0
  0
LINE
  5
9E
100
AcDbEntity
  8
L_plate
 62
256
370
-1
 48
1.0
  6
BYLAYER
100
AcDbLine
 10
113.7277772644001743
 20
-30.6504199545814764
 30
0.0
 11
126.7277771846372616
 21
-30.650419905626606
 31
0.0
  0
LINE
  5
9F
100
AcDbEntity
  8
R_plate
 62
256
370
-1
 48
1.0
  6
BYLAYER
100
AcDbLine
 10
223.8307999603165683
 20
-30.6504199545814018
 30
0.0
 11
210.8308000400794811
 21
-30.6504199056265563
 31
0.0
  0
LINE
  5
A0
100
AcDbEntity
  8
L_plate
 62
256
370
-1
 48
1.0
  6
BYLAYER
100
AcDbLine
 10
113.727777265201567
 20
-44.6504199813281986
 30
0.0
 11
126.7277771854387538
 21
-44.6504199323742696
 31
0.0
  0
LINE
  5
A1
100
AcDbEntity
  8
R_plate
 62
256
370
-1
 48
1.0
  6
BYLAYER
100
AcDbLine
 10
223.8307999595151898
 20
-44.6504199813282341
 30
0.0
 11
210.8308000392779888
 21
-44.6504199323742625
 31
0.0
  0
LINE
  5
A2
100
AcDbEntity
  8
L_plate
 62
256
370
-1
 48
1.0
  6
BYLAYER
100
AcDbLine
 10
113.2277771870686109
 20
-31.1504199837591393
 30
0.0
 11
113.2277772360227033
 21
-44.1504199039967418
 31
0.0
  0
LINE
  5
A3
100
AcDbEntity
  8
R_plate
 62
256
370
-1
 48
1.0
  6
BYLAYER
100
AcDbLine
 10
224.3308000376481175
 20
-31.15041998375915
 30
0.0
 11
224.3307999886940252
 21
-44.1504199039966494
 31
0.0
  0
LINE
  5
A4
100
AcDbEntity
  8
L_plate
 62
256
370
-1
 48
1.0
  6
BYLAYER
100
AcDbLine
 10
127.2277772138161254
 20
-31.1504199829578141
 30
0.0
 11
127.2277772627702177
 21
-44.1504199031954627
 31
0.0
  0
LINE
  5
A5
100
AcDbEntity
  8
R_plate
 62
256
370
-1
 48
1.0
  6
BYLAYER
100
AcDbLine
 10
210.3308000109006173
 20
-31.1504199829577288
 30
0.0
 11
210.3307999619465249
 21
-44.150419903195349
 31
0.0
  0
ARC
  5
A6
100
AcDbEntity
  8
L_plate
 62
256
370
-1
 48
1.0
  6
BYLAYER
100
AcDbCircle
 10
113.7277772316081581
 20
-31.1504199082155822
 30
0.0
 40
0.5
100
AcDbArc
 50
89.9999999999999858
 51
180.0
  0
ARC
  5
A7
100
AcDbEntity
  8
R_plate
 62
256
370
-1
 48
1.0
  6
BYLAYER
100
AcDbCircle
 10
223.8307999931085703
 20
-31.1504199082155395
 30
0.0
 40
0.5
100
AcDbArc
 50
360.0
 51
89.9999999999999858
  0
ARC
  5
A8
100
AcDbEntity
  8
L_plate
 62
256
370
-1
 48
1.0
  6
BYLAYER
100
AcDbCircle
 10
126.72777726018046
 20
-31.1504199501665582
 30
0.0
 40
0.5
100
AcDbArc
 50
0.0
 51
89.9999999999999858
  0
ARC
  5
A9
100
AcDbEntity
  8
R_plate
 62
256
370
-1
 48
1.0
  6
BYLAYER
100
AcDbCircle
 10
210.8307999645362827
 20
-31.15041995016648
 30
0.0
 40
0.5
100
AcDbArc
 50
89.9999999999999858
 51
180.0
  0
ARC
  5
AA
100
AcDbEntity
  8
L_plate
 62
256
370
-1
 48
1.0
  6
BYLAYER
100
AcDbCircle
 10
113.7277771896583829
 20
-44.1504199367887153
 30
0.0
 40
0.5
100
AcDbArc
 50
180.0
 51
270.0
  0
ARC
  5
AB
100
AcDbEntity
  8
R_plate
 62
256
370
-1
 48
1.0
  6
BYLAYER
100
AcDbCircle
 10
223.8308000350583313
 20
-44.1504199367886514
 30
0.0
 40
0.5
100
AcDbArc
 50
270.0
 51
360.0
  0
ARC
  5
AC
100
AcDbEntity
  8
L_plate
 62
256
370
-1
 48
1.0
  6
BYLAYER
100
AcDbCircle
 10
126.7277772182306137
 20
-44.1504199787384835
 30
0.0
 40
0.5
100
AcDbArc
 50
270.0
 51
0.0
  0
ARC
  5
AD
100
AcDbEntity
  8
R_plate
 62
256
370
-1
 48
1.0
  6
BYLAYER
100
AcDbCircle
 10
210.8308000064860721
 20
-44.1504199787384124
 30
0.0
 40
0.5
100
AcDbArc
 50
180.0
 51
270.0
  0
LINE
  5
AE
100
AcDbEntity
  8
L_plate
 62
256
370
-1
 48
1.0
  6
BYLAYER
100
AcDbLine
 10
113.7277771713840906
 20
-49.6504198987320038
 30
0.0
 11
126.7277770916212773
 21
-49.650419849777883
 31
0.0
  0
LINE
  5
AF
100
AcDbEntity
  8
R_plate
 62
256
370
-1
 48
1.0
  6
BYLAYER
100
AcDbLine
 10
223.8308000533326378
 20
-49.6504198987319754
 30
0.0
 11
210.8308001330955221
 21
-49.6504198497778901
 31
0.0
  0
LINE
  5
B0
100
AcDbEntity
  8
L_plate
 62
256
370
-1
 48
1.0
  6
BYLAYER
100
AcDbLine
 10
113.7277771721855686
 20
-63.6504199254794898
 30
0.0
 11
126.7277770924227127
 21
-63.6504198765254117
 31
0.0
  0
LINE
  5
B1
100
AcDbEntity
  8
R_plate
 62
256
370
-1
 48
1.0
  6
BYLAYER
100
AcDbLine
 10
223.8308000525312025
 20
-63.6504199254794329
 30
0.0
 11
210.8308001322939731
 21
-63.6504198765253406
 31
0.0
  0
LINE
  5
B2
100
AcDbEntity
  8
L_plate
 62
256
370
-1
 48
1.0
  6
BYLAYER
100
AcDbLine
 10
113.2277770940526551
 20
-50.1504199279107965
 30
0.0
 11
113.2277771430066906
 21
-63.1504198481479904
 31
0.0
  0
LINE
  5
B3
100
AcDbEntity
  8
R_plate
 62
256
370
-1
 48
1.0
  6
BYLAYER
100
AcDbLine
 10
224.3308001306640733
 20
-50.1504199279106899
 30
0.0
 11
224.3308000817100663
 21
-63.1504198481479548
 31
0.0
  0
LINE
  5
B4
100
AcDbEntity
  8
L_plate
 62
256
370
-1
 48
1.0
  6
BYLAYER
100
AcDbLine
 10
127.2277771208001411
 20
-50.1504199271093611
 30
0.0
 11
127.227777169754205
 21
-63.1504198473465479
 31
0.0
  0
LINE
  5
B5
100
AcDbEntity
  8
R_plate
 62
256
370
-1
 48
1.0
  6
BYLAYER
100
AcDbLine
 10
210.3308001039166015
 20
-50.150419927109283
 30
0.0
 11
210.3308000549625092
 21
-63.1504198473465479
 31
0.0
  0
ARC
  5
B6
100
AcDbEntity
  8
L_plate
 62
256
370
-1
 48
1.0
  6
BYLAYER
100
AcDbCircle
 10
113.7277771385922307
 20
-50.1504198523676124
 30
0.0
 40
0.5
100
AcDbArc
 50
89.9999999999999858
 51
180.0
  0
ARC
  5
B7
100
AcDbEntity
  8
R_plate
 62
256
370
-1
 48
1.0
  6
BYLAYER
100
AcDbCircle
 10
223.8308000861245262
 20
-50.1504198523676124
 30
0.0
 40
0.5
100
AcDbArc
 50
360.0
 51
89.9999999999999858
  0
ARC
  5
B8
100
AcDbEntity
  8
L_plate
 62
256
370
-1
 48
1.0
  6
BYLAYER
100
AcDbCircle
 10
126.7277771671644473
 20
-50.150419894317551
 30
0.0
 40
0.5
100
AcDbArc
 50
0.0
 51
89.9999999999999858
  0
ARC
  5
B9
100
AcDbEntity
  8
R_plate
 62
256
370
-1
 48
1.0
  6
BYLAYER
100
AcDbCircle
 10
210.8308000575522954
 20
-50.1504198943175723
 30
0.0
 40
0.5
100
AcDbArc
 50
89.9999999999999858
 51
180.0
  0
ARC
  5
BA
100
AcDbEntity
  8
L_plate
 62
256
370
-1
 48
1.0
  6
BYLAYER
100
AcDbCircle
 10
113.7277770966423844
 20
-63.1504198809398858
 30
0.0
 40
0.5
100
AcDbArc
 50
180.0
 51
270.0
  0
ARC
  5
BB
100
AcDbEntity
  8
R_plate
 62
256
370
-1
 48
1.0
  6
BYLAYER
100
AcDbCircle
 10
223.8308001280743156
 20
-63.1504198809398289
 30
0.0
 40
0.5
100
AcDbArc
 50
270.0
 51
360.0
  0
ARC
  5
BC
100
AcDbEntity
  8
L_plate
 62
256
370
-1
 48
1.0
  6
BYLAYER
100
AcDbCircle
 10
126.727777125214601
 20
-63.150419922889732
 30
0.0
 40
0.5
100
AcDbArc
 50
270.0
 51
0.0
  0
ARC
  5
BD
100
AcDbEntity
  8
R_plate
 62
256
370
-1
 48
1.0
  6
BYLAYER
100
AcDbCircle
 10
210.83080009950217
 20
-63.150419922889661
 30
0.0
 40
0.5
100
AcDbArc
 50
180.0
 51
270.0
  0
LINE
  5
BE
100
AcDbEntity
  8
L_plate
 62
256
370
-1
 48
1.0
  6
BYLAYER
100
AcDbLine
 10
94.5831757710215868
 20
-8.3385017323561925
 30
0.0
 11
107.5831756912587736
 21
-8.3385016834021712
 31
0.0
  0
LINE
  5
BF
100
AcDbEntity
  8
R_plate
 62
256
370
-1
 48
1.0
  6
BYLAYER
100
AcDbLine
 10
242.9754014536951843
 20
-8.3385017323561463
 30
0.0
 11
229.9754015334579833
 21
-8.3385016834020504
 31
0.0
  0
LINE
  5
C0
100
AcDbEntity
  8
L_plate
 62
256
370
-1
 48
1.0
  6
BYLAYER
100
AcDbLine
 10
94.5831757718230648
 20
-22.3385017591037069
 30
0.0
 11
107.5831756920602231
 21
-22.3385017101496999
 31
0.0
  0
LINE
  5
C1
100
AcDbEntity
  8
R_plate
 62
256
370
-1
 48
1.0
  6
BYLAYER
100
AcDbLine
 10
242.9754014528936921
 20
-22.3385017591037069
 30
0.0
 11
229.9754015326564911
 21
-22.3385017101495578
 31
0.0
  0
LINE
  5
C2
100
AcDbEntity
  8
L_plate
 62
256
370
-1
 48
1.0
  6
BYLAYER
100
AcDbLine
 10
94.0831756936901371
 20
-8.838501761535138
 30
0.0
 11
94.0831757426441868
 21
-21.838501681772307
 31
0.0
  0
LINE
  5
C3
100
AcDbEntity
  8
R_plate
 62
256
370
-1
 48
1.0
  6
BYLAYER
100
AcDbLine
 10
243.4754015310266198
 20
-8.8385017615350634
 30
0.0
 11
243.4754014820725558
 21
-21.8385016817722715
 31
0.0
  0
LINE
  5
C4
100
AcDbEntity
  8
L_plate
 62
256
370
-1
 48
1.0
  6
BYLAYER
100
AcDbLine
 10
108.0831757204376089
 20
-8.8385017607336174
 30
0.0
 11
108.0831757693916728
 21
-21.8385016809707935
 31
0.0
  0
LINE
  5
C5
100
AcDbEntity
  8
R_plate
 62
256
370
-1
 48
1.0
  6
BYLAYER
100
AcDbLine
 10
229.4754015042791195
 20
-8.8385017607335321
 30
0.0
 11
229.4754014553250556
 21
-21.8385016809707437
 31
0.0
  0
ARC
  5
C6
100
AcDbEntity
  8
L_plate
 62
256
370
-1
 48
1.0
  6
BYLAYER
100
AcDbCircle
 10
94.5831757382297411
 20
-8.8385016859919361
 30
0.0
 40
0.5
100
AcDbArc
 50
89.9999999999999858
 51
180.0
  0
ARC
  5
C7
100
AcDbEntity
  8
R_plate
 62
256
370
-1
 48
1.0
  6
BYLAYER
100
AcDbCircle
 10
242.9754014864870157
 20
-8.8385016859919574
 30
0.0
 40
0.5
100
AcDbArc
 50
360.0
 51
89.9999999999999858
  0
ARC
  5
C8
100
AcDbEntity
  8
L_plate
 62
256
370
-1
 48
1.0
  6
BYLAYER
100
AcDbCircle
 10
107.5831757668019151
 20
-8.8385017279417397
 30
0.0
 40
0.5
100
AcDbArc
 50
0.0
 51
89.9999999999999858
  0
ARC
  5
C9
100
AcDbEntity
  8
R_plate
 62
256
370
-1
 48
1.0
  6
BYLAYER
100
AcDbCircle
 10
229.9754014579148418
 20
-8.8385017279417433
 30
0.0
 40
0.5
100
AcDbArc
 50
89.9999999999999858
 51
180.0
  0
ARC
  5
CA
100
AcDbEntity
  8
L_plate
 62
256
370
-1
 48
1.0
  6
BYLAYER
100
AcDbCircle
 10
94.5831756962798949
 20
-21.8385017145641669
 30
0.0
 40
0.5
100
AcDbArc
 50
180.0
 51
270.0
  0
ARC
  5
CB
100
AcDbEntity
  8
R_plate
 62
256
370
-1
 48
1.0
  6
BYLAYER
100
AcDbCircle
 10
242.9754015284368336
 20
-21.8385017145641029
 30
0.0
 40
0.5
100
AcDbArc
 50
270.0
 51
360.0
  0
ARC
  5
CC
100
AcDbEntity
  8
L_plate
 62
256
370
-1
 48
1.0
  6
BYLAYER
100
AcDbCircle
 10
107.5831757248520688
 20
-21.8385017565138142
 30
0.0
 40
0.5
100
AcDbArc
 50
270.0
 51
0.0
  0
ARC
  5
CD
100
AcDbEntity
  8
R_plate
 62
256
370
-1
 48
1.0
  6
BYLAYER
100
AcDbCircle
 10
229.9754014998646596
 20
-21.8385017565138071
 30
0.0
 40
0.5
100
AcDbArc
 50
180.0
 51
270.0
  0
LINE
  5
CE
100
AcDbEntity
  8
L_plate
 62
256
370
-1
 48
1.0
  6
BYLAYER
100
AcDbLine
 10
94.5831757776250441
 20
-27.3385016677915189
 30
0.0
 11
107.5831756978622167
 21
-27.3385016188375474
 31
0.0
  0
LINE
  5
CF
100
AcDbEntity
  8
R_plate
 62
256
370
-1
 48
1.0
  6
BYLAYER
100
AcDbLine
 10
242.9754014470916843
 20
-27.3385016677914834
 30
0.0
 11
229.9754015268545402
 21
-27.3385016188374408
 31
0.0
  0
LINE
  5
D0
100
AcDbEntity
  8
L_plate
 62
256
370
-1
 48
1.0
  6
BYLAYER
100
AcDbLine
 10
94.5831757784265363
 20
-41.3385016945395307
 30
0.0
 11
107.5831756986636947
 21
-41.3385016455852821
 31
0.0
  0
LINE
  5
D1
100
AcDbEntity
  8
R_plate
 62
256
370
-1
 48
1.0
  6
BYLAYER
100
AcDbLine
 10
242.9754014462901921
 20
-41.3385016945395023
 30
0.0
 11
229.975401526053048
 21
-41.3385016455852821
 31
0.0
  0
LINE
  5
D2
100
AcDbEntity
  8
L_plate
 62
256
370
-1
 48
1.0
  6
BYLAYER
100
AcDbLine
 10
94.0831757002936087
 20
-27.8385016969707735
 30
0.0
 11
94.0831757492476584
 21
-40.838501617207875
 31
0.0
  0
LINE
  5
D3
100
AcDbEntity
  8
R_plate
 62
256
370
-1
 48
1.0
  6
BYLAYER
100
AcDbLine
 10
243.4754015244231198
 20
-27.8385016969707024
 30
0.0
 11
243.4754014754690559
 21
-40.8385016172077897
 31
0.0
  0
LINE
  5
D4
100
AcDbEntity
  8
L_plate
 62
256
370
-1
 48
1.0
  6
BYLAYER
100
AcDbLine
 10
108.083175727041052
 20
-27.8385016961685778
 30
0.0
 11
108.0831757759951586
 21
-40.8385016164064325
 31
0.0
  0
LINE
  5
D5
100
AcDbEntity
  8
R_plate
 62
256
370
-1
 48
1.0
  6
BYLAYER
100
AcDbLine
 10
229.4754014976756764
 20
-27.8385016961685992
 30
0.0
 11
229.4754014487216125
 21
-40.838501616406397
 31
0.0
  0
ARC
  5
D6
100
AcDbEntity
  8
L_plate
 62
256
370
-1
 48
1.0
  6
BYLAYER
100
AcDbCircle
 10
94.5831757448332127
 20
-27.8385016214277279
 30
0.0
 40
0.5
100
AcDbArc
 50
89.9999999999999858
 51
180.0
  0
ARC
  5
D7
100
AcDbEntity
  8
R_plate
 62
256
370
-1
 48
1.0
  6
BYLAYER
100
AcDbCircle
 10
242.9754014798835158
 20
-27.8385016214277243
 30
0.0
 40
0.5
100
AcDbArc
 50
360.0
 51
89.9999999999999858
  0
ARC
  5
D8
100
AcDbEntity
  8
L_plate
 62
256
370
-1
 48
1.0
  6
BYLAYER
100
AcDbCircle
 10
107.5831757734053724
 20
-27.8385016633770945
 30
0.0
 40
0.5
100
AcDbArc
 50
0.0
 51
89.9999999999999858
  0
ARC
  5
D9
100
AcDbEntity
  8
R_plate
 62
256
370
-1
 48
1.0
  6
BYLAYER
100
AcDbCircle
 10
229.9754014513113987
 20
-27.8385016633769879
 30
0.0
 40
0.5
100
AcDbArc
 50
89.9999999999999858
 51
180.0
  0
ARC
  5
DA
100
AcDbEntity
  8
L_plate
 62
256
370
-1
 48
1.0
  6
BYLAYER
100
AcDbCircle
 10
94.5831757028833522
 20
-40.838501649999877
 30
0.0
 40
0.5
100
AcDbArc
 50
180.0
 51
270.0
  0
ARC
  5
DB
100
AcDbEntity
  8
R_plate
 62
256
370
-1
 48
1.0
  6
BYLAYER
100
AcDbCircle
 10
242.9754015218333905
 20
-40.8385016499997917
 30
0.0
 40
0.5
100
AcDbArc
 50
270.0
 51
360.0
  0
ARC
  5
DC
100
AcDbEntity
  8
L_plate
 62
256
370
-1
 48
1.0
  6
BYLAYER
100
AcDbCircle
 10
107.5831757314555688
 20
-40.8385016919496096
 30
0.0
 40
0.5
100
AcDbArc
 50
270.0
 51
0.0
  0
ARC
  5
DD
100
AcDbEntity
  8
R_plate
 62
256
370
-1
 48
1.0
  6
BYLAYER
100
AcDbCircle
 10
229.9754014932611597
 20
-40.8385016919495385
 30
0.0
 40
0.5
100
AcDbArc
 50
180.0
 51
270.0
  0
LINE
  5
DE
100
AcDbEntity
  8
L_plate
 62
256
370
-1
 48
1.0
  6
BYLAYER
100
AcDbLine
 10
94.5831757929441181
 20
-46.3385017028469264
 30
0.0
 11
107.5831757131812765
 21
-46.3385016538929051
 31
0.0
  0
LINE
  5
DF
100
AcDbEntity
  8
R_plate
 62
256
370
-1
 48
1.0
  6
BYLAYER
100
AcDbLine
 10
242.9754014317726103
 20
-46.338501702846898
 30
0.0
 11
229.9754015115354662
 21
-46.3385016538928838
 31
0.0
  0
LINE
  5
E0
100
AcDbEntity
  8
L_plate
 62
256
370
-1
 48
1.0
  6
BYLAYER
100
AcDbLine
 10
94.5831757937455677
 20
-60.3385017295944692
 30
0.0
 11
107.5831757139827403
 21
-60.3385016806404195
 31
0.0
  0
LINE
  5
E1
100
AcDbEntity
  8
R_plate
 62
256
370
-1
 48
1.0
  6
BYLAYER
100
AcDbLine
 10
242.9754014309711465
 20
-60.3385017295943769
 30
0.0
 11
229.9754015107340308
 21
-60.338501680640384
 31
0.0
  0
LINE
  5
E2
100
AcDbEntity
  8
L_plate
 62
256
370
-1
 48
1.0
  6
BYLAYER
100
AcDbLine
 10
94.0831757156126685
 20
-46.8385017320258541
 30
0.0
 11
94.0831757645667182
 21
-59.838501652262984
 31
0.0
  0
LINE
  5
E3
100
AcDbEntity
  8
R_plate
 62
256
370
-1
 48
1.0
  6
BYLAYER
100
AcDbLine
 10
243.4754015091041026
 20
-46.8385017320258399
 30
0.0
 11
243.4754014601500103
 21
-59.838501652262913
 31
0.0
  0
LINE
  5
E4
100
AcDbEntity
  8
L_plate
 62
256
370
-1
 48
1.0
  6
BYLAYER
100
AcDbLine
 10
108.0831757423601545
 20
-46.8385017312244187
 30
0.0
 11
108.0831757913142042
 21
-59.8385016514615344
 31
0.0
  0
LINE
  5
E5
100
AcDbEntity
  8
R_plate
 62
256
370
-1
 48
1.0
  6
BYLAYER
100
AcDbLine
 10
229.4754014823566024
 20
-46.8385017312243406
 30
0.0
 11
229.4754014334025385
 21
-59.8385016514615202
 31
0.0
  0
ARC
  5
E6
100
AcDbEntity
  8
L_plate
 62
256
370
-1
 48
1.0
  6
BYLAYER
100
AcDbCircle
 10
94.5831757601522582
 20
-46.8385016564825847
 30
0.0
 40
0.5
100
AcDbArc
 50
89.9999999999999858
 51
180.0
  0
ARC
  5
E7
100
AcDbEntity
  8
R_plate
 62
256
370
-1
 48
1.0
  6
BYLAYER
100
AcDbCircle
 10
242.9754014645644986
 20
-46.8385016564825278
 30
0.0
 40
0.5
100
AcDbArc
 50
360.0
 51
89.9999999999999858
  0
ARC
  5
E8
100
AcDbEntity
  8
L_plate
 62
256
370
-1
 48
1.0
  6
BYLAYER
100
AcDbCircle
 10
107.5831757887244606
 20
-46.8385016984324594
 30
0.0
 40
0.5
100
AcDbArc
 50
0.0
 51
89.9999999999999858
  0
ARC
  5
E9
100
AcDbEntity
  8
R_plate
 62
256
370
-1
 48
1.0
  6
BYLAYER
100
AcDbCircle
 10
229.9754014359922678
 20
-46.838501698432367
 30
0.0
 40
0.5
100
AcDbArc
 50
89.9999999999999858
 51
180.0
  0
ARC
  5
EA
100
AcDbEntity
  8
L_plate
 62
256
370
-1
 48
1.0
  6
BYLAYER
100
AcDbCircle
 10
94.5831757182023978
 20
-59.8385016850548581
 30
0.0
 40
0.5
100
AcDbArc
 50
180.0
 51
270.0
  0
ARC
  5
EB
100
AcDbEntity
  8
R_plate
 62
256
370
-1
 48
1.0
  6
BYLAYER
100
AcDbCircle
 10
242.9754015065143165
 20
-59.8385016850548439
 30
0.0
 40
0.5
100
AcDbArc
 50
270.0
 51
360.0
  0
ARC
  5
EC
100
AcDbEntity
  8
L_plate
 62
256
370
-1
 48
1.0
  6
BYLAYER
100
AcDbCircle
 10
107.5831757467746002
 20
-59.838501727004747
 30
0.0
 40
0.5
100
AcDbArc
 50
270.0
 51
0.0
  0
ARC
  5
ED
100
AcDbEntity
  8
R_plate
 62
256
370
-1
 48
1.0
  6
BYLAYER
100
AcDbCircle
 10
229.9754014779421425
 20
-59.8385017270047328
 30
0.0
 40
0.5
100
AcDbArc
 50
180.0
 51
270.0
  0
LINE
  5
EE
100
AcDbEntity
  8
L_plate
 62
256
370
-1
 48
1.0
  6
BYLAYER
100
AcDbLine
 10
116.5316144716332758
 20
-74.0413732174931454
 30
0.0
 11
129.0886501466459606
 21
-77.4060208465721757
 31
0.0
  0
LINE
  5
EF
100
AcDbEntity
  8
R_plate
 62
256
370
-1
 48
1.0
  6
BYLAYER
100
AcDbLine
 10
221.0269627530834669
 20
-74.0413732174931312
 30
0.0
 11
208.4699270780707536
 21
-77.40602084657219
 31
0.0
  0
LINE
  5
F0
100
AcDbEntity
  8
L_plate
 62
256
370
-1
 48
1.0
  6
BYLAYER
100
AcDbLine
 10
112.9081478475165454
 20
-87.5643347939314936
 30
0.0
 11
125.4651835225292302
 21
-90.9289824230104671
 31
0.0
  0
LINE
  5
F1
100
AcDbEntity
  8
R_plate
 62
256
370
-1
 48
1.0
  6
BYLAYER
100
AcDbLine
 10
224.6504293772001972
 20
-87.5643347939314651
 30
0.0
 11
212.0933937021875408
 21
-90.9289824230104529
 31
0.0
  0
LINE
  5
F2
100
AcDbEntity
  8
L_plate
 62
256
370
-1
 48
1.0
  6
BYLAYER
100
AcDbLine
 10
115.9192420234015657
 20
-74.3949266706871413
 30
0.0
 11
112.554594394322578
 21
-86.9519623456998261
 31
0.0
  0
LINE
  5
F3
100
AcDbEntity
  8
R_plate
 62
256
370
-1
 48
1.0
  6
BYLAYER
100
AcDbLine
 10
221.6393352013151059
 20
-74.3949266706870418
 30
0.0
 11
225.0039828303941647
 21
-86.9519623456997834
 31
0.0
  0
LINE
  5
F4
100
AcDbEntity
  8
L_plate
 62
256
370
-1
 48
1.0
  6
BYLAYER
100
AcDbLine
 10
129.4422035998398712
 20
-78.0183932948038716
 30
0.0
 11
126.0775559707609261
 21
-90.5754289698164712
 31
0.0
  0
LINE
  5
F5
100
AcDbEntity
  8
R_plate
 62
256
370
-1
 48
1.0
  6
BYLAYER
100
AcDbLine
 10
208.1163736248768714
 20
-78.0183932948037295
 30
0.0
 11
211.4810212539558734
 21
-90.5754289698164712
 31
0.0
  0
ARC
  5
F6
100
AcDbEntity
  8
L_plate
 62
256
370
-1
 48
1.0
  6
BYLAYER
100
AcDbCircle
 10
116.4022049199468682
 20
-74.5243361227540504
 30
0.0
 40
0.5
100
AcDbArc
 50
75.0
 51
165.0
  0
ARC
  5
F7
100
AcDbEntity
  8
R_plate
 62
256
370
-1
 48
1.0
  6
BYLAYER
100
AcDbCircle
 10
221.1563723047698602
 20
-74.5243361227540078
 30
0.0
 40
0.5
100
AcDbArc
 50
14.9999999999999698
 51
104.9999999999999716
  0
ARC
  5
F8
100
AcDbEntity
  8
L_plate
 62
256
370
-1
 48
1.0
  6
BYLAYER
100
AcDbCircle
 10
128.9592406945789946
 20
-77.8889837431175067
 30
0.0
 40
0.5
100
AcDbArc
 50
345.0
 51
75.0
  0
ARC
  5
F9
100
AcDbEntity
  8
R_plate
 62
256
370
-1
 48
1.0
  6
BYLAYER
100
AcDbCircle
 10
208.599336530137748
 20
-77.8889837431174641
 30
0.0
 40
0.5
100
AcDbArc
 50
104.9999999999999716
 51
195.0000000000000284
  0
ARC
  5
FA
100
AcDbEntity
  8
L_plate
 62
256
370
-1
 48
1.0
  6
BYLAYER
100
AcDbCircle
 10
113.037557299583483
 20
-87.0813718973861626
 30
0.0
 40
0.5
100
AcDbArc
 50
165.0
 51
254.9999999999999716
  0
ARC
  5
FB
100
AcDbEntity
  8
R_plate
 62
256
370
-1
 48
1.0
  6
BYLAYER
100
AcDbCircle
 10
224.5210199251332028
 20
-87.0813718973860915
 30
0.0
 40
0.5
100
AcDbArc
 50
285.0
 51
14.9999999999999698
  0
ARC
  5
FC
100
AcDbEntity
  8
L_plate
 62
256
370
-1
 48
1.0
  6
BYLAYER
100
AcDbCircle
 10
125.5945930742155952
 20
-90.4460195177496189
 30
0.0
 40
0.5
100
AcDbArc
 50
254.9999999999999716
 51
345.0
  0
ARC
  5
FD
100
AcDbEntity
  8
R_plate
 62
256
370
-1
 48
1.0
  6
BYLAYER
100
AcDbCircle
 10
211.9639841505011475
 20
-90.4460195177495905
 30
0.0
 40
0.5
100
AcDbArc
 50
195.0000000000000284
 51
285.0
  0
LINE
  5
FE
100
AcDbEntity
  8
R_plate
 62
256
370
-1
 48
1.0
  6
BYLAYER
100
AcDbLine
 10
202.6743720505637043
 20
-78.9589350509000809
 30
0.0
 11
190.1173363755510195
 21
-82.3235826799788555
 31
0.0
  0
LINE
  5
FF
100
AcDbEntity
  8
R_plate
 62
256
370
-1
 48
1.0
  6
BYLAYER
100
AcDbLine
 10
206.2978386746803494
 20
-92.4818966273381307
 30
0.0
 11
193.7408029996676646
 21
-95.8465442564170331
 31
0.0
  0
LINE
  5
100
100
AcDbEntity
  8
R_plate
 62
256
370
-1
 48
1.0
  6
BYLAYER
100
AcDbLine
 10
203.2867444987954286
 20
-79.3124885040939631
 30
0.0
 11
206.6513921278743737
 21
-91.8695241791064632
 31
0.0
  0
LINE
  5
101
100
AcDbEntity
  8
R_plate
 62
256
370
-1
 48
1.0
  6
BYLAYER
100
AcDbLine
 10
189.763782922357052
 20
-82.9359551282104661
 30
0.0
 11
193.1284305514360256
 21
-95.4929908032231936
 31
0.0
  0
ARC
  5
102
100
AcDbEntity
  8
R_plate
 62
256
370
-1
 48
1.0
  6
BYLAYER
100
AcDbCircle
 10
202.8037816022500124
 20
-79.4418979561606591
 30
0.0
 40
0.5
100
AcDbArc
 50
14.9999999999999698
 51
104.9999999999999716
  0
ARC
  5
103
100
AcDbEntity
  8
R_plate
 62
256
370
-1
 48
1.0
  6
BYLAYER
100
AcDbCircle
 10
190.2467458276178434
 20
-82.8065455765240586
 30
0.0
 40
0.5
100
AcDbArc
 50
104.9999999999999716
 51
195.0000000000000284
  0
ARC
  5
104
100
AcDbEntity
  8
R_plate
 62
256
370
-1
 48
1.0
  6
BYLAYER
100
AcDbCircle
 10
206.1684292226134971
 20
-91.9989337307928849
 30
0.0
 40
0.5
100
AcDbArc
 50
285.0
 51
14.9999999999999698
  0
ARC
  5
105
100
AcDbEntity
  8
R_plate
 62
256
370
-1
 48
1.0
  6
BYLAYER
100
AcDbCircle
 10
193.6113934479812713
 20
-95.3635813511563413
 30
0.0
 40
0.5
100
AcDbArc
 50
195.0000000000000284
 51
285.0
  0
LINE
  5
106
100
AcDbEntity
  8
L_plate
 62
256
370
-1
 48
1.0
  6
BYLAYER
100
AcDbLine
 10
44.347130057484776
 20
-15.4362406486673578
 30
0.0
 11
57.1496307765932059
 21
-13.1788144010582506
 31
0.0
  0
LINE
  5
107
100
AcDbEntity
  8
R_plate
 62
256
370
-1
 48
1.0
  6
BYLAYER
100
AcDbLine
 10
293.2114471672319951
 20
-15.4362406486673152
 30
0.0
 11
280.4089464481235154
 21
-13.1788144010582542
 31
0.0
  0
LINE
  5
108
100
AcDbEntity
  8
L_plate
 62
256
370
-1
 48
1.0
  6
BYLAYER
100
AcDbLine
 10
46.7782045486771736
 20
-29.2235492173185882
 30
0.0
 11
59.5807052677855964
 21
-26.9661229697094988
 31
0.0
  0
LINE
  5
109
100
AcDbEntity
  8
R_plate
 62
256
370
-1
 48
1.0
  6
BYLAYER
100
AcDbLine
 10
290.780372676039633
 20
-29.223549217318542
 30
0.0
 11
277.9778719569311534
 21
-26.9661229697094313
 31
0.0
  0
LINE
  5
10A
100
AcDbEntity
  8
L_plate
 62
256
370
-1
 48
1.0
  6
BYLAYER
100
AcDbLine
 10
57.7288588231562514
 20
-13.5843942040380341
 30
0.0
 11
59.9862850707653408
 21
-26.3868949231464285
 31
0.0
  0
LINE
  5
10B
100
AcDbEntity
  8
R_plate
 62
256
370
-1
 48
1.0
  6
BYLAYER
100
AcDbLine
 10
279.8297184015605126
 20
-13.5843942040380483
 30
0.0
 11
277.5722921539513663
 21
-26.3868949231464143
 31
0.0
  0
ARC
  5
10C
100
AcDbEntity
  8
L_plate
 62
256
370
-1
 48
1.0
  6
BYLAYER
100
AcDbCircle
 10
44.4339540796569565
 20
-15.9286445821543232
 30
0.0
 40
0.5
100
AcDbArc
 50
100.0
 51
190.0
  0
ARC
  5
10D
100
AcDbEntity
  8
R_plate
 62
256
370
-1
 48
1.0
  6
BYLAYER
100
AcDbCircle
 10
293.1246231450597861
 20
-15.9286445821542699
 30
0.0
 40
0.5
100
AcDbArc
 50
350.0
 51
80.0
  0
ARC
  5
10E
100
AcDbEntity
  8
L_plate
 62
256
370
-1
 48
1.0
  6
BYLAYER
100
AcDbCircle
 10
57.2364548896692824
 20
-13.6712182262102075
 30
0.0
 40
0.5
100
AcDbArc
 50
10.0
 51
100.0
  0
ARC
  5
10F
100
AcDbEntity
  8
R_plate
 62
256
370
-1
 48
1.0
  6
BYLAYER
100
AcDbCircle
 10
280.3221223350474247
 20
-13.6712182262101365
 30
0.0
 40
0.5
100
AcDbArc
 50
80.0
 51
170.0
  0
ARC
  5
110
100
AcDbEntity
  8
L_plate
 62
256
370
-1
 48
1.0
  6
BYLAYER
100
AcDbCircle
 10
46.6913804356010971
 20
-28.7311453921666669
 30
0.0
 40
0.5
100
AcDbArc
 50
190.0
 51
280.0
  0
ARC
  5
111
100
AcDbEntity
  8
R_plate
 62
256
370
-1
 48
1.0
  6
BYLAYER
100
AcDbCircle
 10
290.86719678911561
 20
-28.7311453921666384
 30
0.0
 40
0.5
100
AcDbArc
 50
260.0
 51
350.0
  0
ARC
  5
112
100
AcDbEntity
  8
L_plate
 62
256
370
-1
 48
1.0
  6
BYLAYER
100
AcDbCircle
 10
59.4938812456134158
 20
-26.4737190362225157
 30
0.0
 40
0.5
100
AcDbArc
 50
280.0
 51
10.0
  0
ARC
  5
113
100
AcDbEntity
  8
R_plate
 62
256
370
-1
 48
1.0
  6
BYLAYER
100
AcDbCircle
 10
278.0646959791033623
 20
-26.4737190362224482
 30
0.0
 40
0.5
100
AcDbArc
 50
170.0
 51
260.0
  0
LINE
  5
114
100
AcDbEntity
  8
L_plate
 62
256
370
-1
 48
1.0
  6
BYLAYER
100
AcDbLine
 10
47.6464454241573918
 20
-34.1475879930820128
 30
0.0
 11
60.4489461432657933
 21
-31.8901617454728381
 31
0.0
  0
LINE
  5
115
100
AcDbEntity
  8
R_plate
 62
256
370
-1
 48
1.0
  6
BYLAYER
100
AcDbLine
 10
289.9121318005593366
 20
-34.1475879930819488
 30
0.0
 11
277.1096310814509707
 21
-31.890161745472831
 31
0.0
  0
LINE
  5
116
100
AcDbEntity
  8
L_plate
 62
256
370
-1
 48
1.0
  6
BYLAYER
100
AcDbLine
 10
50.0775199153497752
 20
-47.9348965617331757
 30
0.0
 11
62.880020634458198
 21
-45.6774703141241361
 31
0.0
  0
LINE
  5
117
100
AcDbEntity
  8
R_plate
 62
256
370
-1
 48
1.0
  6
BYLAYER
100
AcDbLine
 10
287.4810573093669746
 20
-47.9348965617331046
 30
0.0
 11
274.6785565902586086
 21
-45.6774703141241361
 31
0.0
  0
LINE
  5
118
100
AcDbEntity
  8
L_plate
 62
256
370
-1
 48
1.0
  6
BYLAYER
100
AcDbLine
 10
47.2408656211776261
 20
-34.7268160396449446
 30
0.0
 11
49.4982918687867226
 21
-47.5293167587534313
 31
0.0
  0
LINE
  5
119
100
AcDbEntity
  8
R_plate
 62
256
370
-1
 48
1.0
  6
BYLAYER
100
AcDbLine
 10
290.3177116035391236
 20
-34.7268160396448877
 30
0.0
 11
288.0602853559299774
 21
-47.5293167587533958
 31
0.0
  0
LINE
  5
11A
100
AcDbEntity
  8
L_plate
 62
256
370
-1
 48
1.0
  6
BYLAYER
100
AcDbLine
 10
61.028174189828853
 20
-32.2957415484525399
 30
0.0
 11
63.2856004374379424
 21
-45.0982422675610835
 31
0.0
  0
LINE
  5
11B
100
AcDbEntity
  8
R_plate
 62
256
370
-1
 48
1.0
  6
BYLAYER
100
AcDbLine
 10
276.5304030348878541
 20
-32.2957415484525256
 30
0.0
 11
274.2729767872788216
 21
-45.0982422675610479
 31
0.0
  0
ARC
  5
11C
100
AcDbEntity
  8
L_plate
 62
256
370
-1
 48
1.0
  6
BYLAYER
100
AcDbCircle
 10
47.7332694463295866
 20
-34.6399919265691878
 30
0.0
 40
0.5
100
AcDbArc
 50
100.0
 51
190.0
  0
ARC
  5
11D
100
AcDbEntity
  8
R_plate
 62
256
370
-1
 48
1.0
  6
BYLAYER
100
AcDbCircle
 10
289.8253077783871277
 20
-34.6399919265691452
 30
0.0
 40
0.5
100
AcDbArc
 50
350.0
 51
80.0
  0
ARC
  5
11E
100
AcDbEntity
  8
L_plate
 62
256
370
-1
 48
1.0
  6
BYLAYER
100
AcDbCircle
 10
60.535770256341884
 20
-32.3825655706247701
 30
0.0
 40
0.5
100
AcDbArc
 50
10.0
 51
100.0
  0
ARC
  5
11F
100
AcDbEntity
  8
R_plate
 62
256
370
-1
 48
1.0
  6
BYLAYER
100
AcDbCircle
 10
277.0228069683748799
 20
-32.3825655706247133
 30
0.0
 40
0.5
100
AcDbArc
 50
80.0
 51
170.0
  0
ARC
  5
120
100
AcDbEntity
  8
L_plate
 62
256
370
-1
 48
1.0
  6
BYLAYER
100
AcDbCircle
 10
49.9906958022736916
 20
-47.442492736581265
 30
0.0
 40
0.5
100
AcDbArc
 50
190.0
 51
280.0
  0
ARC
  5
121
100
AcDbEntity
  8
R_plate
 62
256
370
-1
 48
1.0
  6
BYLAYER
100
AcDbCircle
 10
287.5678814224430653
 20
-47.4424927365812437
 30
0.0
 40
0.5
100
AcDbArc
 50
260.0
 51
350.0
  0
ARC
  5
122
100
AcDbEntity
  8
L_plate
 62
256
370
-1
 48
1.0
  6
BYLAYER
100
AcDbCircle
 10
62.7931966122860317
 20
-45.1850663806371671
 30
0.0
 40
0.5
100
AcDbArc
 50
280.0
 51
10.0
  0
ARC
  5
123
100
AcDbEntity
  8
R_plate
 62
256
370
-1
 48
1.0
  6
BYLAYER
100
AcDbCircle
 10
274.7653806124307039
 20
-45.1850663806371244
 30
0.0
 40
0.5
100
AcDbArc
 50
170.0
 51
260.0
  0
LINE
  5
124
100
AcDbEntity
  8
L_plate
 62
256
370
-1
 48
1.0
  6
BYLAYER
100
AcDbLine
 10
50.9457607908299934
 20
-52.8589353374965611
 30
0.0
 11
63.7482615099384091
 21
-50.6015090898875144
 31
0.0
  0
LINE
  5
125
100
AcDbEntity
  8
R_plate
 62
256
370
-1
 48
1.0
  6
BYLAYER
100
AcDbLine
 10
286.6128164338867919
 20
-52.8589353374964901
 30
0.0
 11
273.8103157147783122
 21
-50.6015090898874362
 31
0.0
  0
LINE
  5
126
100
AcDbEntity
  8
L_plate
 62
256
370
-1
 48
1.0
  6
BYLAYER
100
AcDbLine
 10
53.3768352820223839
 20
-66.646243906147788
 30
0.0
 11
66.1793360011308067
 21
-64.3888176585386987
 31
0.0
  0
LINE
  5
127
100
AcDbEntity
  8
R_plate
 62
256
370
-1
 48
1.0
  6
BYLAYER
100
AcDbLine
 10
284.1817419426943161
 20
-66.6462439061477596
 30
0.0
 11
271.3792412235859501
 21
-64.3888176585386844
 31
0.0
  0
LINE
  5
128
100
AcDbEntity
  8
L_plate
 62
256
370
-1
 48
1.0
  6
BYLAYER
100
AcDbLine
 10
50.540180987850249
 20
-53.4381633840595995
 30
0.0
 11
52.7976072354593455
 21
-66.2406641031680294
 31
0.0
  0
LINE
  5
129
100
AcDbEntity
  8
R_plate
 62
256
370
-1
 48
1.0
  6
BYLAYER
100
AcDbLine
 10
287.0183962368664652
 20
-53.4381633840595569
 30
0.0
 11
284.7609699892574326
 21
-66.240664103168001
 31
0.0
  0
LINE
  5
12A
100
AcDbEntity
  8
L_plate
 62
256
370
-1
 48
1.0
  6
BYLAYER
100
AcDbLine
 10
64.3274895565014617
 20
-51.0070888928672375
 30
0.0
 11
66.5849158041105511
 21
-63.8095896119756603
 31
0.0
  0
LINE
  5
12B
100
AcDbEntity
  8
R_plate
 62
256
370
-1
 48
1.0
  6
BYLAYER
100
AcDbLine
 10
273.2310876682153093
 20
-51.0070888928672019
 30
0.0
 11
270.9736614206061631
 21
-63.8095896119756176
 31
0.0
  0
ARC
  5
12C
100
AcDbEntity
  8
L_plate
 62
256
370
-1
 48
1.0
  6
BYLAYER
100
AcDbCircle
 10
51.032584813002174
 20
-53.3513392709835372
 30
0.0
 40
0.5
100
AcDbArc
 50
100.0
 51
190.0
  0
ARC
  5
12D
100
AcDbEntity
  8
R_plate
 62
256
370
-1
 48
1.0
  6
BYLAYER
100
AcDbCircle
 10
286.5259924117145829
 20
-53.351339270983523
 30
0.0
 40
0.5
100
AcDbArc
 50
350.0
 51
80.0
  0
ARC
  5
12E
100
AcDbEntity
  8
L_plate
 62
256
370
-1
 48
1.0
  6
BYLAYER
100
AcDbCircle
 10
63.8350856230144998
 20
-51.0939129150393825
 30
0.0
 40
0.5
100
AcDbArc
 50
10.0
 51
100.0
  0
ARC
  5
12F
100
AcDbEntity
  8
R_plate
 62
256
370
-1
 48
1.0
  6
BYLAYER
100
AcDbCircle
 10
273.7234916017022215
 20
-51.093912915039347
 30
0.0
 40
0.5
100
AcDbArc
 50
80.0
 51
170.0
  0
ARC
  5
130
100
AcDbEntity
  8
L_plate
 62
256
370
-1
 48
1.0
  6
BYLAYER
100
AcDbCircle
 10
53.2900111689463074
 20
-66.1538400809958489
 30
0.0
 40
0.5
100
AcDbArc
 50
190.0
 51
280.0
  0
ARC
  5
131
100
AcDbEntity
  8
R_plate
 62
256
370
-1
 48
1.0
  6
BYLAYER
100
AcDbCircle
 10
284.2685660557704068
 20
-66.1538400809957778
 30
0.0
 40
0.5
100
AcDbArc
 50
260.0
 51
350.0
  0
ARC
  5
132
100
AcDbEntity
  8
L_plate
 62
256
370
-1
 48
1.0
  6
BYLAYER
100
AcDbCircle
 10
66.092511978958612
 20
-63.8964137250517368
 30
0.0
 40
0.5
100
AcDbArc
 50
280.0
 51
10.0
  0
ARC
  5
133
100
AcDbEntity
  8
R_plate
 62
256
370
-1
 48
1.0
  6
BYLAYER
100
AcDbCircle
 10
271.4660652457581591
 20
-63.8964137250516515
 30
0.0
 40
0.5
100
AcDbArc
 50
170.0
 51
260.0
  0
CIRCLE
  5
134
100
AcDbEntity
  8
L_plate
 62
256
370
-1
 48
1.0
  6
BYLAYER
100
AcDbCircle
 10
139.3509896996010298
 20
-87.4027396536585854
 30
0.0
 40
3.5
  0
CIRCLE
  5
135
100
AcDbEntity
  8
L_plate
 62
256
370
-1
 48
1.0
  6
BYLAYER
100
AcDbCircle
 10
198.2075875890217276
 20
-197.4027395429704086
 30
0.0
 40
2.0
  0
LINE
  5
136
100
AcDbEntity
  8
L_plate
 62
256
370
-1
 48
1.0
  6
BYLAYER
100
AcDbLine
 10
62.6553632423763744
 20
-0.0236673926184352
 30
0.0
 11
86.5640359965782551
 21
2.0680704333253601
 31
0.0
  0
LINE
  5
137
100
AcDbEntity
  8
L_bottom
 62
256
370
-1
 48
1.0
  6
BYLAYER
100
AcDbLine
 10
62.6553632423763673
 20
-110.0236673926184494
 30
0.0
 11
86.5640359965782551
 21
-107.9319295666746541
 31
0.0
  0
LINE
  5
138
100
AcDbEntity
  8
R_plate
 62
256
370
-1
 48
1.0
  6
BYLAYER
100
AcDbLine
 10
274.9032139823403895
 20
-0.0236673926183455
 30
0.0
 11
250.9945412281385018
 21
2.0680704333258761
 31
0.0
  0
LINE
  5
139
100
AcDbEntity
  8
R_bottom
 62
256
370
-1
 48
1.0
  6
BYLAYER
100
AcDbLine
 10
274.9032139823402758
 20
-110.0236673926183784
 30
0.0
 11
250.9945412281385018
 21
-107.9319295666746399
 31
0.0
  0
LINE
  5
13A
100
AcDbEntity
  8
L_plate
 62
256
370
-1
 48
1.0
  6
BYLAYER
100
AcDbLine
 10
86.5640359965782551
 20
2.0680704333253601
 30
0.0
 11
87.0370497720963101
 21
-3.3385017607726439
 31
0.0
  0
LINE
  5
13B
100
AcDbEntity
  8
L_bottom
 62
256
370
-1
 48
1.0
  6
BYLAYER
100
AcDbLine
 10
86.5640359965782551
 20
-107.9319295666746541
 30
0.0
 11
87.0370497720963101
 21
-113.3385017607726581
 31
0.0
  0
LINE
  5
13C
100
AcDbEntity
  8
R_plate
 62
256
370
-1
 48
1.0
  6
BYLAYER
100
AcDbLine
 10
250.9945412281385018
 20
2.0680704333258761
 30
0.0
 11
250.521527452620461
 21
-3.338501760772556
 31
0.0
  0
LINE
  5
13D
100
AcDbEntity
  8
R_bottom
 62
256
370
-1
 48
1.0
  6
BYLAYER
100
AcDbLine
 10
250.9945412281385018
 20
-107.9319295666746399
 30
0.0
 11
250.521527452620461
 21
-113.3385017607725871
 31
0.0
  0
LINE
  5
13E
100
AcDbEntity
  8
L_plate
 62
256
370
-1
 48
1.0
  6
BYLAYER
100
AcDbLine
 10
87.0370497720963243
 20
-3.3385017607726368
 30
0.0
 11
113.2277771831061699
 21
-3.3385016621462924
 31
0.0
  0
LINE
  5
13F
100
AcDbEntity
  8
L_bottom
 62
256
370
-1
 48
1.0
  6
BYLAYER
100
AcDbLine
 10
87.0370497720963243
 20
-113.3385017607726439
 30
0.0
 11
113.2277771831061699
 21
-113.3385016621462995
 31
0.0
  0
LINE
  5
140
100
AcDbEntity
  8
R_plate
 62
256
370
-1
 48
1.0
  6
BYLAYER
100
AcDbLine
 10
250.5215274526204041
 20
-3.3385017607725596
 30
0.0
 11
224.3308000416105585
 21
-3.3385016621461316
 31
0.0
  0
LINE
  5
141
100
AcDbEntity
  8
R_bottom
 62
256
370
-1
 48
1.0
  6
BYLAYER
100
AcDbLine
 10
250.5215274526204325
 20
-113.3385017607726013
 30
0.0
 11
224.3308000416105585
 21
-113.3385016621462569
 31
0.0
  0
LINE
  5
142
100
AcDbEntity
  8
L_plate
 62
256
370
-1
 48
1.0
  6
BYLAYER
100
AcDbLine
 10
113.2277771831061841
 20
-3.3385016621462924
 30
0.0
 11
113.2277771955778576
 21
-6.6504199214084991
 31
0.0
  0
LINE
  5
143
100
AcDbEntity
  8
L_bottom
 62
256
370
-1
 48
1.0
  6
BYLAYER
100
AcDbLine
 10
113.2277771831061841
 20
-113.3385016621462995
 30
0.0
 11
113.2277771955778576
 21
-116.6504199214085133
 31
0.0
  0
LINE
  5
144
100
AcDbEntity
  8
R_plate
 62
256
370
-1
 48
1.0
  6
BYLAYER
100
AcDbLine
 10
224.3308000416105585
 20
-3.3385016621461316
 30
0.0
 11
224.3308000291388851
 21
-6.6504199214085746
 31
0.0
  0
LINE
  5
145
100
AcDbEntity
  8
R_bottom
 62
256
370
-1
 48
1.0
  6
BYLAYER
100
AcDbLine
 10
224.3308000416105585
 20
-113.3385016621462569
 30
0.0
 11
224.3308000291389135
 21
-116.6504199214084707
 31
0.0
  0
LINE
  5
146
100
AcDbEntity
  8
L_plate
 62
256
370
-1
 48
1.0
  6
BYLAYER
100
AcDbLine
 10
113.2277771955778576
 20
-6.6504199214084991
 30
0.0
 11
147.2277771777857822
 21
-6.6504197933749012
 31
0.0
  0
LINE
  5
147
100
AcDbEntity
  8
L_bottom
 62
256
370
-1
 48
1.0
  6
BYLAYER
100
AcDbLine
 10
113.2277771955778576
 20
-116.6504199214085133
 30
0.0
 11
147.2277771777858106
 21
-116.6504197933749083
 31
0.0
  0
LINE
  5
148
100
AcDbEntity
  8
R_plate
 62
256
370
-1
 48
1.0
  6
BYLAYER
100
AcDbLine
 10
224.3308000291388851
 20
-6.6504199214085746
 30
0.0
 11
190.3308000469309889
 21
-6.6504197933749003
 31
0.0
  0
LINE
  5
149
100
AcDbEntity
  8
R_bottom
 62
256
370
-1
 48
1.0
  6
BYLAYER
100
AcDbLine
 10
224.3308000291389135
 20
-116.6504199214084707
 30
0.0
 11
190.330800046930932
 21
-116.6504197933748372
 31
0.0
  0
LINE
  5
14A
100
AcDbEntity
  8
L_plate
 62
256
370
-1
 48
1.0
  6
BYLAYER
100
AcDbLine
 10
147.2277771777857822
 20
-6.6504197933749012
 30
0.0
 11
147.2277774430397983
 21
-77.0900044233642348
 31
0.0
  0
LINE
  5
14B
100
AcDbEntity
  8
L_bottom
 62
256
370
-1
 48
1.0
  6
BYLAYER
100
AcDbLine
 10
147.2277771777858106
 20
-116.6504197933749083
 30
0.0
 11
147.2277774430398267
 21
-187.0900044233642632
 31
0.0
  0
LINE
  5
14C
100
AcDbEntity
  8
R_plate
 62
256
370
-1
 48
1.0
  6
BYLAYER
100
AcDbLine
 10
190.3308000469309889
 20
-6.6504197933749003
 30
0.0
 11
190.3307997816769443
 21
-77.0900044233641069
 31
0.0
  0
LINE
  5
14D
100
AcDbEntity
  8
R_bottom
 62
256
370
-1
 48
1.0
  6
BYLAYER
100
AcDbLine
 10
190.330800046930932
 20
-116.6504197933748372
 30
0.0
 11
190.3307997816768875
 21
-187.0900044233642063
 31
0.0
  0
LINE
  5
14E
100
AcDbEntity
  8
L_plate
 62
256
370
-1
 48
1.0
  6
BYLAYER
100
AcDbLine
 10
147.2277774430397983
 20
-77.0900044233642348
 30
0.0
 11
154.0479281983296573
 21
-78.9174583434333101
 31
0.0
  0
LINE
  5
14F
100
AcDbEntity
  8
L_bottom
 62
256
370
-1
 48
1.0
  6
BYLAYER
100
AcDbLine
 10
147.2277774430398267
 20
-187.0900044233642632
 30
0.0
 11
154.0479281983296573
 21
-188.9174583434333101
 31
0.0
  0
LINE
  5
150
100
AcDbEntity
  8
R_plate
 62
256
370
-1
 48
1.0
  6
BYLAYER
100
AcDbLine
 10
190.3307997816769443
 20
-77.0900044233641069
 30
0.0
 11
183.5106490263870569
 21
-78.9174583434332106
 31
0.0
  0
LINE
  5
151
100
AcDbEntity
  8
R_bottom
 62
256
370
-1
 48
1.0
  6
BYLAYER
100
AcDbLine
 10
190.3307997816768875
 20
-187.0900044233642063
 30
0.0
 11
183.5106490263870285
 21
-188.9174583434332249
 31
0.0
  0
LINE
  5
152
100
AcDbEntity
  8
L_plate
 62
256
370
-1
 48
1.0
  6
BYLAYER
100
AcDbLine
 10
154.0479281983296858
 20
-78.917458343433168
 30
0.0
 11
147.8362710098264188
 21
-102.0996781523871562
 31
0.0
  0
LINE
  5
153
100
AcDbEntity
  8
L_plate
 62
256
370
-1
 48
1.0
  6
BYLAYER
100
AcDbLine
 10
154.0479281983296573
 20
-188.9174583434333385
 30
0.0
 11
147.8362710098263904
 21
-212.0996781523872983
 31
0.0
  0
LINE
  5
154
100
AcDbEntity
  8
L_plate
 62
256
370
-1
 48
1.0
  6
BYLAYER
100
AcDbLine
 10
183.5106490263870285
 20
-188.9174583434331964
 30
0.0
 11
189.7223063894846007
 21
-212.0996781056047951
 31
0.0
  0
LINE
  5
155
100
AcDbEntity
  8
R_plate
 62
256
370
-1
 48
1.0
  6
BYLAYER
100
AcDbLine
 10
183.5106490263870569
 20
-78.9174583434332106
 30
0.0
 11
189.7223062148902955
 21
-102.0996781523871988
 31
0.0
  0
LINE
  5
156
100
AcDbEntity
  8
L_plate
 62
256
370
-1
 48
1.0
  6
BYLAYER
100
AcDbLine
 10
106.3014604983526397
 20
-90.9704591304771384
 30
0.0
 11
147.836270981584903
 21
-102.099678257785996
 31
0.0
  0
LINE
  5
157
100
AcDbEntity
  8
L_bottom
 62
256
370
-1
 48
1.0
  6
BYLAYER
100
AcDbLine
 10
106.3014604983526397
 20
-200.9704591304771668
 30
0.0
 11
147.836270981584903
 21
-212.099678257785996
 31
0.0
  0
LINE
  5
158
100
AcDbEntity
  8
R_plate
 62
256
370
-1
 48
1.0
  6
BYLAYER
100
AcDbLine
 10
231.2571167263640746
 20
-90.9704591304770389
 30
0.0
 11
189.7223062431317828
 21
-102.0996782577858824
 31
0.0
  0
LINE
  5
159
100
AcDbEntity
  8
R_bottom
 62
256
370
-1
 48
1.0
  6
BYLAYER
100
AcDbLine
 10
231.2571167263641883
 20
-200.9704591304771952
 30
0.0
 11
189.7223062431317544
 21
-212.0996782577858824
 31
0.0
  0
LINE
  5
15A
100
AcDbEntity
  8
L_plate
 62
256
370
-1
 48
1.0
  6
BYLAYER
100
AcDbLine
 10
38.0245452072281154
 20
-11.2523178357358198
 30
0.0
 11
63.248620846351649
 21
-6.8046328350666627
 31
0.0
  0
LINE
  5
15B
100
AcDbEntity
  8
L_bottom
 62
256
370
-1
 48
1.0
  6
BYLAYER
100
AcDbLine
 10
38.0245452072281083
 20
-121.2523178357358233
 30
0.0
 11
63.2486208463516419
 21
-116.8046328350666698
 31
0.0
  0
LINE
  5
15C
100
AcDbEntity
  8
R_plate
 62
256
370
-1
 48
1.0
  6
BYLAYER
100
AcDbLine
 10
299.5340320174885846
 20
-11.2523178357357736
 30
0.0
 11
274.3099563783650865
 21
-6.8046328350665322
 31
0.0
  0
LINE
  5
15D
100
AcDbEntity
  8
R_bottom
 62
256
370
-1
 48
1.0
  6
BYLAYER
100
AcDbLine
 10
299.5340320174886983
 20
-121.2523178357357807
 30
0.0
 11
274.3099563783650865
 21
-116.8046328350665704
 31
0.0
  0
LINE
  5
15E
100
AcDbEntity
  8
L_plate
 62
256
370
-1
 48
1.0
  6
BYLAYER
100
AcDbLine
 10
62.6553632423763744
 20
-0.0236673926184352
 30
0.0
 11
63.248620846351649
 21
-6.8046328350666627
 31
0.0
  0
LINE
  5
15F
100
AcDbEntity
  8
L_bottom
 62
256
370
-1
 48
1.0
  6
BYLAYER
100
AcDbLine
 10
62.6553632423763673
 20
-110.0236673926184494
 30
0.0
 11
63.2486208463516419
 21
-116.8046328350666698
 31
0.0
  0
LINE
  5
160
100
AcDbEntity
  8
R_plate
 62
256
370
-1
 48
1.0
  6
BYLAYER
100
AcDbLine
 10
274.9032139823403895
 20
-0.0236673926183455
 30
0.0
 11
274.3099563783650865
 21
-6.8046328350665322
 31
0.0
  0
LINE
  5
161
100
AcDbEntity
  8
R_bottom
 62
256
370
-1
 48
1.0
  6
BYLAYER
100
AcDbLine
 10
274.9032139823402758
 20
-110.0236673926183784
 30
0.0
 11
274.3099563783650865
 21
-116.8046328350665704
 31
0.0
  0
LINE
  5
162
100
AcDbEntity
  8
L_plate
 62
256
370
-1
 48
1.0
  6
BYLAYER
100
AcDbLine
 10
22.5423228451404469
 20
-29.2751780169617355
 30
0.0
 11
35.0993585985411798
 21
-25.9105304393173803
 31
0.0
  0
LINE
  5
163
100
AcDbEntity
  8
R_plate
 62
256
370
-1
 48
1.0
  6
BYLAYER
100
AcDbLine
 10
315.0162543795762531
 20
-29.2751780169616893
 30
0.0
 11
302.4592186261755842
 21
-25.9105304393173412
 31
0.0
  0
LINE
  5
164
100
AcDbEntity
  8
L_plate
 62
256
370
-1
 48
1.0
  6
BYLAYER
100
AcDbLine
 10
26.1657893858956143
 20
-42.7981395506101805
 30
0.0
 11
38.7228251392963543
 21
-39.4334919729658679
 31
0.0
  0
LINE
  5
165
100
AcDbEntity
  8
R_plate
 62
256
370
-1
 48
1.0
  6
BYLAYER
100
AcDbLine
 10
311.3927878388211639
 20
-42.7981395506101236
 30
0.0
 11
298.8357520854203813
 21
-39.4334919729658466
 31
0.0
  0
LINE
  5
166
100
AcDbEntity
  8
L_plate
 62
256
370
-1
 48
1.0
  6
BYLAYER
100
AcDbLine
 10
22.1887694365720023
 20
-29.8875503886409959
 30
0.0
 11
25.5534170142163504
 21
-42.4445861420417216
 31
0.0
  0
LINE
  5
167
100
AcDbEntity
  8
R_plate
 62
256
370
-1
 48
1.0
  6
BYLAYER
100
AcDbLine
 10
315.3698077881447261
 20
-29.8875503886409533
 30
0.0
 11
312.0051602105004349
 21
-42.4445861420416932
 31
0.0
  0
LINE
  5
168
100
AcDbEntity
  8
L_plate
 62
256
370
-1
 48
1.0
  6
BYLAYER
100
AcDbLine
 10
35.7117309702204437
 20
-26.2640838478858356
 30
0.0
 11
39.0763785478647918
 21
-38.8211196012865756
 31
0.0
  0
LINE
  5
169
100
AcDbEntity
  8
R_plate
 62
256
370
-1
 48
1.0
  6
BYLAYER
100
AcDbLine
 10
301.8468462544963131
 20
-26.2640838478858214
 30
0.0
 11
298.4821986768519082
 21
-38.8211196012865187
 31
0.0
  0
ARC
  5
16A
100
AcDbEntity
  8
L_plate
 62
256
370
-1
 48
1.0
  6
BYLAYER
100
AcDbCircle
 10
22.6717323808633751
 20
-29.7581409525375378
 30
0.0
 40
0.5
100
AcDbArc
 50
104.9999999999999858
 51
195.0000000000000284
  0
ARC
  5
16B
100
AcDbEntity
  8
R_plate
 62
256
370
-1
 48
1.0
  6
BYLAYER
100
AcDbCircle
 10
314.886844843853396
 20
-29.7581409525374809
 30
0.0
 40
0.5
100
AcDbArc
 50
345.0
 51
75.0
  0
ARC
  5
16C
100
AcDbEntity
  8
L_plate
 62
256
370
-1
 48
1.0
  6
BYLAYER
100
AcDbCircle
 10
35.2287680346446379
 20
-26.3934933836087566
 30
0.0
 40
0.5
100
AcDbArc
 50
15.0
 51
104.9999999999999858
  0
ARC
  5
16D
100
AcDbEntity
  8
R_plate
 62
256
370
-1
 48
1.0
  6
BYLAYER
100
AcDbCircle
 10
302.3298091900720692
 20
-26.393493383608714
 30
0.0
 40
0.5
100
AcDbArc
 50
75.0
 51
165.0
  0
ARC
  5
16E
100
AcDbEntity
  8
L_plate
 62
256
370
-1
 48
1.0
  6
BYLAYER
100
AcDbCircle
 10
26.0363799497921491
 20
-42.315176606318829
 30
0.0
 40
0.5
100
AcDbArc
 50
195.0000000000000284
 51
285.0
  0
ARC
  5
16F
100
AcDbEntity
  8
R_plate
 62
256
370
-1
 48
1.0
  6
BYLAYER
100
AcDbCircle
 10
311.5221972749245651
 20
-42.3151766063187864
 30
0.0
 40
0.5
100
AcDbArc
 50
255.0
 51
345.0
  0
ARC
  5
170
100
AcDbEntity
  8
L_plate
 62
256
370
-1
 48
1.0
  6
BYLAYER
100
AcDbCircle
 10
38.593415603573419
 20
-38.9505290373900337
 30
0.0
 40
0.5
100
AcDbArc
 50
285.0
 51
15.0
  0
ARC
  5
171
100
AcDbEntity
  8
R_plate
 62
256
370
-1
 48
1.0
  6
BYLAYER
100
AcDbCircle
 10
298.965161621143352
 20
-38.9505290373899911
 30
0.0
 40
0.5
100
AcDbArc
 50
165.0
 51
255.0
  0
LINE
  5
172
100
AcDbEntity
  8
L_plate
 62
256
370
-1
 48
1.0
  6
BYLAYER
100
AcDbLine
 10
6.6066872674572519
 20
-43.4061243890860098
 30
0.0
 11
19.1637230208579865
 21
-40.0414768114416688
 31
0.0
  0
LINE
  5
173
100
AcDbEntity
  8
R_plate
 62
256
370
-1
 48
1.0
  6
BYLAYER
100
AcDbLine
 10
330.9518899572594819
 20
-43.40612438908596
 30
0.0
 11
318.3948542038586993
 21
-40.0414768114416262
 31
0.0
  0
LINE
  5
174
100
AcDbEntity
  8
L_plate
 62
256
370
-1
 48
1.0
  6
BYLAYER
100
AcDbLine
 10
10.2301538082124193
 20
-56.9290859227344512
 30
0.0
 11
22.7871895616131539
 21
-53.5644383450901032
 31
0.0
  0
LINE
  5
175
100
AcDbEntity
  8
R_plate
 62
256
370
-1
 48
1.0
  6
BYLAYER
100
AcDbLine
 10
327.328423416504279
 20
-56.9290859227344157
 30
0.0
 11
314.7713876631036101
 21
-53.5644383450900889
 31
0.0
  0
LINE
  5
176
100
AcDbEntity
  8
L_plate
 62
256
370
-1
 48
1.0
  6
BYLAYER
100
AcDbLine
 10
6.2531338588888072
 20
-44.0184967607652808
 30
0.0
 11
9.6177814365331553
 21
-56.5755325141660066
 31
0.0
  0
LINE
  5
177
100
AcDbEntity
  8
R_plate
 62
256
370
-1
 48
1.0
  6
BYLAYER
100
AcDbLine
 10
331.3054433658279549
 20
-44.0184967607652453
 30
0.0
 11
327.94079578818355
 21
-56.5755325141659782
 31
0.0
  0
LINE
  5
178
100
AcDbEntity
  8
L_plate
 62
256
370
-1
 48
1.0
  6
BYLAYER
100
AcDbLine
 10
19.7760953925372505
 20
-40.3950302200101063
 30
0.0
 11
23.1407429701816056
 21
-52.9520659734108392
 31
0.0
  0
LINE
  5
179
100
AcDbEntity
  8
R_plate
 62
256
370
-1
 48
1.0
  6
BYLAYER
100
AcDbLine
 10
317.7824818321794282
 20
-40.3950302200100708
 30
0.0
 11
314.417834254535137
 21
-52.9520659734108179
 31
0.0
  0
ARC
  5
17A
100
AcDbEntity
  8
L_plate
 62
256
370
-1
 48
1.0
  6
BYLAYER
100
AcDbCircle
 10
6.7360968031801836
 20
-43.8890873246618156
 30
0.0
 40
0.5
100
AcDbArc
 50
104.9999999999999858
 51
195.0000000000000284
  0
ARC
  5
17B
100
AcDbEntity
  8
R_plate
 62
256
370
-1
 48
1.0
  6
BYLAYER
100
AcDbCircle
 10
330.8224804215365111
 20
-43.889087324661773
 30
0.0
 40
0.5
100
AcDbArc
 50
345.0
 51
75.0
  0
ARC
  5
17C
100
AcDbEntity
  8
L_plate
 62
256
370
-1
 48
1.0
  6
BYLAYER
100
AcDbCircle
 10
19.2931324569614517
 20
-40.5244397557330345
 30
0.0
 40
0.5
100
AcDbArc
 50
15.0
 51
104.9999999999999858
  0
ARC
  5
17D
100
AcDbEntity
  8
R_plate
 62
256
370
-1
 48
1.0
  6
BYLAYER
100
AcDbCircle
 10
318.265444767755298
 20
-40.5244397557329776
 30
0.0
 40
0.5
100
AcDbArc
 50
75.0
 51
165.0
  0
ARC
  5
17E
100
AcDbEntity
  8
L_plate
 62
256
370
-1
 48
1.0
  6
BYLAYER
100
AcDbCircle
 10
10.1007443721089682
 20
-56.4461229784430714
 30
0.0
 40
0.5
100
AcDbArc
 50
195.0000000000000284
 51
285.0
  0
ARC
  5
17F
100
AcDbEntity
  8
R_plate
 62
256
370
-1
 48
1.0
  6
BYLAYER
100
AcDbCircle
 10
327.4578328526077939
 20
-56.4461229784430429
 30
0.0
 40
0.5
100
AcDbArc
 50
255.0
 51
345.0
  0
ARC
  5
180
100
AcDbEntity
  8
L_plate
 62
256
370
-1
 48
1.0
  6
BYLAYER
100
AcDbCircle
 10
22.6577800258902329
 20
-53.0814754095142973
 30
0.0
 40
0.5
100
AcDbArc
 50
285.0
 51
15.0
  0
ARC
  5
181
100
AcDbEntity
  8
R_plate
 62
256
370
-1
 48
1.0
  6
BYLAYER
100
AcDbCircle
 10
314.9007971988264671
 20
-53.0814754095142618
 30
0.0
 40
0.5
100
AcDbArc
 50
165.0
 51
255.0
  0
LINE
  5
182
100
AcDbEntity
  8
L_plate
 62
256
370
-1
 48
1.0
  6
BYLAYER
100
AcDbLine
 10
27.4728255705562106
 20
-47.6760650202359244
 30
0.0
 11
40.0298613239569505
 21
-44.3114174425915479
 31
0.0
  0
LINE
  5
183
100
AcDbEntity
  8
R_plate
 62
256
370
-1
 48
1.0
  6
BYLAYER
100
AcDbLine
 10
310.0857516541605037
 20
-47.676065020235896
 30
0.0
 11
297.5287159007598348
 21
-44.3114174425915337
 31
0.0
  0
LINE
  5
184
100
AcDbEntity
  8
L_plate
 62
256
370
-1
 48
1.0
  6
BYLAYER
100
AcDbLine
 10
31.0962921113113708
 20
-61.199026553884373
 30
0.0
 11
43.6533278647121179
 21
-57.8343789762400107
 31
0.0
  0
LINE
  5
185
100
AcDbEntity
  8
R_plate
 62
256
370
-1
 48
1.0
  6
BYLAYER
100
AcDbLine
 10
306.4622851134054144
 20
-61.1990265538843303
 30
0.0
 11
293.9052493600046319
 21
-57.8343789762399894
 31
0.0
  0
LINE
  5
186
100
AcDbEntity
  8
L_plate
 62
256
370
-1
 48
1.0
  6
BYLAYER
100
AcDbLine
 10
27.1192721619877659
 20
-48.2884373919151741
 30
0.0
 11
30.4839197396321211
 21
-60.8454731453159212
 31
0.0
  0
LINE
  5
187
100
AcDbEntity
  8
R_plate
 62
256
370
-1
 48
1.0
  6
BYLAYER
100
AcDbLine
 10
310.4393050627289767
 20
-48.2884373919151244
 30
0.0
 11
307.0746574850846855
 21
-60.8454731453158857
 31
0.0
  0
LINE
  5
188
100
AcDbEntity
  8
L_plate
 62
256
370
-1
 48
1.0
  6
BYLAYER
100
AcDbLine
 10
40.6422336956362074
 20
-44.6649708511599712
 30
0.0
 11
44.0068812732805554
 21
-57.2220066045607538
 31
0.0
  0
LINE
  5
189
100
AcDbEntity
  8
R_plate
 62
256
370
-1
 48
1.0
  6
BYLAYER
100
AcDbLine
 10
296.9163435290805637
 20
-44.6649708511599357
 30
0.0
 11
293.5516959514361588
 21
-57.2220066045607112
 31
0.0
  0
ARC
  5
18A
100
AcDbEntity
  8
L_plate
 62
256
370
-1
 48
1.0
  6
BYLAYER
100
AcDbCircle
 10
27.6022351062791458
 20
-48.159027955811716
 30
0.0
 40
0.5
100
AcDbArc
 50
104.9999999999999858
 51
195.0000000000000284
  0
ARC
  5
18B
100
AcDbEntity
  8
R_plate
 62
256
370
-1
 48
1.0
  6
BYLAYER
100
AcDbCircle
 10
309.9563421184376466
 20
-48.1590279558116876
 30
0.0
 40
0.5
100
AcDbArc
 50
345.0
 51
75.0
  0
ARC
  5
18C
100
AcDbEntity
  8
L_plate
 62
256
370
-1
 48
1.0
  6
BYLAYER
100
AcDbCircle
 10
40.1592707600604157
 20
-44.7943803868829278
 30
0.0
 40
0.5
100
AcDbArc
 50
15.0
 51
104.9999999999999858
  0
ARC
  5
18D
100
AcDbEntity
  8
R_plate
 62
256
370
-1
 48
1.0
  6
BYLAYER
100
AcDbCircle
 10
297.3993064646563198
 20
-44.7943803868829207
 30
0.0
 40
0.5
100
AcDbArc
 50
75.0
 51
165.0
  0
ARC
  5
18E
100
AcDbEntity
  8
L_plate
 62
256
370
-1
 48
1.0
  6
BYLAYER
100
AcDbCircle
 10
30.9668826752079198
 20
-60.716063609592986
 30
0.0
 40
0.5
100
AcDbArc
 50
195.0000000000000284
 51
285.0
  0
ARC
  5
18F
100
AcDbEntity
  8
R_plate
 62
256
370
-1
 48
1.0
  6
BYLAYER
100
AcDbCircle
 10
306.5916945495088157
 20
-60.7160636095929718
 30
0.0
 40
0.5
100
AcDbArc
 50
255.0
 51
345.0
  0
ARC
  5
190
100
AcDbEntity
  8
L_plate
 62
256
370
-1
 48
1.0
  6
BYLAYER
100
AcDbCircle
 10
43.5239183289891827
 20
-57.3514160406642119
 30
0.0
 40
0.5
100
AcDbArc
 50
285.0
 51
15.0
  0
ARC
  5
191
100
AcDbEntity
  8
R_plate
 62
256
370
-1
 48
1.0
  6
BYLAYER
100
AcDbCircle
 10
294.0346588957276026
 20
-57.3514160406641835
 30
0.0
 40
0.5
100
AcDbArc
 50
165.0
 51
255.0
  0
LINE
  5
192
100
AcDbEntity
  8
L_plate
 62
256
370
-1
 48
1.0
  6
BYLAYER
100
AcDbLine
 10
11.5371899928730226
 20
-61.8070113923601809
 30
0.0
 11
24.0942257462737501
 21
-58.44236381471584
 31
0.0
  0
LINE
  5
193
100
AcDbEntity
  8
R_plate
 62
256
370
-1
 48
1.0
  6
BYLAYER
100
AcDbLine
 10
326.0213872318437325
 20
-61.8070113923601596
 30
0.0
 11
313.4643514784429499
 21
-58.4423638147158258
 31
0.0
  0
LINE
  5
194
100
AcDbEntity
  8
L_plate
 62
256
370
-1
 48
1.0
  6
BYLAYER
100
AcDbLine
 10
15.1606565336281758
 20
-75.3299729260086224
 30
0.0
 11
27.7176922870289175
 21
-71.9653253483642743
 31
0.0
  0
LINE
  5
195
100
AcDbEntity
  8
R_plate
 62
256
370
-1
 48
1.0
  6
BYLAYER
100
AcDbLine
 10
322.3979206910885296
 20
-75.3299729260085797
 30
0.0
 11
309.840884937687747
 21
-71.9653253483642033
 31
0.0
  0
LINE
  5
196
100
AcDbEntity
  8
L_plate
 62
256
370
-1
 48
1.0
  6
BYLAYER
100
AcDbLine
 10
11.1836365843045709
 20
-62.4193837640394449
 30
0.0
 11
14.5482841619489047
 21
-74.9764195174401777
 31
0.0
  0
LINE
  5
197
100
AcDbEntity
  8
R_plate
 62
256
370
-1
 48
1.0
  6
BYLAYER
100
AcDbLine
 10
326.3749406404122055
 20
-62.4193837640394165
 30
0.0
 11
323.0102930627678006
 21
-74.9764195174401351
 31
0.0
  0
LINE
  5
198
100
AcDbEntity
  8
L_plate
 62
256
370
-1
 48
1.0
  6
BYLAYER
100
AcDbLine
 10
24.7065981179530212
 20
-58.7959172232842704
 30
0.0
 11
28.0712456955973479
 21
-71.3529529766850317
 31
0.0
  0
LINE
  5
199
100
AcDbEntity
  8
R_plate
 62
256
370
-1
 48
1.0
  6
BYLAYER
100
AcDbLine
 10
312.8519791067636788
 20
-58.7959172232842278
 30
0.0
 11
309.4873315291193876
 21
-71.352952976684989
 31
0.0
  0
ARC
  5
19A
100
AcDbEntity
  8
L_plate
 62
256
370
-1
 48
1.0
  6
BYLAYER
100
AcDbCircle
 10
11.6665995285959365
 20
-62.2899743279359868
 30
0.0
 40
0.5
100
AcDbArc
 50
104.9999999999999858
 51
195.0000000000000284
  0
ARC
  5
19B
100
AcDbEntity
  8
R_plate
 62
256
370
-1
 48
1.0
  6
BYLAYER
100
AcDbCircle
 10
325.8919776961207617
 20
-62.2899743279359583
 30
0.0
 40
0.5
100
AcDbArc
 50
345.0
 51
75.0
  0
ARC
  5
19C
100
AcDbEntity
  8
L_plate
 62
256
370
-1
 48
1.0
  6
BYLAYER
100
AcDbCircle
 10
24.2236351823772154
 20
-58.9253267590072056
 30
0.0
 40
0.5
100
AcDbArc
 50
15.0
 51
104.9999999999999858
  0
ARC
  5
19D
100
AcDbEntity
  8
R_plate
 62
256
370
-1
 48
1.0
  6
BYLAYER
100
AcDbCircle
 10
313.3349420423395486
 20
-58.9253267590071701
 30
0.0
 40
0.5
100
AcDbArc
 50
75.0
 51
165.0
  0
ARC
  5
19E
100
AcDbEntity
  8
L_plate
 62
256
370
-1
 48
1.0
  6
BYLAYER
100
AcDbCircle
 10
15.0312470975247319
 20
-74.8470099817172354
 30
0.0
 40
0.5
100
AcDbArc
 50
195.0000000000000284
 51
285.0
  0
ARC
  5
19F
100
AcDbEntity
  8
R_plate
 62
256
370
-1
 48
1.0
  6
BYLAYER
100
AcDbCircle
 10
322.5273301271920445
 20
-74.8470099817171786
 30
0.0
 40
0.5
100
AcDbArc
 50
255.0
 51
345.0
  0
ARC
  5
1A0
100
AcDbEntity
  8
L_plate
 62
256
370
-1
 48
1.0
  6
BYLAYER
100
AcDbCircle
 10
27.5882827513059894
 20
-71.4823624127884614
 30
0.0
 40
0.5
100
AcDbArc
 50
285.0
 51
15.0
  0
ARC
  5
1A1
100
AcDbEntity
  8
R_plate
 62
256
370
-1
 48
1.0
  6
BYLAYER
100
AcDbCircle
 10
309.9702944734107177
 20
-71.4823624127884187
 30
0.0
 40
0.5
100
AcDbArc
 50
165.0
 51
255.0
  0
LINE
  5
1A2
100
AcDbEntity
  8
L_plate
 62
256
370
-1
 48
1.0
  6
BYLAYER
100
AcDbLine
 10
32.4033283955914513
 20
-66.0769520147945002
 30
0.0
 11
44.960364148992177
 21
-62.7123044371501592
 31
0.0
  0
LINE
  5
1A3
100
AcDbEntity
  8
R_plate
 62
256
370
-1
 48
1.0
  6
BYLAYER
100
AcDbLine
 10
305.1552488291252985
 20
-66.0769520147944434
 30
0.0
 11
292.5982130757246296
 21
-62.712304437150145
 31
0.0
  0
LINE
  5
1A4
100
AcDbEntity
  8
L_plate
 62
256
370
-1
 48
1.0
  6
BYLAYER
100
AcDbLine
 10
36.0267949363466045
 20
-79.5999135484429416
 30
0.0
 11
48.5838306897473302
 21
-76.235265970798622
 31
0.0
  0
LINE
  5
1A5
100
AcDbEntity
  8
R_plate
 62
256
370
-1
 48
1.0
  6
BYLAYER
100
AcDbLine
 10
301.5317822883700956
 20
-79.5999135484428564
 30
0.0
 11
288.9747465349694266
 21
-76.2352659707985794
 31
0.0
  0
LINE
  5
1A6
100
AcDbEntity
  8
L_plate
 62
256
370
-1
 48
1.0
  6
BYLAYER
100
AcDbLine
 10
32.0497749870230066
 20
-66.6893243864737713
 30
0.0
 11
35.4144225646673476
 21
-79.246360139874497
 31
0.0
  0
LINE
  5
1A7
100
AcDbEntity
  8
R_plate
 62
256
370
-1
 48
1.0
  6
BYLAYER
100
AcDbLine
 10
305.5088022376937715
 20
-66.6893243864737286
 30
0.0
 11
302.1441546600493666
 21
-79.2463601398744686
 31
0.0
  0
LINE
  5
1A8
100
AcDbEntity
  8
L_plate
 62
256
370
-1
 48
1.0
  6
BYLAYER
100
AcDbLine
 10
45.572736520671441
 20
-63.0658578457186039
 30
0.0
 11
48.9373840983157891
 21
-75.6228935991193509
 31
0.0
  0
LINE
  5
1A9
100
AcDbEntity
  8
R_plate
 62
256
370
-1
 48
1.0
  6
BYLAYER
100
AcDbLine
 10
291.9858407040452448
 20
-63.0658578457185328
 30
0.0
 11
288.6211931264009536
 21
-75.6228935991192941
 31
0.0
  0
ARC
  5
1AA
100
AcDbEntity
  8
L_plate
 62
256
370
-1
 48
1.0
  6
BYLAYER
100
AcDbCircle
 10
32.5327379313143865
 20
-66.5599149503703131
 30
0.0
 40
0.5
100
AcDbArc
 50
104.9999999999999858
 51
195.0000000000000284
  0
ARC
  5
1AB
100
AcDbEntity
  8
R_plate
 62
256
370
-1
 48
1.0
  6
BYLAYER
100
AcDbCircle
 10
305.0258392934023277
 20
-66.5599149503702705
 30
0.0
 40
0.5
100
AcDbArc
 50
345.0
 51
75.0
  0
ARC
  5
1AC
100
AcDbEntity
  8
L_plate
 62
256
370
-1
 48
1.0
  6
BYLAYER
100
AcDbCircle
 10
45.0897735850956209
 20
-63.1952673814415675
 30
0.0
 40
0.5
100
AcDbArc
 50
15.0
 51
104.9999999999999858
  0
ARC
  5
1AD
100
AcDbEntity
  8
R_plate
 62
256
370
-1
 48
1.0
  6
BYLAYER
100
AcDbCircle
 10
292.4688036396211146
 20
-63.1952673814415178
 30
0.0
 40
0.5
100
AcDbArc
 50
75.0
 51
165.0
  0
ARC
  5
1AE
100
AcDbEntity
  8
L_plate
 62
256
370
-1
 48
1.0
  6
BYLAYER
100
AcDbCircle
 10
35.8973855002431534
 20
-79.1169506041515831
 30
0.0
 40
0.5
100
AcDbArc
 50
195.0000000000000284
 51
285.0
  0
ARC
  5
1AF
100
AcDbEntity
  8
R_plate
 62
256
370
-1
 48
1.0
  6
BYLAYER
100
AcDbCircle
 10
301.6611917244736105
 20
-79.1169506041515405
 30
0.0
 40
0.5
100
AcDbArc
 50
255.0
 51
345.0
  0
ARC
  5
1B0
100
AcDbEntity
  8
L_plate
 62
256
370
-1
 48
1.0
  6
BYLAYER
100
AcDbCircle
 10
48.4544211540244305
 20
-75.7523030352227806
 30
0.0
 40
0.5
100
AcDbArc
 50
285.0
 51
15.0
  0
ARC
  5
1B1
100
AcDbEntity
  8
R_plate
 62
256
370
-1
 48
1.0
  6
BYLAYER
100
AcDbCircle
 10
289.1041560706922837
 20
-75.7523030352227238
 30
0.0
 40
0.5
100
AcDbArc
 50
165.0
 51
255.0
  0
LINE
  5
1B2
100
AcDbEntity
  8
L_plate
 62
256
370
-1
 48
1.0
  6
BYLAYER
100
AcDbLine
 10
43.9415502484838285
 20
-16.0154686610824832
 30
0.0
 11
46.1989764960929321
 21
-28.817969380190938
 31
0.0
  0
LINE
  5
1B3
100
AcDbEntity
  8
R_plate
 62
256
370
-1
 48
1.0
  6
BYLAYER
100
AcDbLine
 10
293.6170269762329781
 20
-16.0154686610824513
 30
0.0
 11
291.3596007286238319
 21
-28.8179693801908527
 31
0.0
  0
LINE
  5
1B4
100
AcDbEntity
  8
L_plate
 62
256
370
-1
 48
1.0
  6
BYLAYER
100
AcDbLine
 10
15.9356355776831844
 20
-25.8690536278757364
 30
0.0
 11
39.4890496383287228
 21
-19.5579353734785499
 31
0.0
  0
LINE
  5
1B5
100
AcDbEntity
  8
L_bottom
 62
256
370
-1
 48
1.0
  6
BYLAYER
100
AcDbLine
 10
15.9356355776831791
 20
-135.8690536278757293
 30
0.0
 11
39.4890496383287157
 21
-129.557935373478557
 31
0.0
  0
LINE
  5
1B6
100
AcDbEntity
  8
R_plate
 62
256
370
-1
 48
1.0
  6
BYLAYER
100
AcDbLine
 10
321.6229416470335991
 20
-25.8690536278756937
 30
0.0
 11
298.0695275863880624
 21
-19.5579353734785215
 31
0.0
  0
LINE
  5
1B7
100
AcDbEntity
  8
R_bottom
 62
256
370
-1
 48
1.0
  6
BYLAYER
100
AcDbLine
 10
321.6229416470335991
 20
-135.8690536278756724
 30
0.0
 11
298.0695275863880624
 21
-129.557935373478557
 31
0.0
  0
LINE
  5
1B8
100
AcDbEntity
  8
L_plate
 62
256
370
-1
 48
1.0
  6
BYLAYER
100
AcDbLine
 10
0.0
 20
-40.0
 30
0.0
 11
18.4008869959887349
 21
-35.0694972067118869
 31
0.0
  0
LINE
  5
1B9
100
AcDbEntity
  8
L_bottom
 62
256
370
-1
 48
1.0
  6
BYLAYER
100
AcDbLine
 10
0.0
 20
-150.0
 30
0.0
 11
18.4008869959887278
 21
-145.0694972067119011
 31
0.0
  0
LINE
  5
1BA
100
AcDbEntity
  8
R_plate
 62
256
370
-1
 48
1.0
  6
BYLAYER
100
AcDbLine
 10
337.5585772247167142
 20
-39.9999999999999645
 30
0.0
 11
319.1576902287280291
 21
-35.0694972067118513
 31
0.0
  0
LINE
  5
1BB
100
AcDbEntity
  8
R_bottom
 62
256
370
-1
 48
1.0
  6
BYLAYER
100
AcDbLine
 10
337.5585772247167142
 20
-150.0
 30
0.0
 11
319.1576902287280291
 21
-145.0694972067119011
 31
0.0
  0
LINE
  5
1BC
100
AcDbEntity
  8
L_plate
 62
256
370
-1
 48
1.0
  6
BYLAYER
100
AcDbLine
 10
0.0
 20
-40.0
 30
0.0
 11
11.142159838010036
 21
-81.5831067674413362
 31
0.0
  0
LINE
  5
1BD
100
AcDbEntity
  8
L_bottom
 62
256
370
-1
 48
1.0
  6
BYLAYER
100
AcDbLine
 10
0.0
 20
-150.0
 30
0.0
 11
11.1421598380100306
 21
-191.5831067674413646
 31
0.0
  0
LINE
  5
1BE
100
AcDbEntity
  8
R_plate
 62
256
370
-1
 48
1.0
  6
BYLAYER
100
AcDbLine
 10
337.5585772247167142
 20
-39.9999999999999645
 30
0.0
 11
326.416417386706712
 21
-81.5831067674412793
 31
0.0
  0
LINE
  5
1BF
100
AcDbEntity
  8
R_bottom
 62
256
370
-1
 48
1.0
  6
BYLAYER
100
AcDbLine
 10
337.5585772247167142
 20
-150.0
 30
0.0
 11
326.4164173867068257
 21
-191.5831067674413362
 31
0.0
  0
LINE
  5
1C0
100
AcDbEntity
  8
L_plate
 62
256
370
-1
 48
1.0
  6
BYLAYER
100
AcDbLine
 10
11.1421598380100288
 20
-81.5831067674413077
 30
0.0
 11
29.5430467988296854
 21
-76.6526039835767108
 31
0.0
  0
LINE
  5
1C1
100
AcDbEntity
  8
L_bottom
 62
256
370
-1
 48
1.0
  6
BYLAYER
100
AcDbLine
 10
11.1421598380100164
 20
-191.5831067674413077
 30
0.0
 11
29.5430467988296783
 21
-186.6526039835767108
 31
0.0
  0
LINE
  5
1C2
100
AcDbEntity
  8
R_plate
 62
256
370
-1
 48
1.0
  6
BYLAYER
100
AcDbLine
 10
326.416417386706712
 20
-81.5831067674412509
 30
0.0
 11
308.0155304258870501
 21
-76.6526039835766539
 31
0.0
  0
LINE
  5
1C3
100
AcDbEntity
  8
R_bottom
 62
256
370
-1
 48
1.0
  6
BYLAYER
100
AcDbLine
 10
326.4164173867068257
 20
-191.5831067674412793
 30
0.0
 11
308.0155304258870501
 21
-186.6526039835766824
 31
0.0
  0
LINE
  5
1C4
100
AcDbEntity
  8
L_plate
 62
256
370
-1
 48
1.0
  6
BYLAYER
100
AcDbLine
 10
32.0082981755813591
 20
-85.8530474073317578
 30
0.0
 11
55.1905179572045839
 21
-79.6413903598846105
 31
0.0
  0
LINE
  5
1C5
100
AcDbEntity
  8
L_bottom
 62
256
370
-1
 48
1.0
  6
BYLAYER
100
AcDbLine
 10
32.008298175581352
 20
-195.8530474073317578
 30
0.0
 11
55.1905179572045768
 21
-189.6413903598846389
 31
0.0
  0
LINE
  5
1C6
100
AcDbEntity
  8
R_plate
 62
256
370
-1
 48
1.0
  6
BYLAYER
100
AcDbLine
 10
305.5502790491353835
 20
-85.8530474073317151
 30
0.0
 11
282.3680592675121943
 21
-79.6413903598845536
 31
0.0
  0
LINE
  5
1C7
100
AcDbEntity
  8
R_bottom
 62
256
370
-1
 48
1.0
  6
BYLAYER
100
AcDbLine
 10
305.5502790491353835
 20
-195.8530474073317578
 30
0.0
 11
282.3680592675121943
 21
-189.6413903598846105
 31
0.0
  0
LINE
  5
1C8
100
AcDbEntity
  8
L_plate
 62
256
370
-1
 48
1.0
  6
BYLAYER
100
AcDbLine
 10
29.5430467988296641
 20
-76.6526039835767676
 30
0.0
 11
32.0082981755813591
 21
-85.8530474073317578
 31
0.0
  0
LINE
  5
1C9
100
AcDbEntity
  8
L_bottom
 62
256
370
-1
 48
1.0
  6
BYLAYER
100
AcDbLine
 10
29.543046798829657
 20
-186.6526039835767676
 30
0.0
 11
32.008298175581352
 21
-195.8530474073317578
 31
0.0
  0
LINE
  5
1CA
100
AcDbEntity
  8
R_plate
 62
256
370
-1
 48
1.0
  6
BYLAYER
100
AcDbLine
 10
308.0155304258870501
 20
-76.6526039835766966
 30
0.0
 11
305.5502790491353835
 21
-85.8530474073317151
 31
0.0
  0
LINE
  5
1CB
100
AcDbEntity
  8
R_bottom
 62
256
370
-1
 48
1.0
  6
BYLAYER
100
AcDbLine
 10
308.0155304258870501
 20
-186.6526039835767392
 30
0.0
 11
305.5502790491353835
 21
-195.8530474073317578
 31
0.0
  0
LINE
  5
1CC
100
AcDbEntity
  8
L_plate
 62
256
370
-1
 48
1.0
  6
BYLAYER
100
AcDbLine
 10
15.9356355776831879
 20
-25.8690536278757364
 30
0.0
 11
18.4008869959887349
 21
-35.0694972067118869
 31
0.0
  0
LINE
  5
1CD
100
AcDbEntity
  8
L_bottom
 62
256
370
-1
 48
1.0
  6
BYLAYER
100
AcDbLine
 10
15.9356355776831862
 20
-135.8690536278757293
 30
0.0
 11
18.4008869959887278
 21
-145.0694972067119011
 31
0.0
  0
LINE
  5
1CE
100
AcDbEntity
  8
R_plate
 62
256
370
-1
 48
1.0
  6
BYLAYER
100
AcDbLine
 10
321.6229416470335991
 20
-25.8690536278756937
 30
0.0
 11
319.1576902287280291
 21
-35.0694972067118513
 31
0.0
  0
LINE
  5
1CF
100
AcDbEntity
  8
R_bottom
 62
256
370
-1
 48
1.0
  6
BYLAYER
100
AcDbLine
 10
321.6229416470335991
 20
-135.8690536278756724
 30
0.0
 11
319.1576902287280291
 21
-145.0694972067119011
 31
0.0
  0
LINE
  5
1D0
100
AcDbEntity
  8
L_plate
 62
256
370
-1
 48
1.0
  6
BYLAYER
100
AcDbLine
 10
38.0245452072281154
 20
-11.2523178357358198
 30
0.0
 11
39.4890496383287157
 21
-19.5579353734785535
 31
0.0
  0
LINE
  5
1D1
100
AcDbEntity
  8
L_bottom
 62
256
370
-1
 48
1.0
  6
BYLAYER
100
AcDbLine
 10
38.0245452072281083
 20
-121.2523178357358233
 30
0.0
 11
39.4890496383287086
 21
-129.557935373478557
 31
0.0
  0
LINE
  5
1D2
100
AcDbEntity
  8
R_plate
 62
256
370
-1
 48
1.0
  6
BYLAYER
100
AcDbLine
 10
299.5340320174885846
 20
-11.2523178357357736
 30
0.0
 11
298.0695275863880624
 21
-19.5579353734785215
 31
0.0
  0
LINE
  5
1D3
100
AcDbEntity
  8
R_bottom
 62
256
370
-1
 48
1.0
  6
BYLAYER
100
AcDbLine
 10
299.5340320174886983
 20
-121.2523178357357807
 30
0.0
 11
298.0695275863880624
 21
-129.557935373478557
 31
0.0
  0
SPLINE
  5
1D4
100
AcDbEntity
  8
L_plate
 62
256
370
-1
 48
1.0
  6
BYLAYER
100
AcDbSpline
 70
8
 71
3
 72
9
 73
5
 74
0
 40
0.0
 40
0.0
 40
0.0
 40
0.0
 40
1.0
 40
2.0
 40
2.0
 40
2.0
 40
2.0
 10
55.1905179572046265
 20
-79.641390359884582
 30
0.0
 10
70.901132007362861
 20
-75.3416087975345476
 30
0.0
 10
89.0566222733897348
 20
-87.8066869441088329
 30
0.0
 10
106.3014604983526255
 20
-90.9704591304771384
 30
0.0
 10
106.3014604983526255
 20
-90.9704591304771384
 30
0.0
  0
SPLINE
  5
1D5
100
AcDbEntity
  8
L_bottom
 62
256
370
-1
 48
1.0
  6
BYLAYER
100
AcDbSpline
 70
8
 71
3
 72
9
 73
5
 74
0
 40
0.0
 40
0.0
 40
0.0
 40
0.0
 40
1.0
 40
2.0
 40
2.0
 40
2.0
 40
2.0
 10
55.1905179572046194
 20
-189.641390359884582
 30
0.0
 10
70.901132007362861
 20
-185.3416087975345761
 30
0.0
 10
89.0566222733897348
 20
-197.8066869441088613
 30
0.0
 10
106.3014604983526255
 20
-200.9704591304771384
 30
0.0
 10
106.3014604983526255
 20
-200.9704591304771384
 30
0.0
  0
SPLINE
  5
1D6
100
AcDbEntity
  8
R_plate
 62
256
370
-1
 48
1.0
  6
BYLAYER
100
AcDbSpline
 70
8
 71
3
 72
9
 73
5
 74
0
 40
0.0
 40
0.0
 40
0.0
 40
0.0
 40
1.0
 40
2.0
 40
2.0
 40
2.0
 40
2.0
 10
282.3680592675121943
 20
-79.6413903598845536
 30
0.0
 10
266.6574452173539385
 20
-75.3416087975345192
 30
0.0
 10
248.5019549513270078
 20
-87.8066869441087903
 30
0.0
 10
231.2571167263640746
 20
-90.9704591304770389
 30
0.0
 10
231.2571167263640746
 20
-90.9704591304770389
 30
0.0
  0
SPLINE
  5
1D7
100
AcDbEntity
  8
R_bottom
 62
256
370
-1
 48
1.0
  6
BYLAYER
100
AcDbSpline
 70
8
 71
3
 72
9
 73
5
 74
0
 40
0.0
 40
0.0
 40
0.0
 40
0.0
 40
1.0
 40
2.0
 40
2.0
 40
2.0
 40
2.0
 10
282.3680592675120806
 20
-189.6413903598845536
 30
0.0
 10
266.6574452173538248
 20
-185.3416087975345761
 30
0.0
 10
248.501954951326951
 20
-197.8066869441088045
 30
0.0
 10
231.2571167263640177
 20
-200.9704591304770531
 30
0.0
 10
231.2571167263640177
 20
-200.9704591304770531
 30
0.0
  0
CIRCLE
  5
1D8
100
AcDbEntity
  8
L_plate
 62
256
370
-1
 48
1.0
  6
BYLAYER
100
AcDbCircle
 10
40.5037856471379953
 20
-24.9800566792416276
 30
0.0
 40
1.5
  0
CIRCLE
  5
1D9
100
AcDbEntity
  8
L_bottom
 62
256
370
-1
 48
1.0
  6
BYLAYER
100
AcDbCircle
 10
40.5037856471379882
 20
-134.9800566792416419
 30
0.0
 40
1.5
  0
CIRCLE
  5
1DA
100
AcDbEntity
  8
R_plate
 62
256
370
-1
 48
1.0
  6
BYLAYER
100
AcDbCircle
 10
297.054791577578726
 20
-24.9800566792416134
 30
0.0
 40
1.5
  0
CIRCLE
  5
1DB
100
AcDbEntity
  8
R_bottom
 62
256
370
-1
 48
1.0
  6
BYLAYER
100
AcDbCircle
 10
297.054791577578726
 20
-134.9800566792416134
 30
0.0
 40
1.5
  0
CIRCLE
  5
1DC
100
AcDbEntity
  8
L_plate
 62
256
370
-1
 48
1.0
  6
BYLAYER
100
AcDbCircle
 10
88.6393097335123912
 20
-16.3210336355317835
 30
0.0
 40
1.5
  0
CIRCLE
  5
1DD
100
AcDbEntity
  8
L_bottom
 62
256
370
-1
 48
1.0
  6
BYLAYER
100
AcDbCircle
 10
88.6393097335123912
 20
-126.3210336355317907
 30
0.0
 40
1.5
  0
CIRCLE
  5
1DE
100
AcDbEntity
  8
R_plate
 62
256
370
-1
 48
1.0
  6
BYLAYER
100
AcDbCircle
 10
248.9192674912043515
 20
-16.3210336355317338
 30
0.0
 40
1.5
  0
CIRCLE
  5
1DF
100
AcDbEntity
  8
R_bottom
 62
256
370
-1
 48
1.0
  6
BYLAYER
100
AcDbCircle
 10
248.9192674912043799
 20
-126.3210336355318049
 30
0.0
 40
1.5
  0
CIRCLE
  5
1E0
100
AcDbEntity
  8
L_plate
 62
256
370
-1
 48
1.0
  6
BYLAYER
100
AcDbCircle
 10
60.9117424505093155
 20
-71.9468181741042372
 30
0.0
 40
1.4999999999999964
  0
CIRCLE
  5
1E1
100
AcDbEntity
  8
L_bottom
 62
256
370
-1
 48
1.0
  6
BYLAYER
100
AcDbCircle
 10
60.9117424505093084
 20
-181.9468181741042656
 30
0.0
 40
1.4999999999999964
  0
CIRCLE
  5
1E2
100
AcDbEntity
  8
R_plate
 62
256
370
-1
 48
1.0
  6
BYLAYER
100
AcDbCircle
 10
276.6468347742073774
 20
-71.9468181741041519
 30
0.0
 40
1.4999999999999964
  0
CIRCLE
  5
1E3
100
AcDbEntity
  8
R_bottom
 62
256
370
-1
 48
1.0
  6
BYLAYER
100
AcDbCircle
 10
276.6468347742073774
 20
-181.9468181741042088
 30
0.0
 40
1.4999999999999964
  0
CIRCLE
  5
1E4
100
AcDbEntity
  8
L_plate
 62
256
370
-1
 48
1.0
  6
BYLAYER
100
AcDbCircle
 10
130.8059911506252604
 20
-71.3046774637127214
 30
0.0
 40
1.5
  0
CIRCLE
  5
1E5
100
AcDbEntity
  8
L_bottom
 62
256
370
-1
 48
1.0
  6
BYLAYER
100
AcDbCircle
 10
130.8059911506252888
 20
-181.3046774637127498
 30
0.0
 40
1.5
  0
CIRCLE
  5
1E6
100
AcDbEntity
  8
R_plate
 62
256
370
-1
 48
1.0
  6
BYLAYER
100
AcDbCircle
 10
206.7525860740914823
 20
-71.3046774637126646
 30
0.0
 40
1.5
  0
CIRCLE
  5
1E7
100
AcDbEntity
  8
R_bottom
 62
256
370
-1
 48
1.0
  6
BYLAYER
100
AcDbCircle
 10
206.7525860740914538
 20
-181.3046774637127214
 30
0.0
 40
1.5
  0
LINE
  5
1E8
100
AcDbEntity
  8
L_plate
 62
256
370
-1
 48
1.0
  6
BYLAYER
100
AcDbLine
 10
88.0
 20
-72.0
 30
0.0
 11
88.0
 21
-68.0
 31
0.0
  0
LINE
  5
1E9
100
AcDbEntity
  8
R_plate
 62
256
370
-1
 48
1.0
  6
BYLAYER
100
AcDbLine
 10
249.2043178006114204
 20
-68.2983217519895618
 30
0.0
 11
249.2043178006114204
 21
-64.2983217519895618
 31
0.0
  0
LINE
  5
1EA
100
AcDbEntity
  8
L_plate
 62
256
370
-1
 48
1.0
  6
BYLAYER
100
AcDbLine
 10
88.0
 20
-68.0
 30
0.0
 11
82.0
 21
-68.0
 31
0.0
  0
LINE
  5
1EB
100
AcDbEntity
  8
R_plate
 62
256
370
-1
 48
1.0
  6
BYLAYER
100
AcDbLine
 10
249.2043178006114204
 20
-64.2983217519895618
 30
0.0
 11
265.2043178006114204
 21
-64.2983217519895618
 31
0.0
  0
LINE
  5
1EC
100
AcDbEntity
  8
L_plate
 62
256
370
-1
 48
1.0
  6
BYLAYER
100
AcDbLine
 10
78.0
 20
-68.0
 30
0.0
 11
72.0
 21
-68.0
 31
0.0
  0
LINE
  5
1ED
100
AcDbEntity
  8
L_plate
 62
256
370
-1
 48
1.0
  6
BYLAYER
100
AcDbLine
 10
72.0
 20
-68.0
 30
0.0
 11
72.0
 21
-72.0
 31
0.0
  0
LINE
  5
1EE
100
AcDbEntity
  8
R_plate
 62
256
370
-1
 48
1.0
  6
BYLAYER
100
AcDbLine
 10
265.2043178006114204
 20
-64.2983217519895618
 30
0.0
 11
265.2043178006114204
 21
-68.2983217519895618
 31
0.0
  0
LINE
  5
1EF
100
AcDbEntity
  8
L_plate
 62
256
370
-1
 48
1.0
  6
BYLAYER
100
AcDbLine
 10
72.0
 20
-72.0
 30
0.0
 11
78.0
 21
-72.0
 31
0.0
  0
LINE
  5
1F0
100
AcDbEntity
  8
L_plate
 62
256
370
-1
 48
1.0
  6
BYLAYER
100
AcDbLine
 10
82.0
 20
-72.0
 30
0.0
 11
88.0
 21
-72.0
 31
0.0
  0
LINE
  5
1F1
100
AcDbEntity
  8
R_plate
 62
256
370
-1
 48
1.0
  6
BYLAYER
100
AcDbLine
 10
259.5474635511189376
 20
-68.298321751989576
 30
0.0
 11
249.2043178006114204
 21
-68.2983217519895618
 31
0.0
  0
LINE
  5
1F2
100
AcDbEntity
  8
L_plate
 62
256
370
-1
 48
1.0
  6
BYLAYER
100
AcDbLine
 10
106.0
 20
-72.0
 30
0.0
 11
106.0
 21
-68.0
 31
0.0
  0
LINE
  5
1F3
100
AcDbEntity
  8
R_plate
 62
256
370
-1
 48
1.0
  6
BYLAYER
100
AcDbLine
 10
231.0
 20
-68.0
 30
0.0
 11
231.0
 21
-64.0
 31
0.0
  0
LINE
  5
1F4
100
AcDbEntity
  8
R_plate
 62
256
370
-1
 48
1.0
  6
BYLAYER
100
AcDbLine
 10
253.2513197763004769
 20
-80.2513197763004769
 30
0.0
 11
250.4228926515542639
 21
-77.4228926515542923
 31
0.0
  0
LINE
  5
1F5
100
AcDbEntity
  8
R_plate
 62
256
370
-1
 48
1.0
  6
BYLAYER
100
AcDbLine
 10
231.0
 20
-80.0
 30
0.0
 11
231.0
 21
-76.0
 31
0.0
  0
LINE
  5
1F6
100
AcDbEntity
  8
R_plate
 62
256
370
-1
 48
1.0
  6
BYLAYER
100
AcDbLine
 10
237.0
 20
-74.0
 30
0.0
 11
237.0
 21
-70.0
 31
0.0
  0
LINE
  5
1F7
100
AcDbEntity
  8
L_plate
 62
256
370
-1
 48
1.0
  6
BYLAYER
100
AcDbLine
 10
82.0
 20
-62.0
 30
0.0
 11
78.0
 21
-62.0
 31
0.0
  0
LINE
  5
1F8
100
AcDbEntity
  8
L_plate
 62
256
370
-1
 48
1.0
  6
BYLAYER
100
AcDbLine
 10
106.0
 20
-68.0
 30
0.0
 11
90.0
 21
-68.0
 31
0.0
  0
LINE
  5
1F9
100
AcDbEntity
  8
R_plate
 62
256
370
-1
 48
1.0
  6
BYLAYER
100
AcDbLine
 10
231.0
 20
-64.0
 30
0.0
 11
247.0
 21
-64.0
 31
0.0
  0
LINE
  5
1FA
100
AcDbEntity
  8
R_plate
 62
256
370
-1
 48
1.0
  6
BYLAYER
100
AcDbLine
 10
231.0
 20
-76.0
 30
0.0
 11
247.0
 21
-76.0
 31
0.0
  0
LINE
  5
1FB
100
AcDbEntity
  8
R_plate
 62
256
370
-1
 48
1.0
  6
BYLAYER
100
AcDbLine
 10
237.0
 20
-70.0
 30
0.0
 11
247.0
 21
-70.0
 31
0.0
  0
LINE
  5
1FC
100
AcDbEntity
  8
R_plate
 62
256
370
-1
 48
1.0
  6
BYLAYER
100
AcDbLine
 10
250.4228926515542639
 20
-77.4228926515542923
 30
0.0
 11
259.5474635511189945
 21
-68.298321751989576
 31
0.0
  0
LINE
  5
1FD
100
AcDbEntity
  8
L_plate
 62
256
370
-1
 48
1.0
  6
BYLAYER
100
AcDbLine
 10
78.0
 20
-62.0
 30
0.0
 11
78.0
 21
-68.0
 31
0.0
  0
LINE
  5
1FE
100
AcDbEntity
  8
L_plate
 62
256
370
-1
 48
1.0
  6
BYLAYER
100
AcDbLine
 10
78.0
 20
-72.0
 30
0.0
 11
78.0
 21
-78.0
 31
0.0
  0
LINE
  5
1FF
100
AcDbEntity
  8
L_plate
 62
256
370
-1
 48
1.0
  6
BYLAYER
100
AcDbLine
 10
90.0
 20
-68.0
 30
0.0
 11
90.0
 21
-72.0
 31
0.0
  0
LINE
  5
200
100
AcDbEntity
  8
R_plate
 62
256
370
-1
 48
1.0
  6
BYLAYER
100
AcDbLine
 10
247.0
 20
-64.0
 30
0.0
 11
247.0
 21
-68.0
 31
0.0
  0
LINE
  5
201
100
AcDbEntity
  8
R_plate
 62
256
370
-1
 48
1.0
  6
BYLAYER
100
AcDbLine
 10
247.0
 20
-76.0
 30
0.0
 11
247.0
 21
-80.0
 31
0.0
  0
LINE
  5
202
100
AcDbEntity
  8
R_plate
 62
256
370
-1
 48
1.0
  6
BYLAYER
100
AcDbLine
 10
247.0
 20
-70.0
 30
0.0
 11
247.0
 21
-74.0
 31
0.0
  0
LINE
  5
203
100
AcDbEntity
  8
L_plate
 62
256
370
-1
 48
1.0
  6
BYLAYER
100
AcDbLine
 10
78.0
 20
-78.0
 30
0.0
 11
82.0
 21
-78.0
 31
0.0
  0
LINE
  5
204
100
AcDbEntity
  8
L_plate
 62
256
370
-1
 48
1.0
  6
BYLAYER
100
AcDbLine
 10
90.0
 20
-72.0
 30
0.0
 11
106.0
 21
-72.0
 31
0.0
  0
LINE
  5
205
100
AcDbEntity
  8
R_plate
 62
256
370
-1
 48
1.0
  6
BYLAYER
100
AcDbLine
 10
247.0
 20
-68.0
 30
0.0
 11
231.0
 21
-68.0
 31
0.0
  0
LINE
  5
206
100
AcDbEntity
  8
R_plate
 62
256
370
-1
 48
1.0
  6
BYLAYER
100
AcDbLine
 10
265.2043178006113635
 20
-68.2983217519895618
 30
0.0
 11
253.2513197763004769
 21
-80.2513197763004769
 31
0.0
  0
LINE
  5
207
100
AcDbEntity
  8
R_plate
 62
256
370
-1
 48
1.0
  6
BYLAYER
100
AcDbLine
 10
247.0
 20
-80.0
 30
0.0
 11
231.0
 21
-80.0
 31
0.0
  0
LINE
  5
208
100
AcDbEntity
  8
R_plate
 62
256
370
-1
 48
1.0
  6
BYLAYER
100
AcDbLine
 10
247.0
 20
-74.0
 30
0.0
 11
237.0
 21
-74.0
 31
0.0
  0
LINE
  5
209
100
AcDbEntity
  8
L_plate
 62
256
370
-1
 48
1.0
  6
BYLAYER
100
AcDbLine
 10
82.0
 20
-78.0
 30
0.0
 11
82.0
 21
-72.0
 31
0.0
  0
LINE
  5
20A
100
AcDbEntity
  8
L_plate
 62
256
370
-1
 48
1.0
  6
BYLAYER
100
AcDbLine
 10
82.0
 20
-68.0
 30
0.0
 11
82.0
 21
-62.0
 31
0.0
  0
CIRCLE
  5
20B
100
AcDbEntity
  8
0
 62
256
370
-1
 48
1.0
  6
BYLAYER
100
AcDbCircle
 10
120.9983990346188705
 20
-82.4851778481965709
 30
0.0
 40
4.0
  0
CIRCLE
  5
20C
100
AcDbEntity
  8
0
 62
256
370
-1
 48
1.0
  6
BYLAYER
100
AcDbCircle
 10
120.2277771319033661
 20
-166.6504198876287433
 30
0.0
 40
2.0
  0
CIRCLE
  5
20D
100
AcDbEntity
  8
0
 62
256
370
-1
 48
1.0
  6
BYLAYER
100
AcDbCircle
 10
101.0831757315408339
 20
-125.3385017212529249
 30
0.0
 40
2.0
  0
CIRCLE
  5
20E
100
AcDbEntity
  8
0
 62
256
370
-1
 48
1.0
  6
BYLAYER
100
AcDbCircle
 10
101.0831757468598511
 20
-144.3385017563082329
 30
0.0
 40
2.0
  0
CIRCLE
  5
20F
100
AcDbEntity
  8
0
 62
256
370
-1
 48
1.0
  6
BYLAYER
100
AcDbCircle
 10
101.0831756538438668
 20
-163.3385017004592328
 30
0.0
 40
2.0
  0
CIRCLE
  5
210
100
AcDbEntity
  8
0
 62
256
370
-1
 48
1.0
  6
BYLAYER
100
AcDbCircle
 10
77.311527673612801
 20
-139.8598341483220509
 30
0.0
 40
2.0
  0
CIRCLE
  5
211
100
AcDbEntity
  8
0
 62
256
370
-1
 48
1.0
  6
BYLAYER
100
AcDbCircle
 10
78.9674866882887017
 20
-158.7875333645355909
 30
0.0
 40
2.0
  0
CIRCLE
  5
212
100
AcDbEntity
  8
0
 62
256
370
-1
 48
1.0
  6
BYLAYER
100
AcDbCircle
 10
55.2632330568701988
 20
-149.9125291080582087
 30
0.0
 40
2.0
  0
CIRCLE
  5
213
100
AcDbEntity
  8
0
 62
256
370
-1
 48
1.0
  6
BYLAYER
100
AcDbCircle
 10
58.562548331240933
 20
-168.6238763764416717
 30
0.0
 40
2.0
  0
CIRCLE
  5
214
100
AcDbEntity
  8
0
 62
256
370
-1
 48
1.0
  6
BYLAYER
100
AcDbCircle
 10
30.6325739907481704
 20
-144.3543350340717097
 30
0.0
 40
2.0
  0
CIRCLE
  5
215
100
AcDbEntity
  8
0
 62
256
370
-1
 48
1.0
  6
BYLAYER
100
AcDbCircle
 10
35.5501358715660842
 20
-162.7069257634599921
 30
0.0
 40
2.0
  0
CIRCLE
  5
216
100
AcDbEntity
  8
0
 62
256
370
-1
 48
1.0
  6
BYLAYER
100
AcDbCircle
 10
40.4676976242126472
 20
-181.0595164330806028
 30
0.0
 40
2.0
  0
CIRCLE
  5
217
100
AcDbEntity
  8
0
 62
256
370
-1
 48
1.0
  6
BYLAYER
100
AcDbCircle
 10
14.6969384130649985
 20
-158.4852814061960089
 30
0.0
 40
2.0
  0
CIRCLE
  5
218
100
AcDbEntity
  8
0
 62
256
370
-1
 48
1.0
  6
BYLAYER
100
AcDbCircle
 10
19.6145002938829052
 20
-176.8378721355842913
 30
0.0
 40
2.0
  0
CIRCLE
  5
219
100
AcDbEntity
  8
0
 62
256
370
-1
 48
1.0
  6
BYLAYER
100
AcDbCircle
 10
120.9983990346188421
 20
-192.4851778481967131
 30
0.0
 40
2.0
  0
CIRCLE
  5
21A
100
AcDbEntity
  8
0
 62
256
370
-1
 48
1.0
  6
BYLAYER
100
AcDbCircle
 10
217.3307995612217951
 20
-128.6504196537097471
 30
0.0
 40
2.0
  0
CIRCLE
  5
21B
100
AcDbEntity
  8
0
 62
256
370
-1
 48
1.0
  6
BYLAYER
100
AcDbCircle
 10
217.3307999251116485
 20
-166.6504196329160266
 30
0.0
 40
2.0
  0
CIRCLE
  5
21C
100
AcDbEntity
  8
0
 62
256
370
-1
 48
1.0
  6
BYLAYER
100
AcDbCircle
 10
236.4754010143379901
 20
-125.3385013223548015
 30
0.0
 40
2.0
  0
CIRCLE
  5
21D
100
AcDbEntity
  8
0
 62
256
370
-1
 48
1.0
  6
BYLAYER
100
AcDbCircle
 10
236.4754011421154019
 20
-144.338501357410081
 30
0.0
 40
2.0
  0
CIRCLE
  5
21E
100
AcDbEntity
  8
0
 62
256
370
-1
 48
1.0
  6
BYLAYER
100
AcDbCircle
 10
236.4754013782277866
 20
-163.3385013015610241
 30
0.0
 40
2.0
  0
CIRCLE
  5
21F
100
AcDbEntity
  8
0
 62
256
370
-1
 48
1.0
  6
BYLAYER
100
AcDbCircle
 10
261.9030081696014349
 20
-120.9321342605887537
 30
0.0
 40
2.0
  0
CIRCLE
  5
220
100
AcDbEntity
  8
0
 62
256
370
-1
 48
1.0
  6
BYLAYER
100
AcDbCircle
 10
260.2470491816318372
 20
-139.8598335703902933
 30
0.0
 40
2.0
  0
CIRCLE
  5
221
100
AcDbEntity
  8
0
 62
256
370
-1
 48
1.0
  6
BYLAYER
100
AcDbCircle
 10
258.5910903095078197
 20
-158.7875327990755352
 30
0.0
 40
2.0
  0
CIRCLE
  5
222
100
AcDbEntity
  8
0
 62
256
370
-1
 48
1.0
  6
BYLAYER
100
AcDbCircle
 10
285.5946591300079831
 20
-131.2011810001291394
 30
0.0
 40
2.0
  0
CIRCLE
  5
223
100
AcDbEntity
  8
0
 62
256
370
-1
 48
1.0
  6
BYLAYER
100
AcDbCircle
 10
278.9960287406369162
 20
-168.6238756573040689
 30
0.0
 40
2.0
  0
CIRCLE
  5
224
100
AcDbEntity
  8
0
 62
256
370
-1
 48
1.0
  6
BYLAYER
100
AcDbCircle
 10
306.9260028983463258
 20
-144.3543341045825343
 30
0.0
 40
2.0
  0
CIRCLE
  5
225
100
AcDbEntity
  8
0
 62
256
370
-1
 48
1.0
  6
BYLAYER
100
AcDbCircle
 10
297.0908795413228631
 20
-181.059515577663575
 30
0.0
 40
2.0
  0
CIRCLE
  5
226
100
AcDbEntity
  8
0
 62
256
370
-1
 48
1.0
  6
BYLAYER
100
AcDbCircle
 10
322.8616385824551571
 20
-158.4852803566894011
 30
0.0
 40
2.0
  0
CIRCLE
  5
227
100
AcDbEntity
  8
0
 62
256
370
-1
 48
1.0
  6
BYLAYER
100
AcDbCircle
 10
317.9440768398578143
 20
-176.837871123113672
 30
0.0
 40
2.0
  0
CIRCLE
  5
228
100
AcDbEntity
  8
0
 62
256
370
-1
 48
1.0
  6
BYLAYER
100
AcDbCircle
 10
216.5601782169677563
 20
-192.48517759928788
 30
0.0
 40
2.0
  0
CIRCLE
  5
229
100
AcDbEntity
  8
0
 62
256
370
-1
 48
1.0
  6
BYLAYER
100
AcDbCircle
 10
120.2277772096003332
 20
-128.6504199084224069
 30
0.0
 40
2.0
  0
CIRCLE
  5
22A
100
AcDbEntity
  8
0
 62
256
370
-1
 48
1.0
  6
BYLAYER
100
AcDbCircle
 10
120.2277772249193504
 20
-147.6504199434777433
 30
0.0
 40
2.0
  0
CIRCLE
  5
22B
100
AcDbEntity
  8
0
 62
256
370
-1
 48
1.0
  6
BYLAYER
100
AcDbCircle
 10
75.6555685430913059
 20
-120.9321348509920995
 30
0.0
 40
2.0
  0
CIRCLE
  5
22C
100
AcDbEntity
  8
0
 62
256
370
-1
 48
1.0
  6
BYLAYER
100
AcDbCircle
 10
51.9639176600249328
 20
-131.2011817689635791
 30
0.0
 40
2.0
  0
CIRCLE
  5
22D
100
AcDbEntity
  8
0
 62
256
370
-1
 48
1.0
  6
BYLAYER
100
AcDbCircle
 10
282.2953438740851198
 20
-149.9125283640719601
 30
0.0
 40
2.0
  0
CIRCLE
  5
22E
100
AcDbEntity
  8
0
 62
256
370
-1
 48
1.0
  6
BYLAYER
100
AcDbCircle
 10
302.0084411557488693
 20
-162.7069248710066915
 30
0.0
 40
2.0
  0
CIRCLE
  5
22F
100
AcDbEntity
  8
0
 62
256
370
-1
 48
1.0
  6
BYLAYER
100
AcDbCircle
 10
217.3307996889991216
 20
-147.6504196887648561
 30
0.0
 40
2.0
  0
CIRCLE
  5
230
100
AcDbEntity
  8
0
 62
256
370
-1
 48
1.0
  6
BYLAYER
100
AcDbCircle
 10
117.6877772096003412
 20
-123.5104199084224206
 30
0.0
 40
0.75
  0
CIRCLE
  5
231
100
AcDbEntity
  8
0
 62
256
370
-1
 48
1.0
  6
BYLAYER
100
AcDbCircle
 10
124.0377772096003355
 20
-126.1104199084224149
 30
0.0
 40
0.75
  0
CIRCLE
  5
232
100
AcDbEntity
  8
0
 62
256
370
-1
 48
1.0
  6
BYLAYER
100
AcDbCircle
 10
117.6877772249193868
 20
-142.510419943477757
 30
0.0
 40
0.75
  0
CIRCLE
  5
233
100
AcDbEntity
  8
0
 62
256
370
-1
 48
1.0
  6
BYLAYER
100
AcDbCircle
 10
124.0377772249193526
 20
-145.1104199434777513
 30
0.0
 40
0.75
  0
CIRCLE
  5
234
100
AcDbEntity
  8
0
 62
256
370
-1
 48
1.0
  6
BYLAYER
100
AcDbCircle
 10
117.6877771319034025
 20
-161.5104198876287569
 30
0.0
 40
0.75
  0
CIRCLE
  5
235
100
AcDbEntity
  8
0
 62
256
370
-1
 48
1.0
  6
BYLAYER
100
AcDbCircle
 10
124.0377771319033684
 20
-164.1104198876287512
 30
0.0
 40
0.75
  0
CIRCLE
  5
236
100
AcDbEntity
  8
0
 62
256
370
-1
 48
1.0
  6
BYLAYER
100
AcDbCircle
 10
98.5431757315408703
 20
-120.1985017212529385
 30
0.0
 40
0.75
  0
CIRCLE
  5
237
100
AcDbEntity
  8
0
 62
256
370
-1
 48
1.0
  6
BYLAYER
100
AcDbCircle
 10
104.8931757315408362
 20
-122.7985017212529328
 30
0.0
 40
0.75
  0
CIRCLE
  5
238
100
AcDbEntity
  8
0
 62
256
370
-1
 48
1.0
  6
BYLAYER
100
AcDbCircle
 10
98.5431757468598875
 20
-139.1985017563082749
 30
0.0
 40
0.75
  0
CIRCLE
  5
239
100
AcDbEntity
  8
0
 62
256
370
-1
 48
1.0
  6
BYLAYER
100
AcDbCircle
 10
104.8931757468598533
 20
-141.7985017563082693
 30
0.0
 40
0.75
  0
CIRCLE
  5
23A
100
AcDbEntity
  8
0
 62
256
370
-1
 48
1.0
  6
BYLAYER
100
AcDbCircle
 10
98.5431756538439316
 20
-158.1985017004592748
 30
0.0
 40
0.75
  0
CIRCLE
  5
23B
100
AcDbEntity
  8
0
 62
256
370
-1
 48
1.0
  6
BYLAYER
100
AcDbCircle
 10
104.8931756538438975
 20
-160.7985017004592692
 30
0.0
 40
0.75
  0
CIRCLE
  5
23C
100
AcDbEntity
  8
0
 62
256
370
-1
 48
1.0
  6
BYLAYER
100
AcDbCircle
 10
26.8487925001470131
 20
-140.0468766615063032
 30
0.0
 40
0.75
  0
CIRCLE
  5
23D
100
AcDbEntity
  8
0
 62
256
370
-1
 48
1.0
  6
BYLAYER
100
AcDbCircle
 10
33.6553510143491224
 20
-140.9147828734568861
 30
0.0
 40
0.75
  0
CIRCLE
  5
23E
100
AcDbEntity
  8
0
 62
256
370
-1
 48
1.0
  6
BYLAYER
100
AcDbCircle
 10
31.766354380964934
 20
-158.399467390894614
 30
0.0
 40
0.75
  0
CIRCLE
  5
23F
100
AcDbEntity
  8
0
 62
256
370
-1
 48
1.0
  6
BYLAYER
100
AcDbCircle
 10
38.572912895167029
 20
-159.267373602845197
 30
0.0
 40
0.75
  0
CIRCLE
  5
240
100
AcDbEntity
  8
0
 62
256
370
-1
 48
1.0
  6
BYLAYER
100
AcDbCircle
 10
36.6839161336115112
 20
-176.7520580605152247
 30
0.0
 40
0.75
  0
CIRCLE
  5
241
100
AcDbEntity
  8
0
 62
256
370
-1
 48
1.0
  6
BYLAYER
100
AcDbCircle
 10
43.4904746478136346
 20
-177.6199642724657792
 30
0.0
 40
0.75
  0
CIRCLE
  5
242
100
AcDbEntity
  8
0
 62
256
370
-1
 48
1.0
  6
BYLAYER
100
AcDbCircle
 10
72.6772534922153426
 20
-116.0330696893795874
 30
0.0
 40
0.75
  0
CIRCLE
  5
243
100
AcDbEntity
  8
0
 62
256
370
-1
 48
1.0
  6
BYLAYER
100
AcDbCircle
 10
79.2296947562418126
 20
-118.0697369379705037
 30
0.0
 40
0.75
  0
CIRCLE
  5
244
100
AcDbEntity
  8
0
 62
256
370
-1
 48
1.0
  6
BYLAYER
100
AcDbCircle
 10
74.3332126227368519
 20
-134.960768986709553
 30
0.0
 40
0.75
  0
CIRCLE
  5
245
100
AcDbEntity
  8
0
 62
256
370
-1
 48
1.0
  6
BYLAYER
100
AcDbCircle
 10
80.8856538867632935
 20
-136.9974362353004551
 30
0.0
 40
0.75
  0
CIRCLE
  5
246
100
AcDbEntity
  8
0
 62
256
370
-1
 48
1.0
  6
BYLAYER
100
AcDbCircle
 10
75.989171637412781
 20
-153.8884682029231215
 30
0.0
 40
0.75
  0
CIRCLE
  5
247
100
AcDbEntity
  8
0
 62
256
370
-1
 48
1.0
  6
BYLAYER
100
AcDbCircle
 10
82.541612901439251
 20
-155.9251354515140235
 30
0.0
 40
0.75
  0
CIRCLE
  5
248
100
AcDbEntity
  8
0
 62
256
370
-1
 48
1.0
  6
BYLAYER
100
AcDbCircle
 10
10.9131569224638483
 20
-154.1778230336306024
 30
0.0
 40
0.75
  0
CIRCLE
  5
249
100
AcDbEntity
  8
0
 62
256
370
-1
 48
1.0
  6
BYLAYER
100
AcDbCircle
 10
17.7197154366659504
 20
-155.0457292455811853
 30
0.0
 40
0.75
  0
CIRCLE
  5
24A
100
AcDbEntity
  8
0
 62
256
370
-1
 48
1.0
  6
BYLAYER
100
AcDbCircle
 10
15.8307188032817621
 20
-172.5304137630189132
 30
0.0
 40
0.75
  0
CIRCLE
  5
24B
100
AcDbEntity
  8
0
 62
256
370
-1
 48
1.0
  6
BYLAYER
100
AcDbCircle
 10
22.6372773174838571
 20
-173.3983199749694961
 30
0.0
 40
0.75
  0
CIRCLE
  5
24C
100
AcDbEntity
  8
0
 62
256
370
-1
 48
1.0
  6
BYLAYER
100
AcDbCircle
 10
119.875277327671597
 20
-186.8629187265105145
 30
0.0
 40
0.75
  0
CIRCLE
  5
24D
100
AcDbEntity
  8
0
 62
256
370
-1
 48
1.0
  6
BYLAYER
100
AcDbCircle
 10
125.335976807340586
 20
-191.0178268112630917
 30
0.0
 40
0.75
  0
CIRCLE
  5
24E
100
AcDbEntity
  8
0
 62
256
370
-1
 48
1.0
  6
BYLAYER
100
AcDbCircle
 10
48.5699543341659421
 20
-126.5803362897548396
 30
0.0
 40
0.75
  0
CIRCLE
  5
24F
100
AcDbEntity
  8
0
 62
256
370
-1
 48
1.0
  6
BYLAYER
100
AcDbCircle
 10
55.2749688277274487
 20
-128.0381705194015751
 30
0.0
 40
0.75
  0
CIRCLE
  5
250
100
AcDbEntity
  8
0
 62
256
370
-1
 48
1.0
  6
BYLAYER
100
AcDbCircle
 10
51.869269731011201
 20
-145.2916836288494267
 30
0.0
 40
0.75
  0
CIRCLE
  5
251
100
AcDbEntity
  8
0
 62
256
370
-1
 48
1.0
  6
BYLAYER
100
AcDbCircle
 10
58.5742842245726933
 20
-146.7495178584961764
 30
0.0
 40
0.75
  0
CIRCLE
  5
252
100
AcDbEntity
  8
0
 62
256
370
-1
 48
1.0
  6
BYLAYER
100
AcDbCircle
 10
55.1685850053819422
 20
-164.0030308972329181
 30
0.0
 40
0.75
  0
CIRCLE
  5
253
100
AcDbEntity
  8
0
 62
256
370
-1
 48
1.0
  6
BYLAYER
100
AcDbCircle
 10
61.8735994989434701
 20
-165.4608651268796393
 30
0.0
 40
0.75
  0
CIRCLE
  5
254
100
AcDbEntity
  8
0
 62
256
370
-1
 48
1.0
  6
BYLAYER
100
AcDbCircle
 10
219.8707995225103673
 20
-123.5104196345797902
 30
0.0
 40
0.75
  0
CIRCLE
  5
255
100
AcDbEntity
  8
0
 62
256
370
-1
 48
1.0
  6
BYLAYER
100
AcDbCircle
 10
213.5207995420919929
 20
-126.1104196824041139
 30
0.0
 40
0.75
  0
CIRCLE
  5
256
100
AcDbEntity
  8
0
 62
256
370
-1
 48
1.0
  6
BYLAYER
100
AcDbCircle
 10
219.8707996502877506
 20
-142.5104196696351835
 30
0.0
 40
0.75
  0
CIRCLE
  5
257
100
AcDbEntity
  8
0
 62
256
370
-1
 48
1.0
  6
BYLAYER
100
AcDbCircle
 10
213.5207996698694046
 20
-145.1104197174594503
 30
0.0
 40
0.75
  0
CIRCLE
  5
258
100
AcDbEntity
  8
0
 62
256
370
-1
 48
1.0
  6
BYLAYER
100
AcDbCircle
 10
219.8707998864001638
 20
-161.5104196137861265
 30
0.0
 40
0.75
  0
CIRCLE
  5
259
100
AcDbEntity
  8
0
 62
256
370
-1
 48
1.0
  6
BYLAYER
100
AcDbCircle
 10
213.5207999059818462
 20
-164.1104196616104502
 30
0.0
 40
0.75
  0
CIRCLE
  5
25A
100
AcDbEntity
  8
0
 62
256
370
-1
 48
1.0
  6
BYLAYER
100
AcDbCircle
 10
239.0154009756265054
 20
-120.1985013032247878
 30
0.0
 40
0.75
  0
CIRCLE
  5
25B
100
AcDbEntity
  8
0
 62
256
370
-1
 48
1.0
  6
BYLAYER
100
AcDbCircle
 10
232.6654009952081594
 20
-122.7985013510491115
 30
0.0
 40
0.75
  0
CIRCLE
  5
25C
100
AcDbEntity
  8
0
 62
256
370
-1
 48
1.0
  6
BYLAYER
100
AcDbCircle
 10
239.0154011034039172
 20
-139.198501338280181
 30
0.0
 40
0.75
  0
CIRCLE
  5
25D
100
AcDbEntity
  8
0
 62
256
370
-1
 48
1.0
  6
BYLAYER
100
AcDbCircle
 10
232.6654011229855428
 20
-141.7985013861044479
 30
0.0
 40
0.75
  0
CIRCLE
  5
25E
100
AcDbEntity
  8
0
 62
256
370
-1
 48
1.0
  6
BYLAYER
100
AcDbCircle
 10
239.0154013395162735
 20
-158.1985012824311809
 30
0.0
 40
0.75
  0
CIRCLE
  5
25F
100
AcDbEntity
  8
0
 62
256
370
-1
 48
1.0
  6
BYLAYER
100
AcDbCircle
 10
232.6654013590979275
 20
-160.7985013302554478
 30
0.0
 40
0.75
  0
CIRCLE
  5
260
100
AcDbEntity
  8
0
 62
256
370
-1
 48
1.0
  6
BYLAYER
100
AcDbCircle
 10
310.7097843565062476
 20
-140.0468757035197029
 30
0.0
 40
0.75
  0
CIRCLE
  5
261
100
AcDbEntity
  8
0
 62
256
370
-1
 48
1.0
  6
BYLAYER
100
AcDbCircle
 10
303.9032258488406342
 20
-140.9147819667332726
 30
0.0
 40
0.75
  0
CIRCLE
  5
262
100
AcDbEntity
  8
0
 62
256
370
-1
 48
1.0
  6
BYLAYER
100
AcDbCircle
 10
305.792222613908848
 20
-158.3994664699442012
 30
0.0
 40
0.75
  0
CIRCLE
  5
263
100
AcDbEntity
  8
0
 62
256
370
-1
 48
1.0
  6
BYLAYER
100
AcDbCircle
 10
298.9856641062432914
 20
-159.2673727331576004
 30
0.0
 40
0.75
  0
CIRCLE
  5
264
100
AcDbEntity
  8
0
 62
256
370
-1
 48
1.0
  6
BYLAYER
100
AcDbCircle
 10
300.874660999482785
 20
-176.7520571766008572
 30
0.0
 40
0.75
  0
CIRCLE
  5
265
100
AcDbEntity
  8
0
 62
256
370
-1
 48
1.0
  6
BYLAYER
100
AcDbCircle
 10
294.0681024918171715
 20
-177.6199634398143132
 30
0.0
 40
0.75
  0
CIRCLE
  5
266
100
AcDbEntity
  8
0
 62
256
370
-1
 48
1.0
  6
BYLAYER
100
AcDbCircle
 10
264.8813231835805482
 20
-116.0330690765457859
 30
0.0
 40
0.75
  0
CIRCLE
  5
267
100
AcDbEntity
  8
0
 62
256
370
-1
 48
1.0
  6
BYLAYER
100
AcDbCircle
 10
258.3288819348929906
 20
-118.0697363744849042
 30
0.0
 40
0.75
  0
CIRCLE
  5
268
100
AcDbEntity
  8
0
 62
256
370
-1
 48
1.0
  6
BYLAYER
100
AcDbCircle
 10
263.2253641956109504
 20
-134.9607683863467571
 30
0.0
 40
0.75
  0
CIRCLE
  5
269
100
AcDbEntity
  8
0
 62
256
370
-1
 48
1.0
  6
BYLAYER
100
AcDbCircle
 10
256.6729229469234497
 20
-136.9974356842866143
 30
0.0
 40
0.75
  0
CIRCLE
  5
26A
100
AcDbEntity
  8
0
 62
256
370
-1
 48
1.0
  6
BYLAYER
100
AcDbCircle
 10
261.5694053234868761
 20
-153.888467615031999
 30
0.0
 40
0.75
  0
CIRCLE
  5
26B
100
AcDbEntity
  8
0
 62
256
370
-1
 48
1.0
  6
BYLAYER
100
AcDbCircle
 10
255.0169640747993469
 20
-155.9251349129719131
 30
0.0
 40
0.75
  0
CIRCLE
  5
26C
100
AcDbEntity
  8
0
 62
256
370
-1
 48
1.0
  6
BYLAYER
100
AcDbCircle
 10
326.6454200406150221
 20
-154.1778219556266265
 30
0.0
 40
0.75
  0
CIRCLE
  5
26D
100
AcDbEntity
  8
0
 62
256
370
-1
 48
1.0
  6
BYLAYER
100
AcDbCircle
 10
319.8388615329495224
 20
-155.0457282188401393
 30
0.0
 40
0.75
  0
CIRCLE
  5
26E
100
AcDbEntity
  8
0
 62
256
370
-1
 48
1.0
  6
BYLAYER
100
AcDbCircle
 10
321.7278582980176225
 20
-172.5304127220510679
 30
0.0
 40
0.75
  0
CIRCLE
  5
26F
100
AcDbEntity
  8
0
 62
256
370
-1
 48
1.0
  6
BYLAYER
100
AcDbCircle
 10
314.9212997903521227
 20
-173.3983189852644671
 30
0.0
 40
0.75
  0
CIRCLE
  5
270
100
AcDbEntity
  8
0
 62
256
370
-1
 48
1.0
  6
BYLAYER
100
AcDbCircle
 10
217.6832998815715428
 20
-186.8629184691427838
 30
0.0
 40
0.75
  0
CIRCLE
  5
271
100
AcDbEntity
  8
0
 62
256
370
-1
 48
1.0
  6
BYLAYER
100
AcDbCircle
 10
212.2226004331947422
 20
-191.0178265950220577
 30
0.0
 40
0.75
  0
CIRCLE
  5
272
100
AcDbEntity
  8
0
 62
256
370
-1
 48
1.0
  6
BYLAYER
100
AcDbCircle
 10
288.9886224210655428
 20
-126.5803354953589235
 30
0.0
 40
0.75
  0
CIRCLE
  5
273
100
AcDbEntity
  8
0
 62
256
370
-1
 48
1.0
  6
BYLAYER
100
AcDbCircle
 10
282.2836079384835557
 20
-128.0381697755038033
 30
0.0
 40
0.75
  0
CIRCLE
  5
274
100
AcDbEntity
  8
0
 62
256
370
-1
 48
1.0
  6
BYLAYER
100
AcDbCircle
 10
285.6893071651427363
 20
-145.2916828593019147
 30
0.0
 40
0.75
  0
CIRCLE
  5
275
100
AcDbEntity
  8
0
 62
256
370
-1
 48
1.0
  6
BYLAYER
100
AcDbCircle
 10
278.9842926825607492
 20
-146.7495171394467945
 30
0.0
 40
0.75
  0
CIRCLE
  5
276
100
AcDbEntity
  8
0
 62
256
370
-1
 48
1.0
  6
BYLAYER
100
AcDbCircle
 10
282.389992031694419
 20
-164.003030152533853
 30
0.0
 40
0.75
  0
CIRCLE
  5
277
100
AcDbEntity
  8
0
 62
256
370
-1
 48
1.0
  6
BYLAYER
100
AcDbCircle
 10
275.6849775491124319
 20
-165.4608644326785623
 30
0.0
 40
0.75
  0
CIRCLE
  5
278
100
AcDbEntity
  8
0
 62
256
370
-1
 48
1.0
  6
BYLAYER
100
AcDbCircle
 10
199.3307092536255141
 20
-191.7804804128255967
 30
0.0
 40
0.75
  0
CIRCLE
  5
279
100
AcDbEntity
  8
0
 62
256
370
-1
 48
1.0
  6
BYLAYER
100
AcDbCircle
 10
193.8700098052487135
 20
-195.9353885387048706
 30
0.0
 40
0.75
  0
ENDSEC
  0
SECTION
  2
OBJECTS
  0
DICTIONARY
  5
C
100
AcDbDictionary
280
0
281
1
  3
ACAD_GROUP
350
D
  3
ACAD_LAYOUT
350
1A
  3
ACAD_MLINESTYLE
350
17
  3
ACAD_PLOTSETTINGS
350
19
  3
ACAD_PLOTSTYLENAME
350
E
  3
AcDbVariableDictionary
350
27A
  3
QCAD_OBJECTS
350
27B
  0
DICTIONARY
  5
D
100
AcDbDictionary
280
0
281
1
  0
ACDBDICTIONARYWDFLT
  5
E
100
AcDbDictionary
281
1
  3
Normal
350
F
100
AcDbDictionaryWithDefault
340
F
  0
ACDBPLACEHOLDER
  5
F
  0
DICTIONARY
  5
17
100
AcDbDictionary
280
0
281
1
  3
Standard
350
18
  0
MLINESTYLE
  5
18
100
AcDbMlineStyle
  2
STANDARD
 70
0
  3

 62
256
 51
90.0
 52
90.0
 71
2
 49
0.5
 62
256
  6
BYLAYER
 49
-0.5
 62
256
  6
BYLAYER
  0
DICTIONARY
  5
19
100
AcDbDictionary
280
0
281
1
  0
DICTIONARY
  5
1A
100
AcDbDictionary
281
1
  3
Layout1
350
1E
  3
Layout2
350
26
  3
Model
350
22
  0
LAYOUT
  5
1E
100
AcDbPlotSettings
  1

  2
none_device
  4

  6

 40
0.0
 41
0.0
 42
0.0
 43
0.0
 44
0.0
 45
0.0
 46
0.0
 47
0.0
 48
0.0
 49
0.0
140
0.0
141
0.0
142
1.0
143
1.0
 70
688
 72
0
 73
0
 74
5
  7

 75
16
147
1.0
148
0.0
149
0.0
100
AcDbLayout
  1
Layout1
 70
1
 71
1
 10
0.0
 20
0.0
 11
420.0
 21
297.0
 12
0.0
 22
0.0
 32
0.0
 14
100000000000000000000.0
 24
100000000000000000000.0
 34
100000000000000000000.0
 15
-100000000000000000000.0
 25
-100000000000000000000.0
 35
-100000000000000000000.0
146
0.0
 13
0.0
 23
0.0
 33
0.0
 16
1.0
 26
0.0
 36
0.0
 17
0.0
 27
1.0
 37
0.0
 76
0
330
1B
  0
LAYOUT
  5
22
100
AcDbPlotSettings
  1

  2
none_device
  4

  6

 40
0.0
 41
0.0
 42
0.0
 43
0.0
 44
0.0
 45
0.0
 46
0.0
 47
0.0
 48
0.0
 49
0.0
140
0.0
141
0.0
142
1.0
143
1.0
 70
1712
 72
0
 73
0
 74
0
  7

 75
0
147
1.0
148
0.0
149
0.0
100
AcDbLayout
  1
Model
 70
1
 71
0
 10
0.0
 20
0.0
 11
12.0
 21
9.0
 12
0.0
 22
0.0
 32
0.0
 14
0.0
 24
0.0
 34
0.0
 15
0.0
 25
0.0
 35
0.0
146
0.0
 13
0.0
 23
0.0
 33
0.0
 16
1.0
 26
0.0
 36
0.0
 17
0.0
 27
1.0
 37
0.0
 76
0
330
1F
  0
LAYOUT
  5
26
100
AcDbPlotSettings
  1

  2
none_device
  4

  6

 40
0.0
 41
0.0
 42
0.0
 43
0.0
 44
0.0
 45
0.0
 46
0.0
 47
0.0
 48
0.0
 49
0.0
140
0.0
141
0.0
142
1.0
143
1.0
 70
688
 72
0
 73
0
 74
5
  7

 75
16
147
1.0
148
0.0
149
0.0
100
AcDbLayout
  1
Layout2
 70
1
 71
2
 10
0.0
 20
0.0
 11
12.0
 21
9.0
 12
0.0
 22
0.0
 32
0.0
 14
0.0
 24
0.0
 34
0.0
 15
0.0
 25
0.0
 35
0.0
146
0.0
 13
0.0
 23
0.0
 33
0.0
 16
1.0
 26
0.0
 36
0.0
 17
0.0
 27
1.0
 37
0.0
 76
0
330
23
  0
DICTIONARY
  5
27A
100
AcDbDictionary
281
1
  3
DIMASSOC
350
27D
  3
HIDETEXT
350
27C
  0
DICTIONARYVAR
  5
27C
100
DictionaryVariables
280
0
  1
2
  0
DICTIONARYVAR
  5
27D
100
DictionaryVariables
280
0
  1
1
  0
DICTIONARY
  5
27B
100
AcDbDictionary
281
1
  3
ColorSettings/BackgroundColor
350
27E
  3
ColorSettings/ColorMode
350
27F
  3
Grid/DisplayGrid00
350
280
  3
Grid/DisplayGrid01
350
281
  3
Grid/DisplayGrid02
350
282
  3
Grid/DisplayGrid03
350
283
  3
Grid/GridSpacingX00
350
284
  3
Grid/GridSpacingX01
350
285
  3
Grid/GridSpacingX02
350
286
  3
Grid/GridSpacingX03
350
287
  3
Grid/GridSpacingY00
350
288
  3
Grid/GridSpacingY01
350
289
  3
Grid/GridSpacingY02
350
28A
  3
Grid/GridSpacingY03
350
28B
  3
Grid/IsometricGrid00
350
28C
  3
Grid/IsometricGrid01
350
28D
  3
Grid/IsometricGrid02
350
28E
  3
Grid/IsometricGrid03
350
28F
  3
Grid/IsometricProjection00
350
290
  3
Grid/IsometricProjection01
350
291
  3
Grid/IsometricProjection02
350
292
  3
Grid/IsometricProjection03
350
293
  3
Grid/MetaGridSpacingX00
350
294
  3
Grid/MetaGridSpacingX01
350
295
  3
Grid/MetaGridSpacingX02
350
296
  3
Grid/MetaGridSpacingX03
350
297
  3
Grid/MetaGridSpacingY00
350
298
  3
Grid/MetaGridSpacingY01
350
299
  3
Grid/MetaGridSpacingY02
350
29A
  3
Grid/MetaGridSpacingY03
350
29B
  3
MultiPageSettings/Columns
350
29C
  3
MultiPageSettings/GlueMarginsBottom
350
29D
  3
MultiPageSettings/GlueMarginsLeft
350
29E
  3
MultiPageSettings/GlueMarginsRight
350
29F
  3
MultiPageSettings/GlueMarginsTop
350
2A0
  3
MultiPageSettings/PrintCropMarks
350
2A1
  3
MultiPageSettings/Rows
350
2A2
  3
PageSettings/OffsetX
350
2A3
  3
PageSettings/OffsetY
350
2A4
  3
PageSettings/PageOrientation
350
2A5
  3
PageSettings/PaperHeight
350
2A6
  3
PageSettings/PaperWidth
350
2A7
  3
PageSettings/PositionAccepted
350
2A8
  3
PageSettings/Scale
350
2A9
  3
PageSettings/ShowPaperBorders
350
2AA
  3
PageTagSettings/EnablePageTags
350
2AB
  3
PageTagSettings/TagAlignment
350
2AC
  3
PageTagSettings/TagFont
350
2AD
  3
PageTagSettings/TagPosition
350
2AE
  3
QCADVersion
350
2AF
  3
UnitSettings/PaperUnit
350
2B0
  3
ViewportCenter
350
2B1
  3
ViewportHeight
350
2B2
  3
ViewportWidth
350
2B3
  0
XRECORD
  5
27E
330
27B
100
AcDbXrecord
280
1
1000
White
  0
XRECORD
  5
27F
330
27B
100
AcDbXrecord
280
1
1000
FullColor
  0
XRECORD
  5
280
330
27B
100
AcDbXrecord
280
1
290
1
  0
XRECORD
  5
281
330
27B
100
AcDbXrecord
280
1
290
1
  0
XRECORD
  5
282
330
27B
100
AcDbXrecord
280
1
290
1
  0
XRECORD
  5
283
330
27B
100
AcDbXrecord
280
1
290
1
  0
XRECORD
  5
284
330
27B
100
AcDbXrecord
280
1
1000
auto
  0
XRECORD
  5
285
330
27B
100
AcDbXrecord
280
1
1000
auto
  0
XRECORD
  5
286
330
27B
100
AcDbXrecord
280
1
1000
auto
  0
XRECORD
  5
287
330
27B
100
AcDbXrecord
280
1
1000
auto
  0
XRECORD
  5
288
330
27B
100
AcDbXrecord
280
1
1000
auto
  0
XRECORD
  5
289
330
27B
100
AcDbXrecord
280
1
1000
auto
  0
XRECORD
  5
28A
330
27B
100
AcDbXrecord
280
1
1000
auto
  0
XRECORD
  5
28B
330
27B
100
AcDbXrecord
280
1
1000
auto
  0
XRECORD
  5
28C
330
27B
100
AcDbXrecord
280
1
290
0
  0
XRECORD
  5
28D
330
27B
100
AcDbXrecord
280
1
290
0
  0
XRECORD
  5
28E
330
27B
100
AcDbXrecord
280
1
290
0
  0
XRECORD
  5
28F
330
27B
100
AcDbXrecord
280
1
290
0
  0
XRECORD
  5
290
330
27B
100
AcDbXrecord
280
1
 90
65537
  0
XRECORD
  5
291
330
27B
100
AcDbXrecord
280
1
 90
65537
  0
XRECORD
  5
292
330
27B
100
AcDbXrecord
280
1
 90
65537
  0
XRECORD
  5
293
330
27B
100
AcDbXrecord
280
1
 90
65537
  0
XRECORD
  5
294
330
27B
100
AcDbXrecord
280
1
1000
auto
  0
XRECORD
  5
295
330
27B
100
AcDbXrecord
280
1
1000
auto
  0
XRECORD
  5
296
330
27B
100
AcDbXrecord
280
1
1000
auto
  0
XRECORD
  5
297
330
27B
100
AcDbXrecord
280
1
1000
auto
  0
XRECORD
  5
298
330
27B
100
AcDbXrecord
280
1
1000
auto
  0
XRECORD
  5
299
330
27B
100
AcDbXrecord
280
1
1000
auto
  0
XRECORD
  5
29A
330
27B
100
AcDbXrecord
280
1
1000
auto
  0
XRECORD
  5
29B
330
27B
100
AcDbXrecord
280
1
1000
auto
  0
XRECORD
  5
29C
330
27B
100
AcDbXrecord
280
1
 90
1
  0
XRECORD
  5
29D
330
27B
100
AcDbXrecord
280
1
 40
10.0
  0
XRECORD
  5
29E
330
27B
100
AcDbXrecord
280
1
 40
10.0
  0
XRECORD
  5
29F
330
27B
100
AcDbXrecord
280
1
 40
10.0
  0
XRECORD
  5
2A0
330
27B
100
AcDbXrecord
280
1
 40
10.0
  0
XRECORD
  5
2A1
330
27B
100
AcDbXrecord
280
1
290
0
  0
XRECORD
  5
2A2
330
27B
100
AcDbXrecord
280
1
 90
1
  0
XRECORD
  5
2A3
330
27B
100
AcDbXrecord
280
1
 40
0.0
  0
XRECORD
  5
2A4
330
27B
100
AcDbXrecord
280
1
 40
0.0
  0
XRECORD
  5
2A5
330
27B
100
AcDbXrecord
280
1
1000
Portrait
  0
XRECORD
  5
2A6
330
27B
100
AcDbXrecord
280
1
 40
297.0
  0
XRECORD
  5
2A7
330
27B
100
AcDbXrecord
280
1
 40
210.0
  0
XRECORD
  5
2A8
330
27B
100
AcDbXrecord
280
1
290
1
  0
XRECORD
  5
2A9
330
27B
100
AcDbXrecord
280
1
1000
1:1
  0
XRECORD
  5
2AA
330
27B
100
AcDbXrecord
280
1
290
1
  0
XRECORD
  5
2AB
330
27B
100
AcDbXrecord
280
1
290
0
  0
XRECORD
  5
2AC
330
27B
100
AcDbXrecord
280
1
1000
Inside
  0
XRECORD
  5
2AD
330
27B
100
AcDbXrecord
280
1
1000
Arial,10,-1,5,50,0,0,0,0,0
  0
XRECORD
  5
2AE
330
27B
100
AcDbXrecord
280
1
1000
TopLeft
  0
XRECORD
  5
2AF
330
27B
100
AcDbXrecord
280
1
1000
3.30.1
  0
XRECORD
  5
2B0
330
27B
100
AcDbXrecord
280
1
 90
4
  0
XRECORD
  5
2B2
330
27B
100
AcDbXrecord
280
1
 40
330.6906460495191595
  0
XRECORD
  5
2B3
330
27B
100
AcDbXrecord
280
1
 40
659.6269650642929037
  0
ENDSEC
  0
EOF
